<svg xmlns="http://www.w3.org/2000/svg" viewBox="0 0 150 150">
<style type="text/css">
	.st0{fill-rule:evenodd;clip-rule:evenodd;fill:#FFFFFF;}
	.st1{fill:#FFFFFF;}
</style>
<title>youtube2</title>
<g>
	<path class="st0" d="M75,1.9c-41.4,0-75,33.6-75,75C0,110,21.5,138.1,51.3,148c3.7,0.7,5.1-1.6,5.1-3.6c0-1.8-0.1-7.7-0.1-14
		C35.4,135,31,121.6,31,121.6c-3.4-8.7-8.3-11-8.3-11c-6.8-4.7,0.5-4.6,0.5-4.6c7.5,0.5,11.5,7.7,11.5,7.7
		c6.7,11.5,17.5,8.2,21.8,6.2c0.7-4.8,2.6-8.2,4.8-10c-16.7-1.9-34.2-8.3-34.2-37.1c0-8.2,2.9-14.9,7.7-20.1
		c-0.8-1.9-3.3-9.5,0.7-19.8c0,0,6.3-2,20.6,7.7c6-1.7,12.4-2.5,18.8-2.5c6.4,0,12.8,0.9,18.8,2.5c14.3-9.7,20.6-7.7,20.6-7.7
		c4.1,10.3,1.5,18,0.7,19.8c4.8,5.3,7.7,11.9,7.7,20.1c0,28.8-17.5,35.1-34.2,37c2.7,2.3,5.1,6.9,5.1,13.9c0,10-0.1,18.1-0.1,20.6
		c0,2,1.3,4.3,5.2,3.6c29.8-9.9,51.2-38,51.2-71.2C150,35.4,116.4,1.9,75,1.9z"/>
	<path class="st1" d="M28.4,109.5c-0.2,0.4-0.8,0.5-1.3,0.2c-0.5-0.2-0.8-0.8-0.7-1.1c0.2-0.4,0.7-0.5,1.3-0.2
		C28.3,108.6,28.6,109.2,28.4,109.5L28.4,109.5z M27.5,108.9"/>
	<path class="st1" d="M31.4,112.9c-0.4,0.3-1.1,0.2-1.5-0.3c-0.5-0.5-0.6-1.2-0.2-1.6c0.4-0.3,1-0.2,1.5,0.3
		C31.7,111.9,31.8,112.6,31.4,112.9L31.4,112.9z M30.7,112.2"/>
	<path class="st1" d="M34.4,117.2c-0.5,0.3-1.2,0-1.7-0.6c-0.5-0.7-0.5-1.5,0-1.8c0.5-0.3,1.2,0,1.7,0.6
		C34.9,116.1,34.9,116.9,34.4,117.2L34.4,117.2z M34.4,117.2"/>
	<path class="st1" d="M38.5,121.4c-0.4,0.5-1.3,0.3-1.9-0.3c-0.7-0.6-0.8-1.5-0.4-1.9c0.4-0.5,1.3-0.3,1.9,0.3
		C38.7,120.1,38.9,121,38.5,121.4L38.5,121.4z M38.5,121.4"/>
	<path class="st1" d="M44,123.8c-0.2,0.6-1,0.9-1.9,0.6c-0.8-0.3-1.4-0.9-1.2-1.5c0.2-0.6,1-0.9,1.9-0.6
		C43.7,122.6,44.2,123.2,44,123.8L44,123.8z M44,123.8"/>
	<path class="st1" d="M50.2,124.3c0,0.6-0.7,1.1-1.6,1.1c-0.9,0-1.6-0.5-1.6-1.1c0-0.6,0.7-1.1,1.6-1.1
		C49.4,123.2,50.2,123.7,50.2,124.3L50.2,124.3z M50.2,124.3"/>
	<path class="st1" d="M55.9,123.3c0.1,0.6-0.5,1.2-1.4,1.4c-0.9,0.2-1.7-0.2-1.8-0.8c-0.1-0.6,0.5-1.2,1.4-1.4
		C55,122.3,55.8,122.7,55.9,123.3L55.9,123.3z M55.9,123.3"/>
</g>
</svg>
