<svg xmlns="http://www.w3.org/2000/svg" viewBox="0 0 150 150"><defs><style>.cls-1{fill:#fff;}</style></defs><title>insta1</title><g id="レイヤー_2" data-name="レイヤー 2"><g id="Layer_1" data-name="Layer 1"><circle class="cls-1" cx="75" cy="77.12" r="13.78"/><rect class="cls-1" x="88.84" y="43.93" width="15.2" height="15.19" rx="5.29" ry="5.29"/><path class="cls-1" d="M96.78,77.12a21.78,21.78,0,1,1-41.15-9.94H41.45V99.52a9,9,0,0,0,9,9h49a9,9,0,0,0,9-9V67.18H94.37A21.66,21.66,0,0,1,96.78,77.12Z"/><path class="cls-1" d="M75,0a75,75,0,1,0,75,75A75,75,0,0,0,75,0Zm40,99.52A15.53,15.53,0,0,1,99.52,115h-49A15.53,15.53,0,0,1,35,99.52v-49A15.53,15.53,0,0,1,50.48,35h49A15.53,15.53,0,0,1,115,50.48Z"/></g></g></svg>