<svg xmlns="http://www.w3.org/2000/svg" viewBox="0 0 150 150"><defs><style>.cls-1{fill:#fff;}</style></defs><title>youtube2</title><g id="レイヤー_2" data-name="レイヤー 2"><g id="Layer_1" data-name="Layer 1"><path class="cls-1" d="M75,0a75,75,0,1,0,75,75A75,75,0,0,0,75,0Zm39.58,93c-.68,5.83-2.08,7.53-3.07,8.31-1.58,1.24-4.46,1.67-8.29,1.93-6.17.42-16.59.67-27.9.67s-21.73-.25-27.89-.67c-3.83-.26-6.71-.69-8.29-1.93-1-.77-2.38-2.48-3.07-8.31-1-8.41-1-27.58,0-36,.69-5.83,2.08-7.54,3.07-8.31,1.58-1.24,4.46-1.66,8.29-1.93,6.16-.42,16.59-.67,27.89-.67s21.73.25,27.9.67c3.83.26,6.7.69,8.29,1.93,1,.78,2.39,2.48,3.07,8.31C115.57,65.41,115.57,84.57,114.58,93Z"/><polygon class="cls-1" points="65.67 87.57 89.8 74.99 65.67 62.41 65.67 87.57"/></g></g></svg>