<svg xmlns="http://www.w3.org/2000/svg" viewBox="0 0 150 150"><defs><style>.cls-1{fill:#fff;}</style></defs><title>insta2</title><g id="レイヤー_2" data-name="レイヤー 2"><g id="Layer_1" data-name="Layer 1"><path class="cls-1" d="M92.15,42.32H57.85A15.54,15.54,0,0,0,42.32,57.85v34.3a15.54,15.54,0,0,0,15.53,15.53h34.3a15.54,15.54,0,0,0,15.53-15.53V57.85A15.54,15.54,0,0,0,92.15,42.32ZM75,95.68A20.68,20.68,0,1,1,95.68,75,20.7,20.7,0,0,1,75,95.68ZM96.32,58.59a4.82,4.82,0,1,1,4.82-4.82A4.82,4.82,0,0,1,96.32,58.59Z"/><path class="cls-1" d="M75,61.65A13.35,13.35,0,1,0,88.35,75,13.37,13.37,0,0,0,75,61.65Z"/><path class="cls-1" d="M75,0a75,75,0,1,0,75,75A75,75,0,0,0,75,0Zm40,92.15A22.88,22.88,0,0,1,92.15,115H57.85A22.88,22.88,0,0,1,35,92.15V57.85A22.87,22.87,0,0,1,57.85,35h34.3A22.88,22.88,0,0,1,115,57.85Z"/></g></g></svg>