<svg xmlns="http://www.w3.org/2000/svg" viewBox="0 0 150 150"><defs><style>.cls-1{fill:#fff;}</style></defs><title>insta3</title><g id="レイヤー_2" data-name="レイヤー 2"><g id="Layer_1" data-name="Layer 1"><path class="cls-1" d="M99.51,41.52h-49a9,9,0,0,0-9,9V60.79h24a18.82,18.82,0,0,1,19.15,0h24V50.55A9,9,0,0,0,99.51,41.52ZM104,53.29a3.88,3.88,0,0,1-3.87,3.87H96.77a3.88,3.88,0,0,1-3.87-3.87V49.9A3.88,3.88,0,0,1,96.77,46h3.38A3.88,3.88,0,0,1,104,49.9Z"/><path class="cls-1" d="M93.82,77a18.83,18.83,0,1,1-34.93-9.76H41.45V99.58a9,9,0,0,0,9,9h49a9,9,0,0,0,9-9V67.24H91.1A18.75,18.75,0,0,1,93.82,77Z"/><circle class="cls-1" cx="74.99" cy="77" r="9.03"/><path class="cls-1" d="M75,0a75,75,0,1,0,75,75A75,75,0,0,0,75,0Zm40,99.58a15.53,15.53,0,0,1-15.48,15.48h-49A15.53,15.53,0,0,1,35,99.58v-49A15.53,15.53,0,0,1,50.48,35.06h49A15.53,15.53,0,0,1,115,50.55Z"/></g></g></svg>