<svg xmlns="http://www.w3.org/2000/svg" viewBox="0 0 150 150"><defs><style>.cls-1{fill:#fff;}</style></defs><title>linkedin</title><g id="レイヤー_2" data-name="レイヤー 2"><g id="Layer_1" data-name="Layer 1"><path class="cls-1" d="M75,0a75,75,0,1,0,75,75A75,75,0,0,0,75,0ZM54.72,108.9H39.52V59.8h15.2ZM47,53.37a9.06,9.06,0,1,1,9-9.06A9,9,0,0,1,47,53.37Zm64.63,55.53H96.55V83.12c0-7.07-2.69-11-8.28-11-6.08,0-9.26,4.11-9.26,11V108.9H64.44V59.8H79v6.61a17.12,17.12,0,0,1,14.8-8.11c10.41,0,17.86,6.36,17.86,19.51Z"/></g></g></svg>