<svg xmlns="http://www.w3.org/2000/svg" viewBox="0 0 150 150"><defs><style>.cls-1{fill:#fff;}</style></defs><title>vimeo2</title><g id="レイヤー_2" data-name="レイヤー 2"><g id="Layer_1" data-name="Layer 1"><path class="cls-1" d="M75,0a75,75,0,1,0,75,75A75,75,0,0,0,75,0Zm42.16,55.6Q116.59,68,99.89,89.46q-17.27,22.45-29.22,22.45-7.4,0-12.52-13.67L51.32,73.17Q47.51,59.5,43.16,59.5q-.95,0-6.65,4l-4-5.13q6.27-5.51,12.36-11,8.36-7.23,12.54-7.61,9.88-.95,12.17,13.52Q72.07,68.85,73,72.65q2.85,13,6.27,12.95,2.66,0,8-8.4T93,64.41q.76-7.25-5.7-7.26A15.87,15.87,0,0,0,81,58.54q6.24-20.45,23.85-19.88Q117.91,39,117.16,55.6Z"/></g></g></svg>