<svg xmlns="http://www.w3.org/2000/svg" viewBox="0 0 150 150"><defs><style>.cls-1{fill:#fff;}</style></defs><title>vimeo1</title><g id="レイヤー_2" data-name="レイヤー 2"><g id="Layer_1" data-name="Layer 1"><path class="cls-1" d="M75,0a75,75,0,1,0,75,75A75,75,0,0,0,75,0Zm41.45,85.78a37.61,37.61,0,0,1-15.3,0c-4,7.9-11,18.65-20.82,26.31-1.63,1.27-2.73,2.27-5.23,2.27a7.41,7.41,0,0,1-5.18-2.09C68.6,111.21,41.21,93.11,41.21,47H52.62s-.57,37.42,22.53,54.77c0,0,8.21-5.28,15.38-20.17L90,81.32C72.6,70.58,67,35.79,91.93,35.79S107.48,68.5,107.48,68.5l-11.81-.25S102.86,47,91.74,47s-4.15,26.87,10.93,28.84c6.75.89,10.84.62,13.78-.46Z"/></g></g></svg>