<svg xmlns="http://www.w3.org/2000/svg" viewBox="0 0 150 150"><defs><style>.cls-1{fill:#fff;}</style></defs><title>youtube1</title><g id="レイヤー_2" data-name="レイヤー 2"><g id="Layer_1" data-name="Layer 1"><polygon class="cls-1" points="61.6 77.72 47.68 77.72 47.68 81.98 52.38 81.98 52.38 107.09 56.91 107.09 56.91 81.98 61.6 81.98 61.6 77.72"/><path class="cls-1" d="M69,101.87A5.43,5.43,0,0,1,67.78,103a2.21,2.21,0,0,1-1.12.46,1,1,0,0,1-.82-.35,1.89,1.89,0,0,1-.26-1.11V85.42h-4v18.11a4.85,4.85,0,0,0,.71,2.9,2.44,2.44,0,0,0,2.1,1,4.74,4.74,0,0,0,2.34-.69,8.88,8.88,0,0,0,2.31-2v2.4h4V85.42H69Z"/><path class="cls-1" d="M84.63,85.15a3.72,3.72,0,0,0-1.86.52A6.22,6.22,0,0,0,81,87.18V77.72H77v29.37H81v-1.67a5.38,5.38,0,0,0,1.71,1.46,4.54,4.54,0,0,0,2.11.48,3.25,3.25,0,0,0,2.74-1.23,5.69,5.69,0,0,0,.94-3.53v-12a6.85,6.85,0,0,0-1-4A3.39,3.39,0,0,0,84.63,85.15ZM84.41,102a2.49,2.49,0,0,1-.35,1.5A1.28,1.28,0,0,1,83,104a2.09,2.09,0,0,1-1-.24,3.51,3.51,0,0,1-1-.76V89.46a2.91,2.91,0,0,1,.83-.66,1.91,1.91,0,0,1,.85-.22,1.47,1.47,0,0,1,1.24.57,2.71,2.71,0,0,1,.43,1.67Z"/><path class="cls-1" d="M75.87,60.6a1.74,1.74,0,0,0,1.3-.5,1.89,1.89,0,0,0,.48-1.37V46.93a1.46,1.46,0,0,0-.5-1.15,1.88,1.88,0,0,0-1.29-.43,1.69,1.69,0,0,0-1.2.43,1.51,1.51,0,0,0-.46,1.15v11.8a2,2,0,0,0,.43,1.38A1.56,1.56,0,0,0,75.87,60.6Z"/><path class="cls-1" d="M75,0a75,75,0,1,0,75,75A75,75,0,0,0,75,0ZM85.18,42.14h4V58.75a1.88,1.88,0,0,0,.26,1.11.93.93,0,0,0,.82.35,2.19,2.19,0,0,0,1.13-.46,5.69,5.69,0,0,0,1.24-1.16V42.14h4V63.81h-4V61.41a8.85,8.85,0,0,1-2.32,2,4.7,4.7,0,0,1-2.34.69,2.45,2.45,0,0,1-2.11-1,4.92,4.92,0,0,1-.7-2.9Zm-9.11-.55a5.6,5.6,0,0,1,4.1,1.58,5.43,5.43,0,0,1,1.59,4V58.4a6,6,0,0,1-1.56,4.37,5.81,5.81,0,0,1-4.31,1.58,5.61,5.61,0,0,1-4.23-1.63,6,6,0,0,1-1.58-4.39V47.09a5.18,5.18,0,0,1,1.63-4A6.23,6.23,0,0,1,76.06,41.59ZM59.63,34.44l2.94,11.74h.29l2.81-11.74h4.61L65,51.62V63.81H60.46V52.17l-5.4-17.73Zm48.85,70.08A9.53,9.53,0,0,1,98.89,114c-7.55.32-15.28.45-23.16.44s-15.61-.12-23.17-.44A9.53,9.53,0,0,1,43,104.52c-.32-4.15-.46-8.29-.45-12.44s.13-8.28.45-12.43a9.53,9.53,0,0,1,9.58-9.47q10.77-.45,22-.44H76.9q11.21,0,22,.44a9.53,9.53,0,0,1,9.58,9.47c.32,4.15.45,8.29.45,12.43S108.8,100.37,108.47,104.52Z"/><path class="cls-1" d="M97.71,84.88a5.84,5.84,0,0,0-4.41,1.77,6.35,6.35,0,0,0-1.71,4.6V101a7.24,7.24,0,0,0,1.56,4.91,5.36,5.36,0,0,0,4.26,1.79,5.78,5.78,0,0,0,4.52-1.68,7.31,7.31,0,0,0,1.51-5V99.34H99.29v1.51a4.85,4.85,0,0,1-.4,2.47,1.61,1.61,0,0,1-1.4.56,1.46,1.46,0,0,1-1.36-.66,4.93,4.93,0,0,1-.4-2.37V96.76h7.7V91.25A6.81,6.81,0,0,0,102,86.52,5.43,5.43,0,0,0,97.71,84.88Zm1.59,8.52H95.73V91.21a3.45,3.45,0,0,1,.42-2,1.57,1.57,0,0,1,1.38-.59,1.53,1.53,0,0,1,1.34.59,3.46,3.46,0,0,1,.42,2Z"/></g></g></svg>