<?xml version="1.0" encoding="utf-8"?>
<!-- Generator: Adobe Illustrator 21.1.0, SVG Export Plug-In . SVG Version: 6.00 Build 0)  -->
<svg version="1.1" id="レイヤー_1" xmlns="http://www.w3.org/2000/svg" xmlns:xlink="http://www.w3.org/1999/xlink" x="0px"
	 y="0px" viewBox="0 0 202.1 65.3" style="enable-background:new 0 0 202.1 65.3;" xml:space="preserve">
<style type="text/css">
	.st0{fill:#115740;}
	.st1{fill:none;}
	.st2{fill:#FFFFFF;}
</style>
<title>アセット 1</title>
<g id="レイヤー_2">
	<g id="レイヤー_1-2">
		<rect class="st0" width="202.1" height="65.3"/>
		<path class="st1" d="M19.5,32.8h4c-0.1-0.1-0.2-0.3-0.3-0.3c-0.4-0.2-0.8-0.4-1.2-0.5c-0.2-0.1-0.3-0.2-0.4-0.4h-2.1
			c-0.3,0-0.5,0.3-0.5,0.6C19,32.4,19.1,32.8,19.5,32.8z"/>
		<path class="st1" d="M26.6,36.4c-0.7,2.1-1.5,4-3.1,5.1c-1.4-1.4-2.5-3.1-3-5c-0.9,0.8-2.1,1.4-3.3,1.5c-0.3,0-0.9-0.2-0.9-0.1
			c0.6,0.3,1.1,0.8,1,1.4c0,0.3-0.4,0.7-0.6,1.2c-0.2,0.4-0.4,0.9-0.5,1.4c2.7,1.3,5.8,1.9,8.8,1.7c2-0.2,4-0.8,5.9-1.6l-0.7-1.8
			c-0.2-0.3-0.3-0.5-0.3-0.8v-0.1l0,0c0-0.2,0-0.3,0-0.5c0.1-0.5,0.9-0.7,1-1.1C29.3,38.2,27.6,37.6,26.6,36.4z"/>
		<path class="st1" d="M21.9,33.4L21.9,33.4c-1.1,2.5,0.5,4.8,1.6,6.3c1.8-1.6,2.5-4,1.7-6.3L21.9,33.4z"/>
		<path class="st1" d="M14,39.7c-0.7,1,1,1.6,1.8,2c0.1-0.4,0.2-0.6,0.3-0.8c0.1-0.2,0.2-0.4,0.2-0.5C15.3,40.5,14.8,39.8,14,39.7z"
			/>
		<path class="st1" d="M31.2,41.7c0.8-0.3,2.4-1.2,2.1-2.1c-0.9-0.1-1.5,0.9-2.7,0.7L31.2,41.7z"/>
		<path class="st1" d="M23.2,46.8L23.2,46.8c-0.1,0-0.2,0.1-0.3,0.1c0,0-0.1,0.1-0.1,0.1c0,0,0,0.1,0,0.1c0.1,0.1,0.2,0.1,0.3,0
			c0,0,0,0,0,0l0,0c0.1-0.1,0.1-0.2,0.1-0.3L23.2,46.8z"/>
		<path class="st1" d="M30.3,45.6h-0.1c-0.1,0-0.1,0-0.2,0.1c0,0-0.1,0.2,0,0.2h0c0,0,0.1,0,0.1-0.1C30.3,45.8,30.3,45.7,30.3,45.6z
			"/>
		<path class="st1" d="M24.4,53.5h-0.1c0.1,0.5,0.2,1,0.2,1.5c0.1,1,0,1.7-0.2,2c-0.1,0.1-0.2,0.1-0.3,0.1c-0.2,0-0.3-0.1-0.4-0.2
			c-0.2-0.5-0.3-1-0.1-1.5c0.1-0.5,0.2-1,0.5-1.4c0-0.3-0.1-0.6-0.1-0.8l0,0c-0.2,0.5-0.3,1.1-0.4,1.6c-0.1,0.7-0.1,1.5,0,2.2
			c0,0.2,0.2,0.9,0.7,0.9l0,0c0.3,0,0.5-0.2,0.5-0.4c0.2-0.6,0.3-1.3,0.2-2C24.8,54.8,24.6,54.1,24.4,53.5z"/>
		<path class="st1" d="M21.3,20.1c0.2-0.7,1.1-0.7,1.7-1.1c0.1-2.3,0-6.1,0.2-8.5c0-0.3-0.1-0.9,0.4-0.8s0.2,0.7,0.3,1
			s0,0.6,0.1,0.9c0.1,2.8,0,4.9,0.1,7.4c0.7,0.2,1.2,0.5,1.7,1c0.9-0.1,1.1,0.4,1.9,0.5c1.1-5-2.1-8.8-4.1-12c-2.1,3-5.5,6.7-4,12
			C20,20.1,20.7,20,21.3,20.1z"/>
		<path class="st1" d="M18.1,23.4c0-0.5,0-0.9,0.2-1.4c-1.1-1.2-2.3-2.6-4.3-2.8c-2.2-0.3-4.3,1.2-4.6,3.4c0,0.2,0,0.3,0,0.5
			c0.1,2.4,1.6,3.4,2.9,4.7c0.3-1.2,1.3-2,2.5-2.2c0.8,0,1.6,0.1,2.3,0.3c-0.1-0.1-0.2-0.2-0.2-0.4C17.4,25,17.4,24,18.1,23.4z
			 M14.8,25.4l-1.7-1.2l-1.7,1.2l0.7-2l-1.6-1.1h1.9l0.6-1.9l0.7,1.8h2l-1.6,1.1L14.8,25.4z"/>
		<path class="st1" d="M23.3,50.1c0.1,0.2,0.2,0.5,0.3,0.7c0-0.1,0.1-0.3,0.1-0.4c0-0.1,0-0.2,0-0.3l0,0L23.3,50.1z"/>
		<path class="st1" d="M23.4,52.3c0.3,0.3,0.6,0.5,1,0.6c0.1,0,0.2,0.1,0.2,0.1c0,0,0-0.1,0-0.1c0,0-0.1-0.1-0.3-0.2
			c-0.4-0.1-0.7-0.3-1-0.6l0,0C23.3,52.2,23.3,52.3,23.4,52.3z"/>
		<path class="st1" d="M24.5,50.1h-0.2c0,0.1,0,0.3-0.1,0.4c-0.1,0.2-0.1,0.5-0.2,0.7c0.1,0.1,0.2,0.2,0.3,0.2
			c0.1-0.2,0.1-0.5,0.1-0.7C24.5,50.5,24.5,50.3,24.5,50.1z"/>
		<path class="st1" d="M23.7,51.7c0.4,0.4,0.5,0.5,0.8,0.5l0,0l0,0c0-0.1,0-0.1-0.1-0.2c-0.4-0.2-0.7-0.4-0.9-0.7
			C23.5,51.4,23.5,51.5,23.7,51.7z"/>
		<path class="st1" d="M17.9,36.7c1.7-0.2,2.6-1.7,2.9-3.3h-1c-0.6,1.7-3.4,2.1-4.3,0.5c-0.1,0-0.1-0.3-0.1,0
			c-0.3,1.2,0.3,2.4,1.5,2.7C17.2,36.8,17.5,36.8,17.9,36.7z"/>
		<path class="st1" d="M17.6,46.1C17.5,46,17.4,46,17.3,46l0,0c-0.2,0-0.3,0.1-0.3,0.2s0.1,0.1,0.1,0.2h0.1c0.1,0,0.2,0,0.3-0.1
			C17.5,46.3,17.6,46.1,17.6,46.1z"/>
		<path class="st1" d="M12.9,39.1c0.7-1.3,2.5,0.6,3.4,0.2c0-0.6-0.8-0.8-1.2-1c-1.4-0.8-2.7-1.7-3.9-2.8c0.2,1.9,0.5,3.6,1.6,4.6
			C12.8,39.7,12.7,39.4,12.9,39.1z"/>
		<path class="st1" d="M24,56.6c0.1-0.5,0.2-1,0.1-1.5c0,0.2-0.1,0.3-0.1,0.5C23.8,56.3,24,56.5,24,56.6z"/>
		<path class="st1" d="M25.1,48.9c-0.8,0.1-1.6,0.1-2.4,0.1h-0.2l0.1,0.4l0.1,0.2l0.3,0h1.7h0.6l0.1-0.3c0-0.1,0.1-0.2,0.1-0.3v-0.1
			L25.1,48.9z"/>
		<path class="st1" d="M27.6,31.7h-2.1c-0.1,0.1-0.3,0.3-0.5,0.3c-0.3,0.1-0.6,0.1-0.8,0.2s-0.5,0.5-0.7,0.6h4.1
			c0.1,0,0.4,0,0.4-0.6C28.2,31.9,27.8,31.7,27.6,31.7z"/>
		<path class="st1" d="M28.3,23.5c0.3-1-0.4-1.5-0.5-2.3c-1,0-1.4-1-2.4-0.5c-0.2-0.9-1.3-0.9-2-1.3c-0.3,0.4-0.9,0.4-1.4,0.7
			c-0.3,0.2-0.4,0.4-0.6,0.5c-1.2-0.2-1.4,0.6-2.3,0.7c0,1-0.8,1.3-0.5,2.5c-0.9,0.2-0.7,1.4-1.2,1.9c0.4,0.4,0.5,1.1,0.8,1.6
			c0.1,0.2,0.5,0.2,0.5,0.5c-0.3,1,0.4,1.4,0.5,2.3c0.9,0,1.4,1,2.3,0.5c0.3,0.8,1.4,0.9,2.1,1.4c0.5-0.6,1.7-0.5,1.9-1.4
			c1,0.5,1.4-0.4,2.3-0.5c0-0.9,0.8-1.5,0.4-2.3c0.8-0.4,0.8-1.5,1.3-2.1c-0.3-0.4-0.3-1-0.5-1.4S28.5,23.8,28.3,23.5z"/>
		<path class="st1" d="M27.4,33.4h-1c0.4,1.6,1.4,3.5,3.4,3.4c1.2-0.1,2.1-1.2,2-2.4c0-0.2,0-0.3-0.1-0.5c-0.6,0.7-1.5,1.1-2.4,1
			C28.5,34.7,27.8,34.1,27.4,33.4z"/>
		<path class="st1" d="M33.9,41.4c-0.9,0.8-1.9,1.5-3,2c-2.3,1.1-4.9,1.6-7.5,1.6c-2,0-4.1-0.4-6-1.1c-1.7-0.5-3.2-1.4-4.5-2.6
			c0,0.2-0.1,0.4-0.1,0.6c-0.2,0.6-0.5,1.2-0.9,1.8l-0.1,0.2l0.2,0.2l0,0l0.3,0.3c0.9,0.7,1.9,1.2,2.9,1.7c0.5,0.2,1,0.4,1.6,0.6
			c-0.2-0.1-0.2-0.3-0.2-0.5c0-0.2,0.2-0.4,0.5-0.5h0.1c0.1,0,0.3,0,0.4,0.1c0-0.1,0-0.2,0.1-0.2c0.1-0.1,0.1-0.2,0.2-0.2l0,0
			c0.1,0,0.1,0.1,0.1,0.2c0,0,0,0,0,0l0,0l0,0.2v0.2c0.1,0.1,0.2,0.1,0.3,0.2c0.2,0.2,0.3,0.3,0.2,0.5s-0.2,0.1-0.3,0l-0.1-0.1
			l-0.2-0.2l0,0c0,0.1-0.1,0.2-0.1,0.2c-0.1,0.1-0.3,0.2-0.4,0.2h-0.1c2.2,0.7,4.4,1.1,6.7,1.1h0.3c3-0.1,5.9-0.9,8.5-2.3
			c0.9-0.4,1.7-0.9,2.4-1.7c-0.3-0.5-0.6-1-0.8-1.5C34.1,42.1,34,41.7,33.9,41.4z M15.9,44.7c0,0.1-0.1,0.1-0.2,0.1c0,0-0.1,0-0.1,0
			c-0.2-0.1-0.4-0.1-0.5-0.1c-0.1,0-0.3,0-0.4,0.2c-0.1,0.1-0.1,0.3,0,0.4c0.1,0.1,0.2,0.3,0.1,0.4c0,0-0.1,0-0.1,0
			c-0.1,0-0.2,0-0.4-0.3c-0.2-0.2-0.2-0.5,0-0.8c0.1-0.1,0.2-0.2,0.3-0.2c-0.1-0.1-0.3-0.2-0.4-0.2h-0.1c-0.1,0-0.3-0.1-0.4-0.2
			c-0.1-0.1-0.1-0.2,0-0.2l0,0c0.1-0.1,0.2-0.1,0.2,0c0,0,0,0,0,0l0,0c0.2,0.1,0.3,0.2,0.5,0.3c0.2,0.1,0.4,0.1,0.6,0
			c0.1,0,0.2-0.1,0.2-0.2c0,0,0-0.1-0.1,0h-0.3c-0.1,0-0.2,0-0.4-0.1c-0.2-0.1-0.4-0.3-0.3-0.6l0,0c0-0.1,0.1-0.1,0.1-0.1
			c0,0,0,0,0.1,0l0,0c0.1,0.2,0.2,0.3,0.4,0.3c0.1,0,0.3,0,0.4,0c0.2,0,0.3,0,0.5,0.1c0.2,0.1,0.2,0.3,0.2,0.4
			c-0.1,0.1-0.2,0.2-0.3,0.2c-0.2,0-0.3,0.1-0.3,0.1s0,0,0,0c0.2,0.1,0.3,0.2,0.5,0.2c0,0,0.1,0,0.1,0.1
			C15.9,44.5,15.9,44.6,15.9,44.7z M18.1,44.9c0,0.1-0.1,0.1-0.2,0.1h-0.1l-0.3-0.1l-0.4,0.3l-0.5,0.3l-0.1,0.1
			c-0.1,0-0.1,0.1-0.2,0.1c-0.1,0-0.1,0-0.1-0.1c0-0.1,0-0.1,0-0.2c0-0.1,0.1-0.2,0.2-0.2c0.2-0.1,0.4-0.3,0.6-0.4l0.1-0.1l-0.2,0
			c0,0-0.1,0-0.1-0.1c0-0.1,0-0.1,0-0.2c0-0.1,0.1-0.1,0.2-0.1h0.1l0.2,0.1h0c0.1-0.1,0.2-0.2,0.3-0.2h0.1c0.1,0,0.1,0.1,0.1,0.1
			c0,0,0,0.1,0,0.1l0,0l0,0H18c0.1,0,0.1,0.1,0.2,0.1c0,0,0,0.1,0,0.1L18.1,44.9z M20.3,45c0-0.1,0.1-0.1,0.1-0.1h0.1
			c0.2,0,0.3,0.1,0.4,0.2c0.1,0,0.1,0.1,0.1,0.1c0,0,0,0.1,0,0.1c0,0.1-0.1,0.1-0.2,0.1h-0.1c-0.2,0-0.3-0.1-0.4-0.2
			C20.3,45.2,20.3,45.1,20.3,45L20.3,45z M18.9,45.5c0,0.1-0.1,0.1-0.2,0.1l0,0l-0.1-0.1l-0.2-0.1c-0.1,0-0.2-0.1-0.1-0.3
			c0-0.1,0.1-0.1,0.1-0.1h0.1l0.4,0.2c0,0,0.1,0.1,0.1,0.1C18.9,45.4,18.9,45.4,18.9,45.5L18.9,45.5z M21.7,47.4
			c0,0-0.1,0.1-0.2,0.1H21c-0.2,0-0.3-0.1-0.3-0.3c0-0.1,0-0.1,0-0.2c0,0,0-0.1,0-0.1c0-0.1,0-0.1-0.1-0.1h0
			c-0.2,0.1-0.3,0.2-0.5,0.3c-0.1,0.1-0.3,0.2-0.4,0.2c-0.1,0-0.2,0-0.2-0.1c0,0,0,0,0,0c0-0.1,0.1-0.2,0.2-0.3l0.1,0
			c0.2-0.1,0.3-0.1,0.5-0.2l0,0c0.1-0.1,0.4-0.2,0.5-0.3s0.1-0.1,0.1-0.1H20c-0.1,0-0.2-0.1-0.2-0.2c0,0,0-0.1,0-0.1
			c0,0,0.1-0.1,0.2-0.1h0.2h0.5h0.7c0.1,0,0.2,0.1,0.2,0.1c0,0.1-0.1,0.2-0.2,0.2l-0.1,0.1l-0.2,0.1H21c-0.1,0-0.1,0.1-0.2,0.1l0,0
			c0,0,0,0.1,0,0.1l0,0c0.1,0,0.2,0.1,0.2,0.1c0,0,0,0,0,0c0,0.1,0,0.2,0,0.3l0,0c0,0.1,0,0.1,0.1,0.2h0.4c0.1,0,0.2,0.1,0.2,0.2
			C21.8,47.2,21.8,47.3,21.7,47.4L21.7,47.4z M24.5,47.1c0,0.1-0.1,0.1-0.2,0.1c0,0-0.1,0-0.1,0L23.9,47h-0.1c0,0-0.1,0-0.1,0
			c0,0.1,0,0.2,0,0.2c-0.1,0.3-0.3,0.5-0.6,0.6l0,0c-0.3,0-0.5-0.2-0.6-0.5c0-0.3,0.1-0.5,0.3-0.6c0.1-0.1,0.2-0.1,0.4-0.1h0.1
			c0-0.2-0.1-0.3-0.1-0.5c0-0.1-0.1-0.2-0.1-0.3c0,0,0-0.1,0-0.1c0-0.1,0-0.2,0.1-0.2s0.2,0,0.2,0.1c0,0.1,0.1,0.1,0.1,0.2
			c0,0.1,0,0.1,0.1,0.2l0.2-0.1c0.1,0,0.1-0.1,0.2-0.1c0,0,0.1,0,0.1,0c0,0.1,0,0.1,0,0.2c0,0.1-0.1,0.1-0.1,0.1h-0.1l-0.1,0
			l-0.1,0.1c0,0.1,0,0.1,0,0.2c0,0.1,0,0.1,0,0.2c0.1,0,0.2,0.1,0.4,0.1l0.1,0.1c0.1,0,0.2,0.1,0.3,0.2C24.5,46.9,24.5,47,24.5,47.1
			L24.5,47.1z M27.2,46.9c-0.3,0.2-0.6,0.4-0.9,0.5h-0.1c-0.1,0-0.2,0-0.2-0.1c0-0.1,0-0.2,0-0.2c0,0,0.1-0.1,0.1-0.1
			c0.2-0.1,0.5-0.2,0.7-0.3c0.2-0.1,0.4-0.3,0.4-0.6c0-0.3-0.2-0.5-0.5-0.5h-0.1c-0.3,0-0.7,0.1-1,0.3L25.5,46
			c-0.1,0.1-0.2,0.1-0.3,0.1c0,0-0.1,0-0.1,0c0-0.1,0-0.1,0-0.2c0-0.1,0.1-0.2,0.2-0.2c0.3-0.2,0.7-0.3,1.1-0.4c0.1,0,0.3,0,0.4,0
			c0.3,0,0.6,0.1,0.7,0.4C27.7,46.1,27.6,46.6,27.2,46.9L27.2,46.9z M31,45.6c0,0.1,0,0.2-0.1,0.1h-0.1h-0.1c0,0.1,0,0.2,0,0.3
			c-0.1,0.2-0.3,0.4-0.5,0.4l0,0c-0.2,0-0.4-0.3-0.4-0.5c0-0.2,0.1-0.3,0.2-0.4c0.1-0.1,0.3-0.1,0.4-0.1l0,0c0-0.2,0-0.3-0.1-0.5
			c-0.1-0.2-0.2-0.3-0.3-0.3l0,0c-0.1,0-0.2,0.1-0.3,0.2s-0.3,0.4-0.3,0.5l0,0v0.1c-0.1,0.1-0.1,0.3,0,0.4l0.1,0.2
			c0,0.1,0.1,0.2,0.1,0.3c0.1,0.1,0.1,0.2,0,0.3c0,0.1-0.1,0.1-0.2,0.1c-0.1,0-0.2-0.1-0.3-0.2c0-0.1-0.1-0.2-0.1-0.3
			c0,0.1-0.1,0.2-0.1,0.2c0,0-0.1,0.3-0.2,0.3h-0.1c-0.1-0.1-0.2-0.2-0.1-0.4l0,0c0.1-0.1,0.1-0.2,0.1-0.4c0-0.1,0.1-0.3,0.1-0.4
			v-0.2l0,0c-0.1,0-0.2,0.1-0.3,0.2h-0.1c-0.1,0-0.2,0-0.2-0.1c0-0.1,0-0.2,0.1-0.2c0.1-0.1,0.2-0.1,0.3-0.2h0.1
			c0-0.1,0-0.1-0.1-0.2c0-0.1,0-0.1,0-0.2c0,0,0-0.1,0.1-0.1h0.1c0,0,0.1,0,0.1,0l0.1,0.1c0,0.1,0.1,0.1,0.1,0.2l0,0l0,0h0.1
			c0.1,0,0.1,0,0.2-0.1c0.1-0.2,0.3-0.3,0.5-0.5c0.1,0,0.1,0,0.2,0c0.1,0,0.2,0,0.3,0.1c0.2,0.2,0.3,0.5,0.4,0.8c0,0.1,0,0.2,0,0.3
			h0.2c0.1,0,0.2,0.1,0.2,0.2L31,45.6z M32.2,45.4c0,0.1-0.1,0.1-0.2,0.1c0,0-0.1,0-0.1,0c-0.3-0.2-0.6-0.6-0.7-1
			c-0.2-0.5-0.2-1-0.1-1.1s0.3,0,0.3,0.3c0,0.4,0.2,0.7,0.4,1l0.1,0.1c0.1,0.1,0.2,0.2,0.3,0.3C32.2,45.3,32.2,45.4,32.2,45.4
			L32.2,45.4z M32.3,43.4l-0.1,0.1c-0.1,0.1-0.2,0.1-0.3,0.2c0,0-0.1,0-0.1,0c0-0.1-0.1-0.1,0-0.2c0-0.1,0.1-0.1,0.1-0.2l0.1,0
			c0.2-0.1,0.3-0.2,0.5-0.3c0.1-0.1,0.1-0.1,0.2-0.1c0.1,0,0.2,0.1,0.2,0.2c0,0,0,0,0,0.1c0,0.1-0.1,0.2-0.1,0.3l0,0.1
			c-0.1,0.1-0.1,0.2-0.1,0.3c0,0-0.1,0.1-0.1,0.1c0,0-0.1,0-0.1,0c-0.1-0.1-0.1-0.2,0-0.3v-0.1V43.4L32.3,43.4z M33.3,44.9
			c-0.2,0.1-0.4,0.2-0.6,0.2h-0.2c-0.2,0-0.3-0.2-0.3-0.3c0-0.1,0-0.1,0-0.2c0,0,0.1-0.1,0.1,0c0.1,0,0.1,0,0.2,0.1
			c0,0.1,0.1,0.1,0.2,0.1c0,0,0.1,0,0.1,0l0.1-0.1c0.1-0.1,0.2-0.2,0.3-0.2c0,0,0.1-0.1,0.1-0.1c0.1,0,0.1,0,0.2,0.1
			C33.7,44.4,33.7,44.7,33.3,44.9L33.3,44.9z"/>
		<path class="st1" d="M30.9,39.3c0.7,0.3,1.7-0.8,2.5-0.7c0.7,0.2,1.1,0.8,1,1.5c0.9-1.3,1.4-2.9,1.4-4.5c-1.1,1.1-2.4,2.1-3.8,2.8
			C31.7,38.6,30.8,38.7,30.9,39.3z"/>
		<path class="st1" d="M34.2,19.3c-2.2-0.1-4.3,1.1-5.4,3c0.1,0.4,0.2,0.8,0.1,1.2c0.7,0.5,0.8,1.7,1.4,2.3c0,0.2-0.1,0.1-0.1,0.3
			c1.6-0.9,3.6-0.2,4.5,1.4c0.1,0.2,0.2,0.4,0.2,0.6c1.3-1.3,3.2-3.2,2.8-5.4C37.4,20.9,36,19.5,34.2,19.3z M35.6,25.3L35.6,25.3
			l-0.9-0.6l-0.9-0.6l-0.7,0.5l-1,0.7l0,0l0.7-2l-1.5-1.1h1.9l0.3-1l0.3-0.8l0,0l0.7,1.8h2l-1.6,1.1L35.6,25.3z"/>
		<path class="st2" d="M35.5,18.4c-0.2-0.1-0.5-0.2-0.8-0.2c-2.3-0.2-4.5,0.7-6,2.3c0.5-2.3,0.2-4.7-0.7-6.9
			c-1.2-2.4-2.7-4.7-4.4-6.8c-1.6,2-3,4.1-4.2,6.3c-0.4,0.8-0.8,1.6-1,2.5c-0.2,1.6-0.2,3.3,0,4.9c0,0.2-0.1,0.1-0.1,0
			c-1.3-1.1-2.5-2.3-4.5-2.3c-2.6-0.1-4.9,1.8-5.4,4.4v1.1c0.2,1.1,0.6,2.1,1.3,3c0.6,0.8,1.3,1.3,2,2.1c0.3,0.3,0.4,0.8,0.8,1
			c0.5-0.2,0.4-0.9,0.5-1.3c0.3-0.6,0.7-1.2,1.3-1.5c1.6-0.7,2.9,0.5,3.9,1.4c-0.2,1.2,0.7,1.4,0.6,2.4c0,0.1,0.2,0.1,0.4,0.1v0.3
			c-0.2,0.1-0.3,0.1-0.4,0.3c-0.2,0.2-0.3,0.6-0.3,0.9l0,0c0,0.3,0.2,0.6,0.5,0.9c-0.7,0.7-1.7,0.8-2.5,0.3c-0.5-0.3-0.5-1.2-1-1.2
			c-0.8-0.1-1.3,1.4-1.4,2c-0.1,1.1,0.4,2.2,1.2,3c-1.3-0.7-2.5-1.5-3.6-2.5c-0.4-0.3-0.6-0.8-1.1-1c-0.6,0.4-0.4,1.5-0.3,2.3
			c0.1,1.7,0.7,3.4,1.7,4.9c0.1,0.2,0.3,0.3,0.4,0.5c0,0.1,0,0.2-0.1,0.3c-0.2,0.6-0.4,1.1-0.8,1.6l-0.1,0.1
			c-0.2,0.2-0.3,0.6-0.3,0.9c0,0.8,1.3,1.4,2,1.8c2.6,1.4,5.4,2.3,8.3,2.8H22l0.1,0.5l0.2,0.5h0.1l0.4,0.1c0.1,0.3,0.2,0.6,0.4,0.9
			l0,0.1c-0.2,0.2-0.2,0.5-0.1,0.7c-0.3,0.3-0.3,0.7,0,1c0.1,0.1,0.2,0.2,0.3,0.3c-0.2,0.6-0.3,1.2-0.4,1.8c-0.1,0.8-0.1,1.6,0,2.4
			c0.1,0.6,0.5,1.3,1.2,1.3H24c0.5,0,0.9-0.3,1-0.8c0.2-0.7,0.3-1.4,0.2-2.2c0-0.7-0.1-1.4-0.3-2.1c0.1-0.1,0.2-0.3,0.2-0.4
			c0-0.2,0-0.4-0.2-0.6c0-0.1,0-0.2,0-0.3c0-0.1-0.1-0.3-0.2-0.4c0.1-0.3,0.2-0.6,0.2-0.9v-0.7h0.6l0.1-0.1l0.2-0.4
			c0.1-0.2,0.1-0.4,0.1-0.6l0,0c2.9-0.4,5.6-1.3,8.1-2.7c0.7-0.4,2-1,2-1.8c0-0.3-0.1-0.5-0.3-0.7l0,0c-0.3-0.5-0.6-1-0.9-1.5
			c-0.1-0.2-0.1-0.4-0.2-0.5c0.1-0.2,0.3-0.4,0.4-0.5c1.1-1.5,1.7-3.2,1.9-5c0.2-0.8,0.1-1.6-0.1-2.4c-1.8,1-2.8,2.7-4.8,3.5
			c0.1-0.4,0.6-0.7,0.8-1.2c0.2-0.6,0.3-1.3,0.2-2c-0.1-0.6-0.5-1.7-1.1-1.7s-0.9,1.1-1.6,1.4c-0.7,0.3-1.5,0.1-2-0.5
			c0.3-0.3,0.4-0.6,0.3-1c0-0.4-0.3-0.8-0.7-1v-0.5c0.1,0,0.2,0,0.3,0c-0.1-1.1,0.6-1.5,0.5-2.5c1-1.4,4-2.2,5-0.3
			c0.2,0.5,0.1,1.3,0.5,1.7c0.5,0,0.8-0.5,1-0.8s0.5-0.6,0.8-0.9c0.6-0.5,1.2-1.1,1.7-1.7c0.4-0.7,0.7-1.5,0.9-2.3v-1.6
			C38.4,20.6,37.2,19.2,35.5,18.4z M23.5,8.6c2.1,3.1,5.3,7,4.1,12c-0.7-0.1-0.9-0.6-1.9-0.5c-0.5-0.5-1.1-0.8-1.7-1
			c-0.1-2.5,0-4.6-0.1-7.4c0-0.2,0-0.6-0.1-0.9s0.2-0.9-0.3-1s-0.4,0.5-0.4,0.8C23,12.9,23.1,16.8,23,19c-0.6,0.4-1.5,0.4-1.7,1.1
			c-0.6-0.1-1.3,0-1.8,0.5C18.1,15.3,21.5,11.6,23.5,8.6L23.5,8.6z M14.7,25.7c-1.2,0.2-2.1,1-2.5,2.2c-1.3-1.3-2.8-2.3-2.9-4.7
			c0.1-2.3,2-4,4.2-4c0.1,0,0.3,0,0.4,0c1.9,0.2,3.2,1.5,4.3,2.8c-0.2,0.4-0.2,0.9-0.2,1.4c-0.6,0.5-0.7,1.6-1.3,2.2
			c0,0.2,0.1,0.3,0.2,0.4C16.2,25.8,15.5,25.7,14.7,25.7z M19.4,31.7h2.1c0.1,0.1,0.3,0.2,0.4,0.3c0.4,0.1,0.8,0.3,1.2,0.5
			c0,0,0.2,0.2,0.3,0.3h-4c-0.4,0-0.5-0.4-0.5-0.5C19,32,19.2,31.7,19.4,31.7L19.4,31.7z M29.8,38.9c0,0.2,0,0.3,0,0.5l0,0v0.1
			c0.1,0.3,0.2,0.6,0.3,0.8l0.7,1.7C29,42.9,27,43.4,25,43.7c-3,0.2-6.1-0.4-8.8-1.8c0.1-0.5,0.3-0.9,0.5-1.4
			c0.2-0.4,0.6-0.8,0.6-1.2c0.1-0.7-0.4-1.1-1-1.4c0-0.1,0.6,0.1,0.9,0.1c1.3-0.1,2.4-0.7,3.4-1.5c0.5,1.9,1.6,3.6,3,5
			c1.6-1.1,2.4-3,3.1-5.1c1,1.3,2.7,1.9,4.3,1.4C30.7,38.2,30,38.4,29.8,38.9z M33.3,39.7c0.4,0.9-1.2,1.8-2.1,2.1l-0.6-1.4
			C31.7,40.6,32.4,39.6,33.3,39.7L33.3,39.7z M16,40.9c0,0.2-0.1,0.4-0.3,0.8c-0.8-0.4-2.5-1-1.8-2c0.8,0.2,1.4,0.8,2.3,0.7
			C16.2,40.5,16.1,40.7,16,40.9z M23.5,39.7c-1.1-1.4-2.8-3.8-1.6-6.3h3.4C25.9,35.6,25.3,38.1,23.5,39.7L23.5,39.7z M15.3,34
			c0-0.3,0,0,0.1,0c0.9,1.5,3.7,1.1,4.3-0.5h1c-0.3,1.6-1.2,3.1-2.9,3.3c-1.2,0.2-2.3-0.5-2.6-1.7C15.2,34.7,15.2,34.3,15.3,34z
			 M11.1,35.6c1.2,1.1,2.5,2,3.9,2.8c0.4,0.2,1.1,0.3,1.2,1c-0.9,0.4-2.6-1.5-3.4-0.2c-0.2,0.3-0.1,0.6-0.1,1.1
			C11.7,39.2,11.3,37.5,11.1,35.6z M24.5,57.5c-0.1,0.2-0.3,0.4-0.5,0.4l0,0c-0.5,0-0.6-0.8-0.7-0.9c-0.1-0.7-0.1-1.5,0-2.2
			c0.1-0.5,0.2-1.1,0.4-1.6l0,0c0,0.2,0.1,0.5,0.1,0.8c-0.2,0.5-0.4,1-0.5,1.5c-0.2,0.5-0.1,1,0.1,1.5c0.1,0.1,0.3,0.2,0.4,0.2
			c0.1,0,0.2,0,0.3-0.1c0.3-0.6,0.4-1.3,0.2-2c0-0.5-0.1-1.1-0.2-1.6h0.1c0.2,0.7,0.3,1.4,0.3,2.1C24.8,56.1,24.7,56.8,24.5,57.5z
			 M24.4,52c0.1,0,0.1,0,0.1,0.2l0,0l0,0c-0.2,0-0.4-0.1-0.8-0.5c-0.2-0.2-0.2-0.3-0.2-0.4C23.7,51.6,24,51.8,24.4,52L24.4,52z
			 M24,51.2c0.1-0.2,0.2-0.5,0.2-0.7c0-0.1,0.1-0.3,0.1-0.4h0.2v0.7c0,0.2-0.1,0.5-0.1,0.7C24.2,51.4,24.1,51.3,24,51.2L24,51.2z
			 M23.7,50.4c0,0.1-0.1,0.3-0.1,0.4c-0.1-0.2-0.3-0.4-0.3-0.7h0.5C23.8,50.2,23.8,50.3,23.7,50.4L23.7,50.4z M23.3,52.1
			c0.3,0.3,0.6,0.5,1,0.6c0.2,0,0.3,0.2,0.3,0.2c0,0,0,0.1,0,0.1c-0.1,0-0.2,0-0.2-0.1c-0.4-0.1-0.7-0.3-1-0.6
			C23.3,52.2,23.3,52.2,23.3,52.1L23.3,52.1z M24,56.6c0,0-0.2-0.2,0-1c0-0.2,0-0.3,0.1-0.5C24.2,55.6,24.1,56.1,24,56.6L24,56.6z
			 M25.4,49.2l-0.1,0.3h-0.6H23l-0.3,0l-0.1-0.2l-0.1-0.4h0.2c0.8,0,1.6,0,2.4-0.1h0.3v0.1C25.4,49,25.4,49.1,25.4,49.2L25.4,49.2z
			 M35.1,43.8c-0.7,0.7-1.5,1.3-2.4,1.7c-2.6,1.4-5.5,2.2-8.5,2.3h-0.3c-2.3,0-4.6-0.4-6.7-1.1h-0.1c-0.1,0-0.1,0-0.2-0.1
			c-0.6-0.2-1.1-0.4-1.6-0.6c-1-0.4-2-1-2.9-1.6l-0.3-0.3l0,0L12,43.9l0.1-0.2c0.4-0.6,0.7-1.2,0.8-1.8c0.1-0.2,0.1-0.4,0.1-0.6
			c1.3,1.2,2.8,2.1,4.4,2.7c1.9,0.7,4,1.1,6,1.1c2.6,0,5.1-0.6,7.4-1.7c1.1-0.5,2.1-1.2,3-2c0.1,0.3,0.2,0.7,0.3,1
			C34.5,42.9,34.8,43.3,35.1,43.8L35.1,43.8z M32.1,38.4c1.4-0.7,2.7-1.7,3.8-2.8c0,1.6-0.5,3.2-1.4,4.5c0.1-0.7-0.3-1.3-1-1.5
			c-0.9-0.1-1.9,1-2.5,0.7C30.9,38.7,31.7,38.6,32.1,38.4L32.1,38.4z M29.4,34.9c0.9,0.1,1.8-0.3,2.4-1c0.4,1.2-0.3,2.4-1.4,2.8
			c-0.2,0.1-0.3,0.1-0.5,0.1c-2.1,0.2-3.1-1.8-3.4-3.4h1C27.8,34.2,28.5,34.7,29.4,34.9L29.4,34.9z M28.2,32.2
			c0,0.6-0.2,0.6-0.4,0.6h-4.1c0.2-0.1,0.5-0.5,0.7-0.6s0.5-0.1,0.8-0.2c0.2-0.1,0.3-0.2,0.5-0.4h2.1C27.8,31.7,28.2,31.9,28.2,32.2
			L28.2,32.2z M28.4,27.8c0.4,0.9-0.4,1.4-0.4,2.3c-1,0.1-1.4,1-2.3,0.5c-0.2,0.9-1.4,0.8-1.9,1.4c-0.7-0.4-1.8-0.5-2.1-1.4
			c-1,0.5-1.4-0.5-2.3-0.5c-0.1-0.9-0.8-1.3-0.5-2.3c-0.1-0.2-0.4-0.3-0.5-0.5c-0.2-0.6-0.3-1.3-0.8-1.6c0.5-0.5,0.4-1.7,1.2-1.9
			c-0.2-1.3,0.5-1.5,0.5-2.5c0.9-0.1,1.1-0.9,2.3-0.7c0.3-0.1,0.4-0.4,0.6-0.5c0.5-0.3,1.1-0.2,1.4-0.7c0.7,0.4,1.8,0.5,2,1.3
			c1-0.5,1.4,0.5,2.4,0.5c0.1,0.8,0.8,1.4,0.5,2.3c0.2,0.3,0.5,0.4,0.8,0.8s0.2,1,0.5,1.4C29.1,26.4,29.1,27.5,28.4,27.8L28.4,27.8z
			 M35,28c-0.5-1.8-2.4-2.8-4.2-2.2c-0.2,0.1-0.4,0.1-0.6,0.2c0-0.1,0.2-0.1,0.1-0.3c-0.6-0.6-0.6-1.8-1.4-2.3c0-0.4,0-0.8-0.1-1.2
			c1.1-1.9,3.2-3.1,5.4-3c1.7,0.2,3.1,1.6,3.4,3.3C38.2,24.7,36.3,26.7,35,28L35,28z"/>
		<polygon class="st2" points="33.8,20.4 33.6,21.2 33.8,20.4 		"/>
		<polygon class="st2" points="33.8,24.1 34.7,24.8 33.8,24.1 		"/>
		<polygon class="st2" points="35.6,25.4 34.9,23.4 35.6,25.4 		"/>
		<polygon class="st2" points="32.2,25.4 33.2,24.6 32.2,25.4 		"/>
		<path class="st2" d="M15.8,44.5c-0.2-0.1-0.4-0.1-0.5-0.2c0,0-0.1,0-0.1-0.1c0,0,0,0,0,0c0.1-0.1,0.2-0.1,0.4-0.2
			c0.1,0,0.2-0.1,0.3-0.2c0-0.1,0-0.3-0.2-0.4c-0.1-0.1-0.3-0.1-0.4-0.1c-0.1,0-0.3,0-0.4,0c-0.2,0-0.3-0.2-0.4-0.3l0,0l0,0
			c0,0,0,0-0.1,0.1c0,0.2,0.1,0.4,0.3,0.5c0.1,0.1,0.2,0.1,0.3,0.1h0.3c0.1,0,0.1,0,0.1,0.1c0,0.1-0.1,0.2-0.2,0.3
			c-0.2,0.1-0.4,0.1-0.6,0c-0.2-0.1-0.4-0.2-0.6-0.3c0,0-0.1,0-0.1,0c0,0-0.1,0-0.1,0c0,0.1-0.1,0.1,0,0.2c0.1,0.1,0.2,0.2,0.4,0.2
			h0.1c0.2,0.1,0.3,0.2,0.5,0.3l0,0c-0.1,0-0.2,0.1-0.3,0.2c-0.1,0.2-0.1,0.5,0,0.7c0.1,0.2,0.3,0.2,0.3,0.2h0.1
			c0,0,0.1-0.1-0.1-0.3c-0.1-0.1-0.1-0.3,0-0.5c0.1-0.1,0.2-0.2,0.4-0.2l0,0c0.2,0,0.4,0.1,0.5,0.2h0.1c0.1,0,0.1,0,0.2-0.1
			C15.8,44.6,15.8,44.6,15.8,44.5L15.8,44.5z"/>
		<path class="st2" d="M15.8,44.4c-0.2-0.1-0.4-0.1-0.5-0.2l0,0c0.1-0.1,0.2-0.1,0.3-0.1c0.1,0,0.2-0.1,0.3-0.2c0-0.2,0-0.3-0.2-0.4
			c-0.1-0.1-0.3-0.1-0.4-0.1c-0.1,0-0.2,0-0.4,0c-0.2,0-0.3-0.1-0.4-0.3l0,0c0,0,0,0-0.1,0c0,0-0.1,0-0.1,0.1l0,0
			c0,0.2,0.1,0.5,0.3,0.6c0.1,0.1,0.2,0.1,0.4,0.1h0.2c0,0,0.1,0,0.1,0c0,0.1-0.1,0.2-0.2,0.2C15,44,14.8,44,14.6,44
			c-0.2,0-0.4-0.1-0.5-0.3c-0.1-0.1-0.2-0.1-0.2,0c0,0,0,0,0,0l0,0c-0.1,0.1-0.1,0.2,0,0.2l0,0c0.1,0.1,0.2,0.2,0.4,0.2h0.1
			c0.1,0.1,0.3,0.2,0.4,0.2c-0.1,0-0.2,0.1-0.3,0.2c-0.2,0.2-0.2,0.5,0,0.8c0.1,0.2,0.3,0.3,0.4,0.3c0,0,0.1,0,0.1,0
			c0.1-0.1,0-0.3-0.1-0.4c-0.1-0.1-0.1-0.3,0-0.4c0.1-0.1,0.2-0.2,0.4-0.2c0.2,0,0.4,0,0.5,0.1c0,0,0.1,0,0.1,0c0.1,0,0.2,0,0.2-0.1
			c0-0.1,0-0.1,0-0.2C16,44.5,15.9,44.4,15.8,44.4C15.8,44.4,15.8,44.4,15.8,44.4z M15.8,44.6c0,0.1-0.1,0.1-0.2,0.1h-0.1
			c-0.2-0.1-0.3-0.1-0.5-0.2l0,0c-0.2,0-0.3,0-0.4,0.2c-0.1,0.1-0.1,0.3,0,0.5c0.2,0.2,0.2,0.3,0.1,0.3h-0.1c0,0-0.2,0-0.3-0.2
			c-0.1-0.2-0.1-0.5,0-0.7c0.1-0.1,0.2-0.2,0.3-0.2l0,0c-0.1-0.1-0.3-0.2-0.5-0.3h-0.1c-0.1,0-0.3-0.1-0.4-0.2c-0.1-0.1,0-0.1,0-0.2
			c0,0,0.1,0,0.1,0c0,0,0.1,0,0.1,0c0.2,0.1,0.4,0.2,0.6,0.3c0.2,0.1,0.4,0.1,0.6,0c0.1,0,0.2-0.1,0.2-0.3c0-0.1-0.1-0.1-0.1-0.1H15
			c-0.1,0-0.2,0-0.3-0.1c-0.2-0.1-0.3-0.3-0.3-0.5c0-0.1,0.1-0.1,0.1-0.1l0,0l0,0c0.1,0.2,0.2,0.3,0.4,0.3c0.1,0,0.2,0,0.4,0
			c0.2,0,0.3,0,0.4,0.1c0.1,0.1,0.2,0.2,0.2,0.4c-0.1,0.1-0.2,0.2-0.3,0.2c0,0-0.3,0.1-0.4,0.2s0,0.1,0.1,0.1
			c0.2,0.1,0.3,0.2,0.5,0.2c0,0,0,0,0.1,0c0,0,0,0,0,0.1L15.8,44.6z"/>
		<path class="st2" d="M17.9,44.7L17.9,44.7h-0.2l0,0l0.1-0.1l0,0c0,0,0-0.1,0-0.1c0,0,0-0.1-0.1-0.1h0c-0.1,0-0.2,0.1-0.3,0.2l0,0
			h-0.1L17,44.5h-0.1c-0.1,0-0.1,0-0.1,0.1c0,0,0,0.1,0,0.1c0,0,0,0,0.1,0l0.3,0.1l0,0l-0.1,0l0,0.1c-0.2,0.2-0.4,0.3-0.6,0.4
			c-0.1,0-0.1,0.1-0.1,0.2c0,0,0,0.1,0,0.1c0,0,0.1,0,0.1,0c0.1,0,0.1,0,0.2-0.1l0.1-0.1l0.5-0.3l0.4-0.3l0,0l0.3,0.1h0.1
			c0,0,0.1,0,0.1-0.1c0,0,0,0,0-0.1C18,44.8,17.9,44.7,17.9,44.7z"/>
		<path class="st2" d="M17.9,44.7h-0.1l0,0l0,0c0,0,0-0.1,0-0.1c0-0.1,0-0.1-0.1-0.1h-0.1c-0.1,0-0.2,0.1-0.3,0.2h0L17,44.5h0
			c-0.1,0-0.1,0-0.2,0.1c0,0.1,0,0.1,0,0.2c0,0,0.1,0.1,0.1,0.1l0.2,0L17,45c-0.2,0.2-0.4,0.3-0.6,0.4c-0.1,0-0.1,0.1-0.2,0.2
			c0,0.1,0,0.1,0,0.2c0,0,0.1,0.1,0.1,0.1c0.1,0,0.1,0,0.2-0.1l0.1-0.1l0.5-0.3l0.4-0.3l0.3,0.1H18c0.1,0,0.1,0,0.2-0.1
			c0,0,0-0.1,0-0.1C18.1,44.8,18,44.7,17.9,44.7z M18,44.9c0,0-0.1,0.1-0.1,0.1h-0.1l-0.3-0.1l0,0c-0.1,0.1-0.2,0.2-0.4,0.3
			l-0.5,0.3l-0.1,0.1c0,0-0.1,0.1-0.2,0.1c0,0-0.1,0-0.1,0c0,0,0-0.1,0-0.1c0-0.1,0.1-0.1,0.1-0.2c0.2-0.1,0.4-0.3,0.6-0.4l0.1-0.1
			l0.1,0l0,0l-0.3-0.1c0,0,0,0-0.1,0c0,0,0-0.1,0-0.1c0,0,0.1-0.1,0.1-0.1h0.1l0.2,0.1h0.1l0,0c0.1-0.1,0.2-0.2,0.3-0.2h0
			c0,0,0.1,0.1,0.1,0.1c0,0,0,0.1,0,0.1l0,0l-0.1,0.1l0,0H18l0,0C18,44.8,18.1,44.8,18,44.9C18.1,44.9,18.1,44.9,18,44.9
			C18.1,45,18.1,45,18,44.9L18,44.9z"/>
		<path class="st2" d="M18.3,45L18.3,45c-0.1,0-0.1,0-0.1,0.1c0,0.1,0,0.1,0.1,0.2l0.2,0.1l0.1,0.1c0.1,0,0.1,0,0.2,0c0,0,0,0,0-0.1
			c0,0,0-0.1-0.1-0.1C18.6,45.2,18.5,45.1,18.3,45z"/>
		<path class="st2" d="M18.8,45.2L18.4,45h-0.1c-0.1,0-0.1,0-0.1,0.1c0,0.1,0,0.2,0.1,0.3l0.2,0.1l0.1,0.1c0.1,0.1,0.2,0.1,0.2,0
			l0,0c0,0,0-0.1,0-0.1C18.9,45.4,18.9,45.3,18.8,45.2z M18.8,45.5c0,0.1-0.1,0.1-0.2,0l-0.1-0.1l-0.2-0.1c-0.1-0.1-0.2-0.1-0.1-0.2
			s0-0.1,0.1-0.1h0.1c0.1,0.1,0.3,0.1,0.4,0.2c0,0,0.1,0.1,0.1,0.1C18.8,45.3,18.9,45.3,18.8,45.5C18.9,45.4,18.9,45.4,18.8,45.5
			L18.8,45.5L18.8,45.5z"/>
		<path class="st2" d="M17.7,46.5c0.1-0.1,0.1-0.2,0.1-0.2l0,0l0,0l0.1,0l0.2,0.2l0.1,0.1c0,0,0.1,0,0.2,0s-0.2-0.3-0.2-0.4
			C18.1,46.1,18,46,17.9,46l0,0v-0.1v-0.1c0,0,0-0.1,0.1-0.2c0-0.1,0-0.1-0.1-0.2l0,0c-0.1,0-0.1,0.1-0.2,0.2c0,0.1-0.1,0.2-0.1,0.2
			l0,0c-0.1,0-0.3-0.1-0.4-0.1h-0.1c-0.2,0-0.4,0.2-0.4,0.4c0,0.2,0.1,0.4,0.4,0.5h0.2C17.4,46.7,17.6,46.6,17.7,46.5z M17.1,46.4
			L17.1,46.4c-0.1,0-0.2-0.1-0.2-0.2c0-0.1,0.1-0.2,0.3-0.2l0,0c0.1,0,0.3,0,0.3,0.1s0,0.2-0.1,0.2C17.4,46.4,17.3,46.4,17.1,46.4
			L17.1,46.4z"/>
		<path class="st2" d="M17.7,46.5c0.1-0.1,0.1-0.1,0.1-0.2l0,0c0.1,0.1,0.2,0.2,0.2,0.2l0.1,0.1c0.1,0.1,0.2,0,0.3,0
			s-0.1-0.3-0.2-0.5C18.1,46,18,46,17.9,45.9v-0.1v-0.1l0.1-0.2c0-0.1,0-0.2-0.1-0.2c0,0,0,0,0,0h-0.1c-0.1,0-0.2,0.1-0.2,0.2
			c0,0.1-0.1,0.2-0.1,0.2c-0.1,0-0.3-0.1-0.4-0.1h-0.1c-0.2,0-0.4,0.2-0.5,0.5c0,0.2,0.1,0.4,0.2,0.5c0,0,0.1,0.1,0.2,0.1h0.2
			C17.4,46.7,17.6,46.7,17.7,46.5z M16.7,46.2c0-0.2,0.2-0.4,0.4-0.4h0.1c0.1,0,0.3,0,0.4,0.1l0,0c0-0.1,0-0.2,0.1-0.2
			c0-0.1,0.1-0.2,0.2-0.2l0,0c0.1,0,0.1,0.1,0.1,0.2c0,0.1,0,0.1-0.1,0.2v0.1V46l0,0c0.1,0.1,0.2,0.1,0.3,0.2
			c0.1,0.1,0.3,0.3,0.2,0.4s-0.1,0.1-0.2,0l-0.1-0.1c-0.1-0.1-0.2-0.2-0.2-0.2l-0.1,0l0,0l0,0c0,0.1-0.1,0.2-0.1,0.2
			c-0.1,0.1-0.3,0.2-0.4,0.1h-0.2C16.9,46.6,16.7,46.4,16.7,46.2C16.8,46.2,16.8,46.2,16.7,46.2L16.7,46.2z"/>
		<path class="st2" d="M17.6,46c0-0.1-0.2-0.1-0.3-0.1h-0.1c-0.2,0-0.3,0.1-0.3,0.2c0,0.1,0.1,0.2,0.2,0.2h0.1c0.1,0,0.2,0,0.3-0.1
			C17.6,46.2,17.6,46.1,17.6,46z M17.2,46.3L17.2,46.3c-0.1,0-0.1-0.1-0.1-0.2s0.1-0.2,0.3-0.2l0,0c0.1,0,0.2,0,0.2,0.1
			c0,0.1,0,0.2-0.1,0.2C17.3,46.3,17.2,46.3,17.2,46.3L17.2,46.3z"/>
		<path class="st2" d="M20.8,45.4c0.1,0,0.2,0,0.2-0.1c0,0,0,0,0-0.1c0,0,0-0.1-0.1-0.1c-0.1,0-0.4-0.1-0.4-0.2h-0.1
			c0,0-0.1,0-0.1,0c0,0.1,0,0.1,0.1,0.2C20.5,45.3,20.7,45.4,20.8,45.4z"/>
		<path class="st2" d="M20.8,45.5L20.8,45.5c0.2,0,0.2,0,0.3-0.1c0,0,0-0.1,0-0.1c0-0.1-0.1-0.1-0.1-0.1c0,0-0.3-0.1-0.4-0.2h-0.1
			c-0.1,0-0.1,0-0.1,0.1c0,0.1,0,0.2,0.1,0.2C20.5,45.3,20.7,45.4,20.8,45.5z M20.4,45c0,0,0,0,0.1,0h0.1c0.2,0,0.3,0.1,0.4,0.2
			c0,0,0.1,0.1,0.1,0.1c0,0,0,0,0,0.1c-0.1,0.1-0.1,0.1-0.2,0.1c-0.1,0-0.3-0.1-0.4-0.2C20.4,45.2,20.3,45.2,20.4,45
			C20.3,45.1,20.3,45.1,20.4,45L20.4,45z"/>
		<path class="st2" d="M21.7,47.4C21.7,47.3,21.7,47.3,21.7,47.4c0-0.2-0.1-0.2-0.2-0.2h-0.4c-0.2,0-0.2-0.1-0.2-0.2l0,0v-0.3
			c0-0.1,0-0.1-0.1-0.1s0,0,0,0c0-0.1,0-0.1,0.1-0.1l0,0c0.1-0.1,0.1-0.1,0.2-0.1h0.1l0.2-0.1l0.1-0.2c0.1,0,0.1-0.1,0.1-0.2
			c0-0.1-0.1-0.1-0.2-0.1h-0.7h-0.6h-0.2c0,0-0.1,0-0.1,0c0,0,0,0.1,0,0.1c0,0.1,0.1,0.1,0.1,0.2h0.7c0.1,0,0.1,0,0.1,0.1
			s0,0.1-0.1,0.1l-0.5,0.3l0,0c-0.2,0.1-0.3,0.2-0.5,0.2l-0.1,0c-0.1,0-0.2,0.1-0.1,0.2c0,0.1,0,0.1,0.1,0.1c0,0,0,0,0,0
			c0.1-0.1,0.3-0.1,0.4-0.2c0.2-0.1,0.3-0.2,0.5-0.2h0.1c0.1,0,0.2,0.1,0.2,0.2c0,0,0,0,0,0c0,0,0,0.1,0,0.1c0,0.1,0,0.1,0,0.2
			c0,0.1,0.1,0.2,0.3,0.2L21.7,47.4C21.6,47.4,21.7,47.4,21.7,47.4z"/>
		<path class="st2" d="M21.6,47.1h-0.4c-0.1,0-0.1,0-0.1-0.2l0,0v-0.3c0-0.1-0.1-0.1-0.2-0.2l0,0c0,0,0-0.1,0-0.1l0,0
			c0.1,0,0.1-0.1,0.2-0.1h0.1l0.2-0.1l0.1-0.1c0.1,0,0.2-0.1,0.1-0.2c0-0.1-0.1-0.1-0.2-0.1h-0.7h-0.5h-0.2c-0.1,0-0.1,0-0.2,0.1
			c0,0,0,0.1,0,0.1c0,0.1,0.1,0.2,0.2,0.2h0.8c0,0,0,0-0.1,0.1l-0.5,0.3l0,0c-0.1,0.1-0.3,0.2-0.5,0.2l-0.1,0
			c-0.1,0-0.2,0.2-0.2,0.3c0,0.1,0.1,0.2,0.2,0.2l0,0c0.1-0.1,0.3-0.1,0.4-0.2c0.2-0.1,0.3-0.2,0.5-0.2h0c0.1,0,0.1,0.1,0.1,0.1
			c0,0,0,0.1,0,0.1c0,0.1,0,0.1,0,0.2c0,0.1,0.2,0.2,0.3,0.3h0.6c0.1,0,0.1,0,0.2-0.1c0,0,0-0.1,0-0.1
			C21.7,47.2,21.7,47.1,21.6,47.1z M21,47.4c-0.1,0-0.2-0.1-0.3-0.2c0-0.1,0-0.1,0-0.2c0,0,0-0.1,0-0.1c0-0.1,0-0.2-0.1-0.2
			c0,0,0,0-0.1,0h-0.1c-0.2,0-0.4,0.1-0.5,0.2c-0.1,0.1-0.2,0.2-0.4,0.2c-0.1,0-0.1,0-0.1-0.1c0-0.1,0-0.2,0.1-0.2l0.1,0
			c0.2-0.1,0.3-0.2,0.5-0.2l0,0l0.5-0.3c0.1,0,0.1-0.1,0.1-0.1s0,0-0.1-0.1h-0.7c-0.1,0-0.1-0.1-0.1-0.2c0,0,0-0.1,0-0.1
			c0,0,0.1,0,0.1,0h0.2h0.6h0.7c0.1,0,0.2,0,0.2,0.1c0,0.1,0,0.2-0.1,0.2l-0.1,0.1L21,46.2h-0.1c-0.1,0-0.1,0.1-0.2,0.1l0,0
			c0,0-0.1,0.1-0.1,0.1s0,0,0,0s0.1,0,0.1,0.1s0,0.2,0,0.3l0,0c0,0.1,0,0.2,0.2,0.2h0.4c0.1,0,0.1,0.1,0.2,0.1c0,0,0,0.1,0,0.1
			c0,0-0.1,0.1-0.1,0.1h-0.1C21.2,47.4,21.1,47.4,21,47.4L21,47.4z"/>
		<path class="st2" d="M24.2,46.7L24,46.7c-0.1-0.1-0.2-0.1-0.4-0.1l0,0c0-0.1,0-0.2,0-0.2c0-0.1,0-0.2,0-0.2l0,0l0.2-0.1l0.1,0H24
			c0,0,0.1,0,0.1-0.1c0,0,0-0.1,0-0.1c0,0-0.1,0-0.1,0c-0.1,0-0.1,0-0.2,0c-0.1,0-0.1,0.1-0.2,0.1l0,0l-0.1-0.2c0-0.1,0-0.1-0.1-0.2
			c0,0,0,0-0.1,0h-0.1c0,0-0.1,0-0.1,0.1c0,0,0,0.1,0,0.1c0,0,0,0.1,0,0.1c0,0.1,0.1,0.2,0.1,0.3c0.1,0.3,0.1,0.5,0.1,0.5l0,0h-0.2
			c-0.1,0-0.2,0.1-0.4,0.1c-0.2,0.1-0.3,0.3-0.3,0.5c0.1,0.3,0.3,0.4,0.5,0.5c0.3,0,0.5-0.2,0.6-0.5c0-0.1,0-0.2,0-0.2l0,0
			c0.1,0,0.1,0,0.2,0.1l0,0c0.1,0.1,0.2,0.1,0.3,0.2c0,0,0.1,0,0.1,0c0,0,0.1,0,0.1-0.1c0,0,0-0.1-0.1-0.2
			C24.4,46.8,24.3,46.8,24.2,46.7z M23.5,46.8c0,0.2-0.1,0.3-0.2,0.4c-0.1,0.1-0.1,0.1-0.2,0.1c-0.1,0-0.1,0-0.2-0.1
			c0,0-0.1-0.1-0.1-0.2c0-0.1,0-0.1,0.1-0.2c0.1-0.1,0.1-0.1,0.2-0.1l0,0C23.2,46.8,23.4,46.8,23.5,46.8L23.5,46.8L23.5,46.8z"/>
		<path class="st2" d="M24.2,46.7L24,46.6c-0.1-0.1-0.2-0.1-0.4-0.1c0-0.1,0-0.1,0-0.2c0-0.1,0-0.1,0-0.2l0.2-0.1l0.1,0H24
			c0.1,0,0.1-0.1,0.1-0.1c0-0.1,0-0.1,0-0.2c0,0-0.1,0-0.1,0c-0.1,0-0.2,0-0.2,0.1l-0.2,0.1c0-0.1,0-0.1-0.1-0.2
			c0-0.1-0.1-0.1-0.1-0.2c0-0.1-0.1-0.1-0.2,0c-0.1,0-0.1,0.1-0.1,0.2c0,0,0,0.1,0,0.1c0,0.1,0.1,0.2,0.1,0.3
			c0.1,0.2,0.1,0.3,0.1,0.5h-0.1c-0.1,0-0.3,0.1-0.4,0.1c-0.2,0.1-0.4,0.3-0.3,0.6c0.1,0.3,0.3,0.5,0.6,0.5l0,0
			c0.3,0,0.6-0.3,0.6-0.6c0-0.1,0-0.2,0-0.2c0,0,0.1,0,0.1,0h0.1l0.3,0.2c0,0,0.1,0,0.1,0c0.1,0,0.1,0,0.2-0.1
			c0.1-0.1,0-0.2-0.1-0.3C24.3,46.7,24.3,46.7,24.2,46.7z M24.5,47.1c0,0-0.1,0.1-0.1,0.1c0,0-0.1,0-0.1,0C24.2,47.1,24.1,47,24,47
			h-0.1c-0.1,0-0.1-0.1-0.2-0.1l0,0c0,0.1,0,0.2,0,0.2c-0.1,0.3-0.3,0.5-0.6,0.5c-0.3,0-0.5-0.2-0.5-0.5c0-0.2,0.1-0.4,0.3-0.5
			c0.1-0.1,0.2-0.1,0.4-0.1h0.2l0,0c0,0,0-0.2-0.1-0.5c0-0.1-0.1-0.2-0.1-0.3c0,0,0-0.1,0-0.1c0,0,0-0.1,0-0.1c0,0,0-0.1,0.1-0.1
			h0.1c0,0,0.1,0,0.1,0c0,0.1,0.1,0.1,0.1,0.2c0,0.1,0,0.2,0.1,0.2l0,0c0.1,0,0.2,0,0.2-0.1c0.1,0,0.1-0.1,0.2,0c0,0,0.1,0,0.1,0
			c0,0,0,0.1,0,0.1c0,0,0,0.1-0.1,0.1h-0.1l-0.1,0l-0.2,0.1l0,0c0,0.1,0,0.2,0,0.2c0,0.1,0,0.1,0,0.2l0,0c0.1,0,0.2,0.1,0.4,0.1
			l0.2,0.1c0.1,0,0.2,0.1,0.2,0.2C24.5,47.1,24.5,47.1,24.5,47.1L24.5,47.1z"/>
		<path class="st2" d="M23.1,46.8L23.1,46.8c-0.1,0-0.2,0.1-0.2,0.1c-0.1,0-0.1,0.1-0.1,0.2c0,0.1,0,0.1,0.1,0.2
			c0.1,0.1,0.1,0.1,0.2,0.1c0.1,0,0.2,0,0.2-0.1c0.1-0.1,0.2-0.3,0.2-0.4l0,0C23.3,46.8,23.2,46.8,23.1,46.8z M22.9,47.2
			c0,0-0.1-0.1,0-0.1c0-0.1,0-0.1,0.1-0.1c0.1,0,0.1-0.1,0.2-0.1h0.3c0,0.1-0.1,0.3-0.1,0.3C23.2,47.3,23,47.3,22.9,47.2
			C22.9,47.2,22.9,47.2,22.9,47.2L22.9,47.2z"/>
		<path class="st2" d="M26.8,45.3c-0.1,0-0.3,0-0.4,0c-0.4,0.1-0.7,0.2-1.1,0.4c-0.1,0-0.1,0.1-0.1,0.2c0,0,0,0.1,0,0.1
			c0.1,0.1,0.2,0,0.3-0.1l0.2-0.1c0.3-0.1,0.7-0.2,1-0.3c0.3,0,0.5,0.2,0.6,0.4c0,0,0,0,0,0.1c0,0.3-0.2,0.5-0.5,0.6
			c-0.2,0.1-0.5,0.2-0.7,0.3c0,0-0.1,0-0.1,0.1c0,0.1,0,0.1,0,0.2c0,0,0.1,0.1,0.2,0.1h0.1c0.3-0.1,0.6-0.3,0.9-0.5
			c0.4-0.3,0.5-0.8,0.3-1.2C27.4,45.4,27.1,45.3,26.8,45.3z"/>
		<path class="st2" d="M26.8,45.2c-0.1,0-0.3,0-0.4,0c-0.4,0.1-0.7,0.2-1.1,0.4c-0.1,0-0.1,0.1-0.2,0.2c0,0.1,0,0.1,0,0.2
			c0,0,0.1,0.1,0.1,0c0.1,0,0.2-0.1,0.3-0.1l0.2-0.1c0.3-0.1,0.7-0.2,1-0.3c0.3,0,0.5,0.1,0.5,0.4c0,0,0,0,0,0.1
			c-0.1,0.2-0.2,0.5-0.4,0.6c-0.2,0.1-0.5,0.2-0.7,0.3c0,0-0.1,0-0.1,0.1c0,0.1,0,0.1,0,0.2c0,0.1,0.1,0.1,0.2,0.1h0.1
			c0.3-0.1,0.6-0.3,0.9-0.5c0.4-0.3,0.5-0.8,0.3-1.2C27.4,45.4,27.1,45.2,26.8,45.2z M27.2,46.8c-0.3,0.2-0.6,0.4-0.9,0.5h-0.1
			c-0.1,0-0.1,0-0.2-0.1c0-0.1,0-0.1,0-0.2c0,0,0-0.1,0.1-0.1c0.2-0.1,0.5-0.2,0.7-0.3c0.2-0.1,0.4-0.4,0.5-0.6
			c0-0.3-0.2-0.5-0.5-0.5h-0.1c-0.3,0-0.7,0.1-1,0.3L25.5,46c-0.1,0.1-0.3,0.2-0.3,0.1c0,0,0-0.1,0-0.1c0-0.1,0.1-0.1,0.1-0.2
			c0.3-0.2,0.7-0.3,1.1-0.4c0.1,0,0.3,0,0.4,0c0.3,0,0.6,0.1,0.7,0.4C27.7,46.1,27.6,46.6,27.2,46.8L27.2,46.8z"/>
		<path class="st2" d="M30.8,45.3h-0.2v-0.3c0-0.3-0.2-0.5-0.3-0.7c-0.1-0.1-0.3-0.1-0.5-0.1c-0.2,0.1-0.3,0.3-0.5,0.4
			c-0.1,0.1-0.1,0.1-0.2,0.1h-0.1c0,0,0,0-0.1-0.1l0,0l-0.1-0.2l-0.1-0.1h-0.1l0,0c0,0.1,0,0.1,0,0.2c0,0.1,0.1,0.2,0.1,0.2l0,0
			h-0.1c-0.1,0.1-0.2,0.1-0.3,0.2c0,0-0.1,0.1,0,0.1c0,0,0,0.1,0,0.1h0c0.1-0.1,0.2-0.1,0.3-0.2c0,0,0.1,0,0.1,0v0.2
			c0,0.1,0,0.3-0.1,0.4c0,0.1-0.1,0.3-0.1,0.4l0,0c0,0.1-0.1,0.3,0,0.4l0,0c0.1,0,0.1-0.1,0.2-0.2c0.1-0.1,0.2-0.1,0.3-0.2l0,0v0.1
			c0,0.1,0.1,0.2,0.1,0.3c0.1,0.2,0.2,0.2,0.3,0.2c0,0,0,0,0-0.1c0-0.1,0-0.2,0-0.2c-0.1-0.1-0.1-0.2-0.1-0.3l-0.1-0.2
			c-0.1-0.1-0.1-0.3,0-0.4v0l0,0c0.1-0.1,0.2-0.4,0.3-0.5s0.2-0.2,0.3-0.2l0,0c0.1,0,0.2,0.1,0.3,0.3c0.1,0.1,0.2,0.3,0.2,0.5h-0.1
			c-0.1,0-0.3,0.1-0.4,0.1c-0.1,0.1-0.2,0.2-0.2,0.4c0,0.2,0.1,0.4,0.3,0.4l0,0c0.2,0,0.4-0.2,0.5-0.4c0-0.1,0-0.2,0-0.3l0,0h0.2
			h0.1c0,0,0-0.1,0-0.1l0,0C31,45.5,30.9,45.4,30.8,45.3z M30.4,45.6c0,0.1,0,0.2-0.1,0.3C30.2,46,30.2,46,30.1,46H30
			c-0.1-0.1-0.1-0.2,0-0.3l0,0c0-0.1,0.1-0.1,0.2-0.1C30.3,45.6,30.3,45.6,30.4,45.6L30.4,45.6L30.4,45.6z"/>
		<path class="st2" d="M30.8,45.3h-0.2c0-0.1,0-0.2,0-0.3c0-0.3-0.2-0.6-0.4-0.8c-0.1-0.1-0.2-0.1-0.3-0.1c-0.1,0-0.1,0-0.2,0
			c-0.2,0.1-0.3,0.3-0.5,0.5c-0.1,0.1-0.1,0.1-0.2,0.1h-0.1l0,0l0,0c0,0-0.1-0.1-0.1-0.2l-0.1-0.1c0,0-0.1,0-0.1,0h-0.1
			c0,0-0.1,0-0.1,0.1c0,0.1,0,0.1,0,0.2c0,0.1,0,0.1,0.1,0.2h-0.1c-0.1,0.1-0.2,0.1-0.3,0.2c-0.1,0-0.1,0.1-0.1,0.2
			c0,0.1,0.1,0.1,0.2,0.1h0.1c0.1-0.1,0.2-0.1,0.3-0.2l0,0v0.1c0,0.1,0,0.3-0.1,0.4c0,0.1-0.1,0.3-0.1,0.4l0,0
			c-0.1,0.2-0.1,0.3,0.1,0.4h0.1c0.1,0,0.2-0.2,0.2-0.3c0-0.1,0.1-0.2,0.1-0.2c0,0.1,0.1,0.2,0.1,0.3c0.1,0.2,0.2,0.2,0.3,0.2
			c0.1,0,0.1-0.1,0.2-0.1c0-0.1,0-0.2,0-0.3c-0.1-0.1-0.1-0.2-0.1-0.3l-0.1-0.2c-0.1-0.1-0.1-0.3,0-0.4v-0.1l0,0
			c0.1-0.2,0.2-0.4,0.3-0.5c0.1-0.1,0.2-0.2,0.3-0.2l0,0c0.1,0,0.2,0.1,0.3,0.3c0.1,0.1,0.1,0.3,0.1,0.5l0,0c-0.1,0-0.3,0.1-0.4,0.1
			c-0.1,0.1-0.2,0.2-0.2,0.4c0,0.2,0.1,0.4,0.4,0.5l0,0c0.2,0,0.4-0.2,0.5-0.4c0-0.1,0-0.2,0-0.3h0.1h0.1c0.1,0,0.1,0,0.1-0.1l0,0
			C31.1,45.4,30.9,45.3,30.8,45.3z M31,45.6C31,45.7,31,45.7,31,45.6L31,45.6l-0.2,0.1l0,0c0,0.1,0,0.2,0,0.3
			c-0.1,0.2-0.3,0.3-0.5,0.4l0,0c-0.2,0-0.3-0.2-0.3-0.4c0-0.2,0.1-0.3,0.2-0.4c0.1-0.1,0.2-0.1,0.3-0.2h0.1c0-0.2,0-0.3-0.1-0.5
			c-0.1-0.2-0.2-0.3-0.3-0.3l0,0c-0.2,0-0.2,0.1-0.3,0.2s-0.3,0.4-0.3,0.5l0,0v0c-0.1,0.1-0.1,0.3,0,0.4l0.1,0.2
			c0,0.1,0.1,0.2,0.1,0.3c0,0.1,0,0.2,0,0.2c0,0,0,0.1,0,0.1c-0.1,0-0.2,0-0.3-0.2c0-0.1-0.1-0.2-0.1-0.3l0,0c0,0.1-0.1,0.2-0.1,0.3
			c0,0.1-0.1,0.2-0.2,0.2l0,0c-0.1-0.1-0.1-0.3,0-0.4l0,0c0.1-0.1,0.1-0.3,0.1-0.4c0-0.1,0.1-0.3,0.1-0.4v-0.2c0,0-0.1,0-0.1,0
			c-0.1,0-0.2,0.1-0.3,0.2h-0.2c-0.1,0-0.1,0-0.2-0.1c0,0,0-0.1,0-0.1c0.1-0.1,0.2-0.1,0.3-0.2h0.1l0,0c0-0.1,0-0.2-0.1-0.2
			c0-0.1,0-0.1,0-0.2l0,0h0.1l0.1,0.1l0.1,0.2l0,0c0,0,0,0.1,0.1,0.1H29c0.1,0,0.1,0,0.2-0.1c0.1-0.2,0.3-0.3,0.5-0.4
			c0.2-0.1,0.3,0,0.5,0.1c0.2,0.2,0.3,0.4,0.3,0.7v0.3h0.2c0.1,0,0.2,0.1,0.2,0.2L31,45.6z"/>
		<path class="st2" d="M30.2,45.6c-0.1,0-0.2,0.1-0.2,0.1c-0.1,0.1-0.1,0.2,0,0.3c0,0,0,0,0,0h0.1c0,0,0.1,0,0.2-0.1
			c0.1-0.1,0.1-0.2,0.1-0.3l0,0C30.3,45.6,30.3,45.6,30.2,45.6z M30,46c-0.1-0.1,0-0.2,0-0.2c0-0.1,0.1-0.1,0.2-0.1h0.1
			c0,0.1,0,0.2-0.1,0.2C30.2,45.9,30.2,46,30,46C30.1,46,30.1,46,30,46L30,46z"/>
		<path class="st2" d="M32.2,45.2c-0.1-0.1-0.2-0.2-0.3-0.3l-0.1-0.1c-0.2-0.3-0.3-0.7-0.4-1.1c0-0.1-0.1-0.3-0.2-0.3h0
			c-0.1,0.1-0.1,0.5,0.1,1c0.1,0.4,0.4,0.8,0.7,1c0,0,0.1,0,0.1,0C32.2,45.4,32.2,45.4,32.2,45.2C32.2,45.3,32.2,45.3,32.2,45.2z"/>
		<path class="st2" d="M32,44.9l-0.1-0.1c-0.2-0.3-0.3-0.7-0.4-1c0-0.3-0.2-0.4-0.3-0.3s-0.1,0.5,0.1,1.1c0.1,0.4,0.4,0.8,0.7,1
			c0,0,0.1,0,0.1,0c0.1,0,0.1,0,0.2-0.1v-0.2C32.2,45.1,32.1,45,32,44.9z M32.1,45.5c0,0-0.1,0-0.1,0c-0.3-0.2-0.6-0.6-0.7-1
			c-0.2-0.5-0.2-1-0.1-1h0c0.1,0,0.2,0.1,0.2,0.3c0,0.4,0.2,0.8,0.4,1.1l0.1,0.1c0.1,0.1,0.2,0.2,0.3,0.3
			C32.2,45.3,32.2,45.4,32.1,45.5C32.2,45.5,32.1,45.5,32.1,45.5L32.1,45.5z"/>
		<path class="st2" d="M32.4,43.3v0.1v0.1c0,0.1,0,0.2,0,0.2h0.1c0,0,0.1,0,0.1,0c0-0.1,0.1-0.2,0.1-0.3l0.1-0.1
			c0.1-0.1,0.1-0.2,0.1-0.2c0-0.1,0-0.1,0-0.2c0,0-0.1,0-0.1,0c-0.1,0-0.1,0-0.2,0.1c-0.1,0.1-0.3,0.2-0.5,0.3L32,43.3
			c-0.1,0-0.1,0.1-0.1,0.1c0,0,0,0.1,0,0.1c0,0.1,0.2,0,0.3-0.1L32.4,43.3L32.4,43.3L32.4,43.3z"/>
		<path class="st2" d="M32.3,43.5c-0.1,0.1-0.1,0.2,0,0.3c0,0,0.1,0,0.1,0c0.1,0,0.1,0,0.1-0.1c0-0.1,0.1-0.2,0.1-0.3l0-0.1
			c0.1-0.1,0.1-0.2,0.1-0.3c0-0.1,0-0.2-0.1-0.3h-0.1c-0.1,0-0.2,0-0.2,0.1c-0.1,0.1-0.3,0.2-0.5,0.3l-0.1,0c-0.1,0-0.1,0.1-0.1,0.2
			c0,0.1,0,0.1,0,0.2c0,0,0.1,0,0.1,0c0.1,0,0.2-0.1,0.3-0.2l0.1-0.1l0,0v0L32.3,43.5z M32.2,43.5c-0.1,0.1-0.2,0.2-0.3,0.1
			c0,0,0-0.1,0-0.1c0-0.1,0.1-0.1,0.1-0.1h0.1c0.2-0.1,0.3-0.2,0.5-0.3c0-0.1,0.1-0.1,0.2-0.1c0.1,0,0.1,0,0.2,0.1c0,0,0,0.1,0,0.1
			c0,0.1-0.1,0.2-0.1,0.2l-0.1,0.1c-0.1,0.1-0.1,0.2-0.1,0.3c0,0-0.1,0-0.1,0h-0.1c-0.1-0.1-0.1-0.2,0-0.2v-0.1c0,0,0-0.1,0-0.1
			h-0.1L32.2,43.5L32.2,43.5z"/>
		<path class="st2" d="M33.6,44.4c0,0-0.1-0.1-0.1,0c0,0-0.1,0-0.1,0c-0.1,0.1-0.2,0.2-0.3,0.3L33,44.7c0,0-0.1,0-0.2,0
			c-0.1,0-0.2-0.1-0.2-0.1c0,0-0.1-0.1-0.1-0.1c0,0-0.1,0-0.1,0c0,0.1,0,0.1,0,0.2c0,0.1,0.1,0.3,0.3,0.3h0.1c0.2,0,0.4-0.1,0.6-0.2
			C33.7,44.6,33.7,44.4,33.6,44.4z"/>
		<path class="st2" d="M33.5,44.3c-0.1,0-0.1,0-0.1,0.1c-0.1,0.1-0.2,0.2-0.3,0.2l-0.1,0.1c0,0-0.1,0-0.1,0c-0.1,0-0.1,0-0.2-0.1
			c0-0.1-0.1-0.1-0.2-0.1c-0.1,0-0.1,0-0.1,0c0,0.1,0,0.1,0,0.2c0,0.2,0.2,0.3,0.3,0.3h0.2c0.2,0,0.4-0.1,0.6-0.2
			c0.3-0.2,0.3-0.4,0.3-0.5C33.7,44.2,33.6,44.2,33.5,44.3z M32.6,45c-0.1,0-0.3-0.1-0.3-0.3c0-0.1,0-0.1,0-0.2c0,0,0.1,0,0.1,0
			c0,0,0.1,0,0.1,0.1c0,0.1,0.1,0.1,0.2,0.1c0.1,0,0.1,0,0.2,0H33c0.1-0.1,0.2-0.2,0.3-0.3c0,0,0.1,0,0.1,0c0,0,0.1,0,0.1,0
			c0,0,0,0.2-0.3,0.5c-0.2,0.1-0.4,0.2-0.6,0.2L32.6,45z"/>
		<polygon class="st2" points="13.8,22.2 13.1,20.4 12.5,22.2 10.5,22.2 12.1,23.4 11.4,25.4 13.1,24.1 14.9,25.4 14.2,23.4 
			15.8,22.2 		"/>
		<polygon class="st2" points="34.5,22.2 33.8,20.4 33.8,20.4 33.6,21.2 33.2,22.2 31.3,22.2 32.8,23.4 32.2,25.4 32.2,25.4 
			33.2,24.6 33.8,24.1 33.8,24.1 34.7,24.8 35.6,25.4 35.6,25.4 34.9,23.4 36.5,22.2 		"/>
		<path class="st2" d="M65.7,34.1c-0.2-1-0.5-2-0.9-2.9l2.1-0.2c0.4,0.9,0.8,1.9,1,2.9L65.7,34.1z M62.6,34.2
			c-0.2-1-0.5-1.9-0.8-2.9l2-0.2c0.4,0.9,0.7,1.9,1,2.8L62.6,34.2z M64.3,39.2c0.3,2.4,1.3,4.7,3,6.4l-3,2.3
			c-2.1-2.3-3.4-5.2-3.5-8.3L64.3,39.2z M59.3,31.8v2.8h7.2v3.2h-7.2v10.5h-3.9V37.7h-7.1v-3.1h7.1v-2.8L59.3,31.8z M47.5,45.3
			c1.8-1.5,2.9-3.8,3-6.2l3.6,0.3c-0.3,3.2-1.4,6.2-3.7,8.3L47.5,45.3z"/>
		<rect x="70.1" y="38.3" class="st2" width="19.3" height="3.5"/>
		<path class="st2" d="M104.5,48.4h-4.1v-7.6c-2.2,1.1-4.6,2-7,2.7l-1.8-2.9c3.3-0.8,6.5-2.2,9.5-3.9c2.4-1.4,4.6-3.2,6.6-5.2
			l3.4,2.1c-2,1.9-4.1,3.6-6.5,5L104.5,48.4z"/>
		<path class="st2" d="M113.3,45.7c5.4-1.9,9.6-5.4,11.7-10.1h-10.4v-3.2h15.5c-0.5,3-1.9,5.9-3.8,8.2c2.5,1.5,4.8,3.3,7,5.2
			l-3.2,2.8c-1.9-2-4-3.8-6.2-5.5c-4.2,3.7-6.9,4.8-8.5,5.3L113.3,45.7z"/>
		<path class="st2" d="M154,34.8v3.1c0,2.1-0.2,6.5-0.9,8.2c-0.9,2.2-3.1,2.2-4.1,2.2c-1.4,0-2.8-0.1-4.1-0.3l-0.2-3.3
			c1.1,0.2,2.2,0.3,3.3,0.3c1.4,0,1.7-0.2,1.9-1.2c0.1-0.6,0.4-4.5,0.4-5V38h-4.3c-0.8,4.5-3.8,8.4-7.9,10.5l-2.6-2.6
			c3.7-1.8,5.7-4,6.6-8h-5.6v-3.1h6c0.1-1.5,0.1-2.5,0.1-3.2h4c-0.1,0.9-0.1,1.9-0.2,3.2L154,34.8z"/>
		<path class="st2" d="M168.7,31.6v2.6h7.1v1.1c0,0.6-0.1,6.9-4.2,10c-3,2-6.6,3.2-10.2,3.3l-1.3-3.1c4.4-0.3,8.4-1.2,10.2-3.9
			c0.8-1.2,1.3-2.7,1.4-4.2h-9.9v3.8H158v-7h6.8v-2.6H168.7z"/>
		<path class="st2" d="M184.8,31.7v4.4c3.6,1,7.1,2.3,10.4,3.9l-2.1,3.5c-2.6-1.6-5.4-2.9-8.3-3.9v8.8h-4.1V31.7H184.8z"/>
		<path class="st2" d="M61,22.1L61,22.1l-3,0.2l-0.1-1.5c0.8,0,1.5-0.2,2.2-0.4c0.8-0.4,1.6-0.8,2.2-1.3h-3v-1.5h5.9V19
			c-0.9,0.5-1.6,1-2.4,1.4l0,0l3.3-0.2l0.1,1.5l-3,0.2c-0.3,0.1-0.5,0.4-0.7,0.6c-0.2,0.2-0.3,0.4-0.3,0.7c0,0.2,0.1,0.4,0.3,0.5
			c0.3,0.1,0.7,0.2,1,0.2c0.6,0,1.2-0.1,1.8-0.2l0.2,1.6c-0.7,0.1-1.4,0.2-2.1,0.2c-2.2,0-3.3-0.7-3.3-2.1
			C60.4,22.9,60.6,22.4,61,22.1z"/>
		<path class="st2" d="M77.3,19.8v-1.6h1.5c0.2-0.6,0.2-1,0.2-1.2l1.6,0.2l-0.2,1.1h1.4v1.5h-1.7c-0.4,1.6-0.9,3.2-1.5,4.8L77,24
			c0.5-1.4,1-2.8,1.4-4.2L77.3,19.8z M85.7,20c-0.5-0.1-0.9-0.1-1.4-0.1v2.7c0.6,0.4,1.1,0.9,1.6,1.5l-1.1,1.2
			c-0.2-0.2-0.5-0.5-0.8-0.7c-0.4,0.8-1.3,1.3-2.2,1.2c-0.7,0-1.3-0.1-1.9-0.5c-0.5-0.4-0.7-0.9-0.7-1.5c0-0.6,0.2-1.1,0.7-1.5
			c0.5-0.4,1.2-0.6,1.9-0.6c0.2,0,0.5,0,0.7,0.1v-3.4c1.1,0,2.2,0.1,3.3,0.2L85.7,20z M82.6,23.2C82.4,23,82.1,23,81.9,23
			c-0.2,0-0.4,0-0.6,0.2c-0.1,0.1-0.2,0.3-0.2,0.4c0,0.2,0.1,0.3,0.2,0.4c0.2,0.1,0.4,0.2,0.6,0.1c0.2,0,0.4,0,0.5-0.2
			C82.5,23.7,82.6,23.5,82.6,23.2L82.6,23.2z"/>
		<path class="st2" d="M101.5,21.1h-4v-1.6h6.5v1.8l-1.8,1.2l0,0c0.1,0,0.2,0.1,0.3,0.2c0.1,0.1,0.2,0.3,0.2,0.5
			c0,0.2,0.1,0.4,0.2,0.5c0.2,0.1,0.4,0.1,0.5,0.1c0.4,0,0.7,0,1.1-0.1l0.3,1.5c-0.5,0.1-1,0.2-1.6,0.2c-0.5,0-1-0.1-1.5-0.3
			c-0.3-0.2-0.6-0.5-0.6-0.9c0-0.2-0.1-0.4-0.2-0.5c0-0.1-0.1-0.1-0.2-0.1c-0.2,0.1-0.4,0.1-0.6,0.3c-0.3,0.2-1.1,0.7-2.5,1.7
			l-1-1.4L101.5,21.1z M98.3,18.7l0.2-1.5c1.6,0.2,3.1,0.3,4.7,0.3v1.6C101.6,19,99.9,18.9,98.3,18.7L98.3,18.7z"/>
		<path class="st2" d="M121.2,23.7c-0.2,1.2-0.9,1.8-2.4,1.8c-0.7,0-1.4-0.2-1.9-0.6c-0.9-0.8-0.9-2.1-0.1-3c0,0,0,0,0,0l0.1-0.1
			c0.6-0.4,1.2-0.6,1.9-0.6h0.6v-4.1h1.8v1.4h2.7v1.5h-2.7v1.8c1,0.6,2,1.2,2.9,2l-1.1,1.3C122.2,24.5,121.6,24,121.2,23.7z
			 M118.8,22.9c-0.6,0-0.9,0.2-0.9,0.6c0,0.2,0.1,0.3,0.2,0.4c0.2,0.1,0.5,0.2,0.7,0.1c0.2,0,0.3,0,0.4-0.2c0.1-0.2,0.1-0.4,0.1-0.6
			v-0.4C119.2,22.9,119,22.9,118.8,22.9L118.8,22.9z"/>
		<path class="st2" d="M135.7,20.4l-0.4-1.7c1.5-0.4,3-0.6,4.5-0.7c2.5,0,3.8,1,3.8,3.1c0.1,1.2-0.6,2.4-1.6,3.1
			c-1.5,0.8-3.2,1.1-4.9,1l-0.1-1.7c0.9,0,1.8-0.1,2.8-0.2c0.5-0.1,1-0.3,1.4-0.7c0.3-0.3,0.5-0.8,0.5-1.2c0-0.4-0.1-0.9-0.5-1.2
			c-0.5-0.3-1-0.4-1.5-0.4C138.3,19.9,137,20.1,135.7,20.4z"/>
		<path class="st2" d="M160.2,18c0.8-0.1,1.5,0.2,2.1,0.8c0.5,0.9,0.7,1.8,0.6,2.8c0,0.5,0,0.9-0.1,1.4c0.1,0.2,0.4,0.5,0.7,1
			l-1.1,1l-0.2-0.3l-0.2-0.2c-0.5,0.5-1.1,0.8-1.8,0.8c-0.6,0-1.1-0.2-1.5-0.5c-0.8-0.8-0.8-2,0-2.8l0,0c0.4-0.4,1-0.6,1.6-0.5
			c0.3,0,0.6,0.1,0.9,0.2c0-0.4,0-0.8-0.1-1.2c0-0.2-0.1-0.4-0.3-0.5c-0.2-0.1-0.4-0.2-0.6-0.1c-0.3,0-0.6,0.1-0.9,0.3
			c-0.5,0.3-1,0.7-1.4,1.1v4.4h-1.6v-2.7l-0.8,0.9l-1.2-1.1c0.8-0.9,1.4-1.6,2-2.1v-0.6h-1.6v-1.5h1.6v-1.2h1.6V19
			C158.5,18.4,159.3,18.1,160.2,18z M161,23.2c-0.2-0.2-0.4-0.4-0.7-0.4c-0.2,0-0.4,0-0.5,0.1c-0.1,0.1-0.2,0.2-0.2,0.4
			c0,0.1,0,0.3,0.1,0.4c0.1,0.1,0.3,0.2,0.4,0.1C160.6,23.9,161,23.6,161,23.2C161,23.2,161,23.2,161,23.2L161,23.2z"/>
		<path class="st2" d="M176.5,17.6c-0.3,1.3-0.5,2.6-0.4,3.9c0,1.3,0.1,2.6,0.4,3.9l-1.8,0.2c-0.6-2.7-0.6-5.4,0-8.1L176.5,17.6z
			 M179.2,21.9c-0.5,0.5-0.7,0.8-0.7,1.1c0,0.2,0.1,0.4,0.3,0.4c0.3,0.1,0.6,0.2,0.9,0.1c0.7,0,1.4-0.1,2.1-0.2l0.2,1.6
			c-0.8,0.2-1.6,0.3-2.4,0.3c-0.8,0-1.5-0.1-2.2-0.6c-0.5-0.3-0.8-0.9-0.8-1.5c0-0.4,0.2-0.7,0.3-1c0.2-0.4,0.5-0.8,0.9-1.1
			L179.2,21.9z M177.6,19.6V18h4.2v1.6H177.6z"/>
	</g>
</g>
</svg>
