<?xml version="1.0" encoding="utf-8"?>
<!-- Generator: Adobe Illustrator 22.0.0, SVG Export Plug-In . SVG Version: 6.00 Build 0)  -->
<svg version="1.1" id="レイヤー_1" xmlns="http://www.w3.org/2000/svg" xmlns:xlink="http://www.w3.org/1999/xlink" x="0px"
	 y="0px" viewBox="0 0 206.1 76.4" style="enable-background:new 0 0 206.1 76.4;" xml:space="preserve">
<style type="text/css">
	.st0{fill:#115740;}
	.st1{fill:none;}
	.st2{fill:#FFFFFF;}
</style>
<title>アセット 1</title>
<g>
	<rect y="-0.1" class="st0" width="206.1" height="76.5"/>
	<path class="st1" d="M23.5,29.8h4c-0.1-0.1-0.2-0.3-0.3-0.3c-0.4-0.2-0.8-0.4-1.2-0.5c-0.2-0.1-0.3-0.2-0.4-0.4h-2.1
		c-0.3,0-0.5,0.3-0.5,0.6C23,29.4,23.1,29.8,23.5,29.8z"/>
	<path class="st1" d="M30.6,33.4c-0.7,2.1-1.5,4-3.1,5.1c-1.4-1.4-2.5-3.1-3-5c-0.9,0.8-2.1,1.4-3.3,1.5c-0.3,0-0.9-0.2-0.9-0.1
		c0.6,0.3,1.1,0.8,1,1.4c0,0.3-0.4,0.7-0.6,1.2c-0.2,0.4-0.4,0.9-0.5,1.4c2.7,1.3,5.8,1.9,8.8,1.7c2-0.2,4-0.8,5.9-1.6l-0.7-1.8
		c-0.2-0.3-0.3-0.5-0.3-0.8v-0.1l0,0c0-0.2,0-0.3,0-0.5c0.1-0.5,0.9-0.7,1-1.1C33.3,35.2,31.6,34.6,30.6,33.4z"/>
	<path class="st1" d="M25.9,30.4L25.9,30.4c-1.1,2.5,0.5,4.8,1.6,6.3c1.8-1.6,2.5-4,1.7-6.3L25.9,30.4z"/>
	<path class="st1" d="M18,36.7c-0.7,1,1,1.6,1.8,2c0.1-0.4,0.2-0.6,0.3-0.8c0.1-0.2,0.2-0.4,0.2-0.5C19.3,37.5,18.8,36.8,18,36.7z"
		/>
	<path class="st1" d="M35.2,38.7c0.8-0.3,2.4-1.2,2.1-2.1c-0.9-0.1-1.5,0.9-2.7,0.7L35.2,38.7z"/>
	<path class="st1" d="M27.2,43.8L27.2,43.8c-0.1,0-0.2,0.1-0.3,0.1L26.8,44v0.1c0.1,0.1,0.2,0.1,0.3,0l0,0l0,0
		C27.2,44,27.2,43.9,27.2,43.8L27.2,43.8z"/>
	<path class="st1" d="M34.3,42.6L34.3,42.6c-0.2,0-0.2,0-0.3,0.1c0,0-0.1,0.2,0,0.2l0,0c0,0,0.1,0,0.1-0.1
		C34.3,42.8,34.3,42.7,34.3,42.6z"/>
	<path class="st1" d="M28.4,50.5h-0.1c0.1,0.5,0.2,1,0.2,1.5c0.1,1,0,1.7-0.2,2c-0.1,0.1-0.2,0.1-0.3,0.1c-0.2,0-0.3-0.1-0.4-0.2
		c-0.2-0.5-0.3-1-0.1-1.5c0.1-0.5,0.2-1,0.5-1.4c0-0.3-0.1-0.6-0.1-0.8l0,0c-0.2,0.5-0.3,1.1-0.4,1.6c-0.1,0.7-0.1,1.5,0,2.2
		c0,0.2,0.2,0.9,0.7,0.9l0,0c0.3,0,0.5-0.2,0.5-0.4c0.2-0.6,0.3-1.3,0.2-2C28.8,51.8,28.6,51.1,28.4,50.5z"/>
	<path class="st1" d="M25.3,17.1c0.2-0.7,1.1-0.7,1.7-1.1c0.1-2.3,0-6.1,0.2-8.5c0-0.3-0.1-0.9,0.4-0.8s0.2,0.7,0.3,1
		c0,0.3,0,0.6,0.1,0.9c0.1,2.8,0,4.9,0.1,7.4c0.7,0.2,1.2,0.5,1.7,1c0.9-0.1,1.1,0.4,1.9,0.5c1.1-5-2.1-8.8-4.1-12
		c-2.1,3-5.5,6.7-4,12C24,17.1,24.7,17,25.3,17.1z"/>
	<path class="st1" d="M22.1,20.4c0-0.5,0-0.9,0.2-1.4c-1.1-1.2-2.3-2.6-4.3-2.8c-2.2-0.3-4.3,1.2-4.6,3.4c0,0.2,0,0.3,0,0.5
		c0.1,2.4,1.6,3.4,2.9,4.7c0.3-1.2,1.3-2,2.5-2.2c0.8,0,1.6,0.1,2.3,0.3c-0.1-0.1-0.2-0.2-0.2-0.4C21.4,22,21.4,21,22.1,20.4z
		 M18.8,22.4l-1.7-1.2l-1.7,1.2l0.7-2l-1.6-1.1h1.9l0.6-1.9l0.7,1.8h2l-1.6,1.1L18.8,22.4z"/>
	<path class="st1" d="M27.3,47.1c0.1,0.2,0.2,0.5,0.3,0.7c0-0.1,0.1-0.3,0.1-0.4c0-0.1,0-0.2,0-0.3l0,0H27.3z"/>
	<path class="st1" d="M27.4,49.3c0.3,0.3,0.6,0.5,1,0.6c0.1,0,0.2,0.1,0.2,0.1v-0.1c0,0-0.1-0.1-0.3-0.2c-0.4-0.1-0.7-0.3-1-0.6l0,0
		C27.3,49.2,27.3,49.3,27.4,49.3z"/>
	<path class="st1" d="M28.5,47.1h-0.2c0,0.1,0,0.3-0.1,0.4c-0.1,0.2-0.1,0.5-0.2,0.7c0.1,0.1,0.2,0.2,0.3,0.2
		c0.1-0.2,0.1-0.5,0.1-0.7C28.5,47.5,28.5,47.3,28.5,47.1z"/>
	<path class="st1" d="M27.7,48.7c0.4,0.4,0.5,0.5,0.8,0.5l0,0l0,0c0-0.1,0-0.1-0.1-0.2c-0.4-0.2-0.7-0.4-0.9-0.7
		C27.5,48.4,27.5,48.5,27.7,48.7z"/>
	<path class="st1" d="M21.9,33.7c1.7-0.2,2.6-1.7,2.9-3.3h-1c-0.6,1.7-3.4,2.1-4.3,0.5c-0.1,0-0.1-0.3-0.1,0
		c-0.3,1.2,0.3,2.4,1.5,2.7C21.2,33.8,21.5,33.8,21.9,33.7z"/>
	<path class="st1" d="M21.6,43.1C21.5,43,21.4,43,21.3,43l0,0c-0.2,0-0.3,0.1-0.3,0.2s0.1,0.1,0.1,0.2h0.1c0.1,0,0.2,0,0.3-0.1
		C21.5,43.3,21.6,43.1,21.6,43.1z"/>
	<path class="st1" d="M16.9,36.1c0.7-1.3,2.5,0.6,3.4,0.2c0-0.6-0.8-0.8-1.2-1c-1.4-0.8-2.7-1.7-3.9-2.8c0.2,1.9,0.5,3.6,1.6,4.6
		C16.8,36.7,16.7,36.4,16.9,36.1z"/>
	<path class="st1" d="M28,53.6c0.1-0.5,0.2-1,0.1-1.5c0,0.2-0.1,0.3-0.1,0.5C27.8,53.3,28,53.5,28,53.6z"/>
	<path class="st1" d="M29.1,45.9C28.3,46,27.5,46,26.7,46h-0.2l0.1,0.4l0.1,0.2H27h1.7h0.6l0.1-0.3c0-0.1,0.1-0.2,0.1-0.3v-0.1
		L29.1,45.9z"/>
	<path class="st1" d="M31.6,28.7h-2.1C29.4,28.8,29.2,29,29,29c-0.3,0.1-0.6,0.1-0.8,0.2s-0.5,0.5-0.7,0.6h4.1c0.1,0,0.4,0,0.4-0.6
		C32.2,28.9,31.8,28.7,31.6,28.7z"/>
	<path class="st1" d="M32.3,20.5c0.3-1-0.4-1.5-0.5-2.3c-1,0-1.4-1-2.4-0.5c-0.2-0.9-1.3-0.9-2-1.3c-0.3,0.4-0.9,0.4-1.4,0.7
		c-0.3,0.2-0.4,0.4-0.6,0.5c-1.2-0.2-1.4,0.6-2.3,0.7c0,1-0.8,1.3-0.5,2.5c-0.9,0.2-0.7,1.4-1.2,1.9c0.4,0.4,0.5,1.1,0.8,1.6
		c0.1,0.2,0.5,0.2,0.5,0.5c-0.3,1,0.4,1.4,0.5,2.3c0.9,0,1.4,1,2.3,0.5c0.3,0.8,1.4,0.9,2.1,1.4c0.5-0.6,1.7-0.5,1.9-1.4
		c1,0.5,1.4-0.4,2.3-0.5c0-0.9,0.8-1.5,0.4-2.3c0.8-0.4,0.8-1.5,1.3-2.1c-0.3-0.4-0.3-1-0.5-1.4S32.5,20.8,32.3,20.5z"/>
	<path class="st1" d="M31.4,30.4h-1c0.4,1.6,1.4,3.5,3.4,3.4c1.2-0.1,2.1-1.2,2-2.4c0-0.2,0-0.3-0.1-0.5c-0.6,0.7-1.5,1.1-2.4,1
		C32.5,31.7,31.8,31.1,31.4,30.4z"/>
	<path class="st1" d="M37.9,38.4c-0.9,0.8-1.9,1.5-3,2C32.6,41.5,30,42,27.4,42c-2,0-4.1-0.4-6-1.1c-1.7-0.5-3.2-1.4-4.5-2.6
		c0,0.2-0.1,0.4-0.1,0.6c-0.2,0.6-0.5,1.2-0.9,1.8l-0.1,0.2l0.2,0.2l0,0l0.3,0.3c0.9,0.7,1.9,1.2,2.9,1.7c0.5,0.2,1,0.4,1.6,0.6
		c-0.2-0.1-0.2-0.3-0.2-0.5s0.2-0.4,0.5-0.5h0.1c0.1,0,0.3,0,0.4,0.1c0-0.1,0-0.2,0.1-0.2c0.1-0.1,0.1-0.2,0.2-0.2l0,0
		c0.1,0,0.1,0.1,0.1,0.2l0,0l0,0v0.2V43c0.1,0.1,0.2,0.1,0.3,0.2c0.2,0.2,0.3,0.3,0.2,0.5s-0.2,0.1-0.3,0l-0.1-0.1l-0.2-0.2l0,0
		c0,0.1-0.1,0.2-0.1,0.2c-0.1,0.1-0.3,0.2-0.4,0.2h-0.1c2.2,0.7,4.4,1.1,6.7,1.1h0.3c3-0.1,5.9-0.9,8.5-2.3c0.9-0.4,1.7-0.9,2.4-1.7
		c-0.3-0.5-0.6-1-0.8-1.5C38.1,39.1,38,38.7,37.9,38.4z M19.9,41.7c0,0.1-0.1,0.1-0.2,0.1h-0.1c-0.2-0.1-0.4-0.1-0.5-0.1
		s-0.3,0-0.4,0.2c-0.1,0.1-0.1,0.3,0,0.4c0.1,0.1,0.2,0.3,0.1,0.4h-0.1c-0.1,0-0.2,0-0.4-0.3c-0.2-0.2-0.2-0.5,0-0.8
		c0.1-0.1,0.2-0.2,0.3-0.2c-0.1-0.1-0.3-0.2-0.4-0.2h-0.1c-0.1,0-0.3-0.1-0.4-0.2c-0.1-0.1-0.1-0.2,0-0.2l0,0c0.1-0.1,0.2-0.1,0.2,0
		l0,0l0,0c0.2,0.1,0.3,0.2,0.5,0.3s0.4,0.1,0.6,0c0.1,0,0.2-0.1,0.2-0.2c0,0,0-0.1-0.1,0h-0.3c-0.1,0-0.2,0-0.4-0.1
		c-0.2-0.1-0.4-0.3-0.3-0.6l0,0c0-0.1,0.1-0.1,0.1-0.1s0,0,0.1,0l0,0c0.1,0.2,0.2,0.3,0.4,0.3c0.1,0,0.3,0,0.4,0
		c0.2,0,0.3,0,0.5,0.1s0.2,0.3,0.2,0.4c-0.1,0.1-0.2,0.2-0.3,0.2c-0.2,0-0.3,0.1-0.3,0.1l0,0c0.2,0.1,0.3,0.2,0.5,0.2
		c0,0,0.1,0,0.1,0.1C19.9,41.5,19.9,41.6,19.9,41.7z M22.1,41.9c0,0.1-0.1,0.1-0.2,0.1h-0.1l-0.3-0.1l-0.4,0.3l-0.5,0.3l-0.1,0.1
		c-0.1,0-0.1,0.1-0.2,0.1s-0.1,0-0.1-0.1s0-0.1,0-0.2c0-0.1,0.1-0.2,0.2-0.2c0.2-0.1,0.4-0.3,0.6-0.4l0.1-0.1h-0.2
		c0,0-0.1,0-0.1-0.1s0-0.1,0-0.2c0-0.1,0.1-0.1,0.2-0.1h0.1l0.2,0.1l0,0c0.1-0.1,0.2-0.2,0.3-0.2h0.1c0.1,0,0.1,0.1,0.1,0.1v0.1l0,0
		l0,0H22c0.1,0,0.1,0.1,0.2,0.1v0.1L22.1,41.9z M24.3,42c0-0.1,0.1-0.1,0.1-0.1h0.1c0.2,0,0.3,0.1,0.4,0.2c0.1,0,0.1,0.1,0.1,0.1
		v0.1c0,0.1-0.1,0.1-0.2,0.1h-0.1c-0.2,0-0.3-0.1-0.4-0.2C24.3,42.2,24.3,42.1,24.3,42L24.3,42z M22.9,42.5c0,0.1-0.1,0.1-0.2,0.1
		l0,0l-0.1-0.1l-0.2-0.1c-0.1,0-0.2-0.1-0.1-0.3c0-0.1,0.1-0.1,0.1-0.1h0.1l0.4,0.2l0.1,0.1C22.9,42.4,22.9,42.4,22.9,42.5
		L22.9,42.5z M25.7,44.4c0,0-0.1,0.1-0.2,0.1H25c-0.2,0-0.3-0.1-0.3-0.3c0-0.1,0-0.1,0-0.2v-0.1c0-0.1,0-0.1-0.1-0.1l0,0
		c-0.2,0.1-0.3,0.2-0.5,0.3c-0.1,0.1-0.3,0.2-0.4,0.2s-0.2,0-0.2-0.1l0,0c0-0.1,0.1-0.2,0.2-0.3h0.1c0.2-0.1,0.3-0.1,0.5-0.2l0,0
		c0.1-0.1,0.4-0.2,0.5-0.3s0.1-0.1,0.1-0.1H24c-0.1,0-0.2-0.1-0.2-0.2V43c0,0,0.1-0.1,0.2-0.1h0.2h0.5h0.7c0.1,0,0.2,0.1,0.2,0.1
		c0,0.1-0.1,0.2-0.2,0.2l-0.1,0.1l-0.2,0.1H25c-0.1,0-0.1,0.1-0.2,0.1l0,0v0.1l0,0c0.1,0,0.2,0.1,0.2,0.1l0,0c0,0.1,0,0.2,0,0.3l0,0
		c0,0.1,0,0.1,0.1,0.2h0.4C25.6,44.2,25.7,44.3,25.7,44.4C25.8,44.2,25.8,44.3,25.7,44.4L25.7,44.4z M28.5,44.1
		c0,0.1-0.1,0.1-0.2,0.1h-0.1L27.9,44h-0.1h-0.1c0,0.1,0,0.2,0,0.2c-0.1,0.3-0.3,0.5-0.6,0.6l0,0c-0.3,0-0.5-0.2-0.6-0.5
		c0-0.3,0.1-0.5,0.3-0.6c0.1-0.1,0.2-0.1,0.4-0.1h0.1c0-0.2-0.1-0.3-0.1-0.5c0-0.1-0.1-0.2-0.1-0.3v-0.1c0-0.1,0-0.2,0.1-0.2
		s0.2,0,0.2,0.1s0.1,0.1,0.1,0.2c0,0.1,0,0.1,0.1,0.2l0.2-0.1c0.1,0,0.1-0.1,0.2-0.1h0.1c0,0.1,0,0.1,0,0.2c0,0.1-0.1,0.1-0.1,0.1
		h-0.1h-0.1l-0.1,0.1c0,0.1,0,0.1,0,0.2c0,0.1,0,0.1,0,0.2c0.1,0,0.2,0.1,0.4,0.1l0.1,0.1C28.3,43.8,28.4,43.9,28.5,44.1
		C28.5,43.9,28.5,44,28.5,44.1L28.5,44.1z M31.2,43.9c-0.3,0.2-0.6,0.4-0.9,0.5h-0.1c-0.1,0-0.2,0-0.2-0.1s0-0.2,0-0.2l0.1-0.1
		c0.2-0.1,0.5-0.2,0.7-0.3s0.4-0.3,0.4-0.6s-0.2-0.5-0.5-0.5h-0.1c-0.3,0-0.7,0.1-1,0.3L29.5,43c-0.1,0.1-0.2,0.1-0.3,0.1h-0.1
		c0-0.1,0-0.1,0-0.2c0-0.1,0.1-0.2,0.2-0.2c0.3-0.2,0.7-0.3,1.1-0.4c0.1,0,0.3,0,0.4,0c0.3,0,0.6,0.1,0.7,0.4
		C31.7,43.1,31.6,43.6,31.2,43.9L31.2,43.9z M35,42.6C35,42.7,35,42.8,35,42.6l-0.2,0.1h-0.1c0,0.1,0,0.2,0,0.3
		c-0.1,0.2-0.3,0.4-0.5,0.4l0,0c-0.2,0-0.4-0.3-0.4-0.5s0.1-0.3,0.2-0.4c0.1-0.1,0.3-0.1,0.4-0.1l0,0c0-0.2,0-0.3-0.1-0.5
		s-0.2-0.3-0.3-0.3l0,0c-0.1,0-0.2,0.1-0.3,0.2s-0.3,0.4-0.3,0.5l0,0v0.1c-0.1,0.1-0.1,0.3,0,0.4l0.1,0.2c0,0.1,0.1,0.2,0.1,0.3
		c0.1,0.1,0.1,0.2,0,0.3c0,0.1-0.1,0.1-0.2,0.1c-0.1,0-0.2-0.1-0.3-0.2c0-0.1-0.1-0.2-0.1-0.3c0,0.1-0.1,0.2-0.1,0.2
		s-0.1,0.3-0.2,0.3h-0.1c-0.1-0.1-0.2-0.2-0.1-0.4l0,0c0.1-0.1,0.1-0.2,0.1-0.4c0-0.1,0.1-0.3,0.1-0.4v-0.2l0,0
		c-0.1,0-0.2,0.1-0.3,0.2h-0.1c-0.1,0-0.2,0-0.2-0.1s0-0.2,0.1-0.2c0.1-0.1,0.2-0.1,0.3-0.2h0.1c0-0.1,0-0.1-0.1-0.2
		c0-0.1,0-0.1,0-0.2c0,0,0-0.1,0.1-0.1h0.1h0.1l0.1,0.1c0,0.1,0.1,0.1,0.1,0.2l0,0l0,0h0.1c0.1,0,0.1,0,0.2-0.1
		c0.1-0.2,0.3-0.3,0.5-0.5c0.1,0,0.1,0,0.2,0c0.1,0,0.2,0,0.3,0.1c0.2,0.2,0.3,0.5,0.4,0.8c0,0.1,0,0.2,0,0.3h0.2
		C35,42.4,35.1,42.5,35,42.6L35,42.6z M36.2,42.4c0,0.1-0.1,0.1-0.2,0.1h-0.1c-0.3-0.2-0.6-0.6-0.7-1c-0.2-0.5-0.2-1-0.1-1.1
		s0.3,0,0.3,0.3c0,0.4,0.2,0.7,0.4,1l0.1,0.1c0.1,0.1,0.2,0.2,0.3,0.3C36.2,42.3,36.2,42.4,36.2,42.4L36.2,42.4z M36.3,40.4
		L36.3,40.4c-0.2,0.2-0.3,0.2-0.4,0.3h-0.1c0-0.1-0.1-0.1,0-0.2c0-0.1,0.1-0.1,0.1-0.2H36c0.2-0.1,0.3-0.2,0.5-0.3
		c0.1-0.1,0.1-0.1,0.2-0.1c0.1,0,0.2,0.1,0.2,0.2c0,0,0,0,0,0.1s-0.1,0.2-0.1,0.3v0.1c-0.1,0.1-0.1,0.2-0.1,0.3L36.6,41h-0.1
		c-0.1-0.1-0.1-0.2,0-0.3v-0.1v-0.2H36.3z M37.3,41.9c-0.2,0.1-0.4,0.2-0.6,0.2h-0.2c-0.2,0-0.3-0.2-0.3-0.3s0-0.1,0-0.2
		c0,0,0.1-0.1,0.1,0c0.1,0,0.1,0,0.2,0.1c0,0.1,0.1,0.1,0.2,0.1h0.1l0.1-0.1c0.1-0.1,0.2-0.2,0.3-0.2l0.1-0.1c0.1,0,0.1,0,0.2,0.1
		C37.7,41.4,37.7,41.7,37.3,41.9L37.3,41.9z"/>
	<path class="st1" d="M34.9,36.3c0.7,0.3,1.7-0.8,2.5-0.7c0.7,0.2,1.1,0.8,1,1.5c0.9-1.3,1.4-2.9,1.4-4.5c-1.1,1.1-2.4,2.1-3.8,2.8
		C35.7,35.6,34.8,35.7,34.9,36.3z"/>
	<path class="st1" d="M38.2,16.3c-2.2-0.1-4.3,1.1-5.4,3c0.1,0.4,0.2,0.8,0.1,1.2c0.7,0.5,0.8,1.7,1.4,2.3c0,0.2-0.1,0.1-0.1,0.3
		c1.6-0.9,3.6-0.2,4.5,1.4c0.1,0.2,0.2,0.4,0.2,0.6c1.3-1.3,3.2-3.2,2.8-5.4C41.4,17.9,40,16.5,38.2,16.3z M39.6,22.3L39.6,22.3
		l-0.9-0.6l-0.9-0.6l-0.7,0.5l-1,0.7l0,0l0.7-2l-1.5-1.1h1.9l0.3-1l0.3-0.8l0,0l0.7,1.8h2l-1.6,1.1L39.6,22.3z"/>
	<path class="st2" d="M39.5,15.4c-0.2-0.1-0.5-0.2-0.8-0.2c-2.3-0.2-4.5,0.7-6,2.3c0.5-2.3,0.2-4.7-0.7-6.9
		c-1.2-2.4-2.7-4.7-4.4-6.8c-1.6,2-3,4.1-4.2,6.3c-0.4,0.8-0.8,1.6-1,2.5c-0.2,1.6-0.2,3.3,0,4.9c0,0.2-0.1,0.1-0.1,0
		c-1.3-1.1-2.5-2.3-4.5-2.3c-2.6-0.1-4.9,1.8-5.4,4.4v1.1c0.2,1.1,0.6,2.1,1.3,3c0.6,0.8,1.3,1.3,2,2.1c0.3,0.3,0.4,0.8,0.8,1
		c0.5-0.2,0.4-0.9,0.5-1.3c0.3-0.6,0.7-1.2,1.3-1.5c1.6-0.7,2.9,0.5,3.9,1.4c-0.2,1.2,0.7,1.4,0.6,2.4c0,0.1,0.2,0.1,0.4,0.1v0.3
		c-0.2,0.1-0.3,0.1-0.4,0.3c-0.2,0.2-0.3,0.6-0.3,0.9l0,0c0,0.3,0.2,0.6,0.5,0.9c-0.7,0.7-1.7,0.8-2.5,0.3c-0.5-0.3-0.5-1.2-1-1.2
		c-0.8-0.1-1.3,1.4-1.4,2c-0.1,1.1,0.4,2.2,1.2,3c-1.3-0.7-2.5-1.5-3.6-2.5c-0.4-0.3-0.6-0.8-1.1-1c-0.6,0.4-0.4,1.5-0.3,2.3
		c0.1,1.7,0.7,3.4,1.7,4.9c0.1,0.2,0.3,0.3,0.4,0.5c0,0.1,0,0.2-0.1,0.3c-0.2,0.6-0.4,1.1-0.8,1.6l-0.1,0.1
		c-0.2,0.2-0.3,0.6-0.3,0.9c0,0.8,1.3,1.4,2,1.8c2.6,1.4,5.4,2.3,8.3,2.8H26l0.1,0.5l0.2,0.5h0.1l0.4,0.1c0.1,0.3,0.2,0.6,0.4,0.9
		v0.1c-0.2,0.2-0.2,0.5-0.1,0.7c-0.3,0.3-0.3,0.7,0,1c0.1,0.1,0.2,0.2,0.3,0.3c-0.2,0.6-0.3,1.2-0.4,1.8c-0.1,0.8-0.1,1.6,0,2.4
		c0.1,0.6,0.5,1.3,1.2,1.3H28c0.5,0,0.9-0.3,1-0.8c0.2-0.7,0.3-1.4,0.2-2.2c0-0.7-0.1-1.4-0.3-2.1c0.1-0.1,0.2-0.3,0.2-0.4
		c0-0.2,0-0.4-0.2-0.6c0-0.1,0-0.2,0-0.3s-0.1-0.3-0.2-0.4c0.1-0.3,0.2-0.6,0.2-0.9v-0.7h0.6l0.1-0.1l0.2-0.4
		c0.1-0.2,0.1-0.4,0.1-0.6l0,0c2.9-0.4,5.6-1.3,8.1-2.7c0.7-0.4,2-1,2-1.8c0-0.3-0.1-0.5-0.3-0.7l0,0c-0.3-0.5-0.6-1-0.9-1.5
		c-0.1-0.2-0.1-0.4-0.2-0.5c0.1-0.2,0.3-0.4,0.4-0.5c1.1-1.5,1.7-3.2,1.9-5c0.2-0.8,0.1-1.6-0.1-2.4c-1.8,1-2.8,2.7-4.8,3.5
		c0.1-0.4,0.6-0.7,0.8-1.2c0.2-0.6,0.3-1.3,0.2-2c-0.1-0.6-0.5-1.7-1.1-1.7s-0.9,1.1-1.6,1.4c-0.7,0.3-1.5,0.1-2-0.5
		c0.3-0.3,0.4-0.6,0.3-1c0-0.4-0.3-0.8-0.7-1v-0.5c0.1,0,0.2,0,0.3,0c-0.1-1.1,0.6-1.5,0.5-2.5c1-1.4,4-2.2,5-0.3
		c0.2,0.5,0.1,1.3,0.5,1.7c0.5,0,0.8-0.5,1-0.8s0.5-0.6,0.8-0.9c0.6-0.5,1.2-1.1,1.7-1.7c0.4-0.7,0.7-1.5,0.9-2.3v-1.6
		C42.4,17.6,41.2,16.2,39.5,15.4z M27.5,5.6c2.1,3.1,5.3,7,4.1,12c-0.7-0.1-0.9-0.6-1.9-0.5c-0.5-0.5-1.1-0.8-1.7-1
		c-0.1-2.5,0-4.6-0.1-7.4c0-0.2,0-0.6-0.1-0.9c-0.1-0.3,0.2-0.9-0.3-1s-0.4,0.5-0.4,0.8c-0.1,2.3,0,6.2-0.1,8.4
		c-0.6,0.4-1.5,0.4-1.7,1.1c-0.6-0.1-1.3,0-1.8,0.5C22.1,12.3,25.5,8.6,27.5,5.6L27.5,5.6z M18.7,22.7c-1.2,0.2-2.1,1-2.5,2.2
		c-1.3-1.3-2.8-2.3-2.9-4.7c0.1-2.3,2-4,4.2-4c0.1,0,0.3,0,0.4,0c1.9,0.2,3.2,1.5,4.3,2.8C22,19.4,22,19.9,22,20.4
		c-0.6,0.5-0.7,1.6-1.3,2.2c0,0.2,0.1,0.3,0.2,0.4C20.2,22.8,19.5,22.7,18.7,22.7z M23.4,28.7h2.1c0.1,0.1,0.3,0.2,0.4,0.3
		c0.4,0.1,0.8,0.3,1.2,0.5c0,0,0.2,0.2,0.3,0.3h-4c-0.4,0-0.5-0.4-0.5-0.5C23,29,23.2,28.7,23.4,28.7L23.4,28.7z M33.8,35.9
		c0,0.2,0,0.3,0,0.5l0,0v0.1c0.1,0.3,0.2,0.6,0.3,0.8l0.7,1.7C33,39.9,31,40.4,29,40.7c-3,0.2-6.1-0.4-8.8-1.8
		c0.1-0.5,0.3-0.9,0.5-1.4c0.2-0.4,0.6-0.8,0.6-1.2c0.1-0.7-0.4-1.1-1-1.4c0-0.1,0.6,0.1,0.9,0.1c1.3-0.1,2.4-0.7,3.4-1.5
		c0.5,1.9,1.6,3.6,3,5c1.6-1.1,2.4-3,3.1-5.1c1,1.3,2.7,1.9,4.3,1.4C34.7,35.2,34,35.4,33.8,35.9z M37.3,36.7
		c0.4,0.9-1.2,1.8-2.1,2.1l-0.6-1.4C35.7,37.6,36.4,36.6,37.3,36.7L37.3,36.7z M20,37.9c0,0.2-0.1,0.4-0.3,0.8c-0.8-0.4-2.5-1-1.8-2
		c0.8,0.2,1.4,0.8,2.3,0.7C20.2,37.5,20.1,37.7,20,37.9z M27.5,36.7c-1.1-1.4-2.8-3.8-1.6-6.3h3.4C29.9,32.6,29.3,35.1,27.5,36.7
		L27.5,36.7z M19.3,31c0-0.3,0,0,0.1,0c0.9,1.5,3.7,1.1,4.3-0.5h1c-0.3,1.6-1.2,3.1-2.9,3.3c-1.2,0.2-2.3-0.5-2.6-1.7
		C19.2,31.7,19.2,31.3,19.3,31z M15.1,32.6c1.2,1.1,2.5,2,3.9,2.8c0.4,0.2,1.1,0.3,1.2,1c-0.9,0.4-2.6-1.5-3.4-0.2
		c-0.2,0.3-0.1,0.6-0.1,1.1C15.7,36.2,15.3,34.5,15.1,32.6z M28.5,54.5c-0.1,0.2-0.3,0.4-0.5,0.4l0,0c-0.5,0-0.6-0.8-0.7-0.9
		c-0.1-0.7-0.1-1.5,0-2.2c0.1-0.5,0.2-1.1,0.4-1.6l0,0c0,0.2,0.1,0.5,0.1,0.8c-0.2,0.5-0.4,1-0.5,1.5c-0.2,0.5-0.1,1,0.1,1.5
		c0.1,0.1,0.3,0.2,0.4,0.2s0.2,0,0.3-0.1c0.3-0.6,0.4-1.3,0.2-2c0-0.5-0.1-1.1-0.2-1.6h0.1c0.2,0.7,0.3,1.4,0.3,2.1
		C28.8,53.1,28.7,53.8,28.5,54.5z M28.4,49c0.1,0,0.1,0,0.1,0.2l0,0l0,0c-0.2,0-0.4-0.1-0.8-0.5c-0.2-0.2-0.2-0.3-0.2-0.4
		C27.7,48.6,28,48.8,28.4,49L28.4,49z M28,48.2c0.1-0.2,0.2-0.5,0.2-0.7c0-0.1,0.1-0.3,0.1-0.4h0.2v0.7c0,0.2-0.1,0.5-0.1,0.7
		C28.2,48.4,28.1,48.3,28,48.2L28,48.2z M27.7,47.4c0,0.1-0.1,0.3-0.1,0.4c-0.1-0.2-0.3-0.4-0.3-0.7h0.5
		C27.8,47.2,27.8,47.3,27.7,47.4L27.7,47.4z M27.3,49.1c0.3,0.3,0.6,0.5,1,0.6c0.2,0,0.3,0.2,0.3,0.2V50c-0.1,0-0.2,0-0.2-0.1
		c-0.4-0.1-0.7-0.3-1-0.6C27.3,49.2,27.3,49.2,27.3,49.1L27.3,49.1z M28,53.6c0,0-0.2-0.2,0-1c0-0.2,0-0.3,0.1-0.5
		C28.2,52.6,28.1,53.1,28,53.6L28,53.6z M29.4,46.2l-0.1,0.3h-0.6H27h-0.3l-0.1-0.2l-0.1-0.4h0.2c0.8,0,1.6,0,2.4-0.1h0.3v0.1
		C29.4,46,29.4,46.1,29.4,46.2L29.4,46.2z M39.1,40.8c-0.7,0.7-1.5,1.3-2.4,1.7c-2.6,1.4-5.5,2.2-8.5,2.3h-0.3
		c-2.3,0-4.6-0.4-6.7-1.1h-0.1c-0.1,0-0.1,0-0.2-0.1c-0.6-0.2-1.1-0.4-1.6-0.6c-1-0.4-2-1-2.9-1.6l-0.3-0.3l0,0L16,40.9l0.1-0.2
		c0.4-0.6,0.7-1.2,0.8-1.8c0.1-0.2,0.1-0.4,0.1-0.6c1.3,1.2,2.8,2.1,4.4,2.7c1.9,0.7,4,1.1,6,1.1c2.6,0,5.1-0.6,7.4-1.7
		c1.1-0.5,2.1-1.2,3-2c0.1,0.3,0.2,0.7,0.3,1C38.5,39.9,38.8,40.3,39.1,40.8L39.1,40.8z M36.1,35.4c1.4-0.7,2.7-1.7,3.8-2.8
		c0,1.6-0.5,3.2-1.4,4.5c0.1-0.7-0.3-1.3-1-1.5c-0.9-0.1-1.9,1-2.5,0.7C34.9,35.6,35.7,35.6,36.1,35.4L36.1,35.4z M33.4,31.9
		c0.9,0.1,1.8-0.3,2.4-1c0.4,1.2-0.3,2.4-1.4,2.8c-0.2,0.1-0.3,0.1-0.5,0.1c-2.1,0.2-3.1-1.8-3.4-3.4h1
		C31.8,31.2,32.5,31.7,33.4,31.9L33.4,31.9z M32.2,29.2c0,0.6-0.2,0.6-0.4,0.6h-4.1c0.2-0.1,0.5-0.5,0.7-0.6s0.5-0.1,0.8-0.2
		c0.2-0.1,0.3-0.2,0.5-0.4h2.1C31.8,28.7,32.2,28.9,32.2,29.2L32.2,29.2z M32.4,24.8c0.4,0.9-0.4,1.4-0.4,2.3c-1,0.1-1.4,1-2.3,0.5
		c-0.2,0.9-1.4,0.8-1.9,1.4c-0.7-0.4-1.8-0.5-2.1-1.4c-1,0.5-1.4-0.5-2.3-0.5c-0.1-0.9-0.8-1.3-0.5-2.3c-0.1-0.2-0.4-0.3-0.5-0.5
		c-0.2-0.6-0.3-1.3-0.8-1.6c0.5-0.5,0.4-1.7,1.2-1.9c-0.2-1.3,0.5-1.5,0.5-2.5c0.9-0.1,1.1-0.9,2.3-0.7c0.3-0.1,0.4-0.4,0.6-0.5
		c0.5-0.3,1.1-0.2,1.4-0.7c0.7,0.4,1.8,0.5,2,1.3c1-0.5,1.4,0.5,2.4,0.5c0.1,0.8,0.8,1.4,0.5,2.3c0.2,0.3,0.5,0.4,0.8,0.8
		s0.2,1,0.5,1.4C33.1,23.4,33.1,24.5,32.4,24.8L32.4,24.8z M39,25c-0.5-1.8-2.4-2.8-4.2-2.2c-0.2,0.1-0.4,0.1-0.6,0.2
		c0-0.1,0.2-0.1,0.1-0.3c-0.6-0.6-0.6-1.8-1.4-2.3c0-0.4,0-0.8-0.1-1.2c1.1-1.9,3.2-3.1,5.4-3c1.7,0.2,3.1,1.6,3.4,3.3
		C42.2,21.7,40.3,23.7,39,25L39,25z"/>
	<path class="st2" d="M37.8,17.4l-0.2,0.8L37.8,17.4z"/>
	<path class="st2" d="M37.8,21.1l0.9,0.6L37.8,21.1z"/>
	<path class="st2" d="M39.6,22.3l-0.7-1.9L39.6,22.3z"/>
	<path class="st2" d="M36.2,22.4l1-0.8L36.2,22.4z"/>
	<path class="st2" d="M19.8,41.5c-0.2-0.1-0.4-0.1-0.5-0.2c0,0-0.1,0-0.1-0.1l0,0c0.1-0.1,0.2-0.1,0.4-0.2c0.1,0,0.2-0.1,0.3-0.2
		c0-0.1,0-0.3-0.2-0.4c-0.1-0.1-0.3-0.1-0.4-0.1s-0.3,0-0.4,0c-0.2,0-0.3-0.2-0.4-0.3l0,0l0,0c0,0,0,0-0.1,0.1
		c0,0.2,0.1,0.4,0.3,0.5c0.1,0.1,0.2,0.1,0.3,0.1h0.3c0.1,0,0.1,0,0.1,0.1s-0.1,0.2-0.2,0.3c-0.2,0.1-0.4,0.1-0.6,0
		s-0.4-0.2-0.6-0.3h-0.1h-0.1c0,0.1-0.1,0.1,0,0.2c0.1,0.1,0.2,0.2,0.4,0.2h0.1c0.2,0.1,0.3,0.2,0.5,0.3l0,0c-0.1,0-0.2,0.1-0.3,0.2
		c-0.1,0.2-0.1,0.5,0,0.7s0.3,0.2,0.3,0.2h0.1c0,0,0.1-0.1-0.1-0.3c-0.1-0.1-0.1-0.3,0-0.5c0.1-0.1,0.2-0.2,0.4-0.2l0,0
		c0.2,0,0.4,0.1,0.5,0.2h0.1c0.1,0,0.1,0,0.2-0.1C19.8,41.6,19.8,41.6,19.8,41.5L19.8,41.5z"/>
	<path class="st2" d="M19.8,41.4c-0.2-0.1-0.4-0.1-0.5-0.2l0,0c0.1-0.1,0.2-0.1,0.3-0.1c0.1,0,0.2-0.1,0.3-0.2c0-0.2,0-0.3-0.2-0.4
		c-0.1-0.1-0.3-0.1-0.4-0.1s-0.2,0-0.4,0c-0.2,0-0.3-0.1-0.4-0.3l0,0c0,0,0,0-0.1,0c0,0-0.1,0-0.1,0.1l0,0c0,0.2,0.1,0.5,0.3,0.6
		c0.1,0.1,0.2,0.1,0.4,0.1h0.2h0.1c0,0.1-0.1,0.2-0.2,0.2C19,41,18.8,41,18.6,41c-0.2,0-0.4-0.1-0.5-0.3c-0.1-0.1-0.2-0.1-0.2,0l0,0
		l0,0c-0.1,0.1-0.1,0.2,0,0.2l0,0c0.1,0.1,0.2,0.2,0.4,0.2h0.1c0.1,0.1,0.3,0.2,0.4,0.2c-0.1,0-0.2,0.1-0.3,0.2
		c-0.2,0.2-0.2,0.5,0,0.8c0.1,0.2,0.3,0.3,0.4,0.3H19c0.1-0.1,0-0.3-0.1-0.4c-0.1-0.1-0.1-0.3,0-0.4c0.1-0.1,0.2-0.2,0.4-0.2
		c0.2,0,0.4,0,0.5,0.1h0.1c0.1,0,0.2,0,0.2-0.1s0-0.1,0-0.2C20,41.5,19.9,41.4,19.8,41.4L19.8,41.4z M19.8,41.6
		c0,0.1-0.1,0.1-0.2,0.1h-0.1c-0.2-0.1-0.3-0.1-0.5-0.2l0,0c-0.2,0-0.3,0-0.4,0.2c-0.1,0.1-0.1,0.3,0,0.5c0.2,0.2,0.2,0.3,0.1,0.3
		h-0.1c0,0-0.2,0-0.3-0.2c-0.1-0.2-0.1-0.5,0-0.7c0.1-0.1,0.2-0.2,0.3-0.2l0,0c-0.1-0.1-0.3-0.2-0.5-0.3H18c-0.1,0-0.3-0.1-0.4-0.2
		c-0.1-0.1,0-0.1,0-0.2h0.1h0.1c0.2,0.1,0.4,0.2,0.6,0.3s0.4,0.1,0.6,0c0.1,0,0.2-0.1,0.2-0.3c0-0.1-0.1-0.1-0.1-0.1H19
		c-0.1,0-0.2,0-0.3-0.1c-0.2-0.1-0.3-0.3-0.3-0.5c0-0.1,0.1-0.1,0.1-0.1l0,0l0,0c0.1,0.2,0.2,0.3,0.4,0.3c0.1,0,0.2,0,0.4,0
		c0.2,0,0.3,0,0.4,0.1s0.2,0.2,0.2,0.4c-0.1,0.1-0.2,0.2-0.3,0.2c0,0-0.3,0.1-0.4,0.2s0,0.1,0.1,0.1c0.2,0.1,0.3,0.2,0.5,0.2
		c0,0,0,0,0.1,0c0,0,0,0,0,0.1L19.8,41.6z"/>
	<path class="st2" d="M21.9,41.7L21.9,41.7h-0.2l0,0l0.1-0.1l0,0v-0.1c0,0,0-0.1-0.1-0.1l0,0c-0.1,0-0.2,0.1-0.3,0.2l0,0h-0.1
		L21,41.5h-0.1c-0.1,0-0.1,0-0.1,0.1v0.1c0,0,0,0,0.1,0l0.3,0.1l0,0h-0.1v0.1c-0.2,0.2-0.4,0.3-0.6,0.4c-0.1,0-0.1,0.1-0.1,0.2v0.1
		h0.1c0.1,0,0.1,0,0.2-0.1l0.1-0.1l0.5-0.3l0.4-0.3l0,0l0.3,0.1h0.1c0,0,0.1,0,0.1-0.1c0,0,0,0,0-0.1C22,41.8,21.9,41.7,21.9,41.7z"
		/>
	<path class="st2" d="M21.9,41.7h-0.1l0,0l0,0v-0.1c0-0.1,0-0.1-0.1-0.1h-0.1c-0.1,0-0.2,0.1-0.3,0.2l0,0L21,41.5l0,0
		c-0.1,0-0.1,0-0.2,0.1c0,0.1,0,0.1,0,0.2l0.1,0.1h0.2L21,42c-0.2,0.2-0.4,0.3-0.6,0.4c-0.1,0-0.1,0.1-0.2,0.2c0,0.1,0,0.1,0,0.2
		l0.1,0.1c0.1,0,0.1,0,0.2-0.1l0.1-0.1l0.5-0.3l0.4-0.3l0.3,0.1H22c0.1,0,0.1,0,0.2-0.1V42C22.1,41.8,22,41.7,21.9,41.7z M22,41.9
		L21.9,42h-0.1l-0.3-0.1l0,0c-0.1,0.1-0.2,0.2-0.4,0.3l-0.5,0.3l-0.1,0.1c0,0-0.1,0.1-0.2,0.1h-0.1v-0.1c0-0.1,0.1-0.1,0.1-0.2
		c0.2-0.1,0.4-0.3,0.6-0.4l0.1-0.1h0.1l0,0l-0.3-0.1c0,0,0,0-0.1,0v-0.1l0.1-0.1h0.1l0.2,0.1h0.1l0,0c0.1-0.1,0.2-0.2,0.3-0.2l0,0
		l0.1,0.1v0.1l0,0l-0.1,0.1l0,0H22l0,0C22,41.8,22.1,41.8,22,41.9C22.1,41.9,22.1,41.9,22,41.9C22.1,42,22.1,42,22,41.9L22,41.9z"/>
	<path class="st2" d="M22.3,42L22.3,42c-0.1,0-0.1,0-0.1,0.1s0,0.1,0.1,0.2l0.2,0.1l0.1,0.1c0.1,0,0.1,0,0.2,0c0,0,0,0,0-0.1
		c0,0,0-0.1-0.1-0.1C22.6,42.2,22.5,42.1,22.3,42z"/>
	<path class="st2" d="M22.8,42.2L22.4,42h-0.1c-0.1,0-0.1,0-0.1,0.1s0,0.2,0.1,0.3l0.2,0.1l0.1,0.1c0.1,0.1,0.2,0.1,0.2,0l0,0v-0.1
		C22.9,42.4,22.9,42.3,22.8,42.2z M22.8,42.4c0,0.1-0.1,0.1-0.2,0l-0.1-0.1l-0.2-0.1c-0.1-0.1-0.2-0.1-0.1-0.2s0-0.1,0.1-0.1h0.1
		c0.1,0.1,0.3,0.1,0.4,0.2l0.1,0.1C22.8,42.3,22.9,42.3,22.8,42.4C22.9,42.4,22.9,42.4,22.8,42.4L22.8,42.4L22.8,42.4z"/>
	<path class="st2" d="M21.7,43.5c0.1-0.1,0.1-0.2,0.1-0.2l0,0l0,0h0.1l0.2,0.2l0.1,0.1c0,0,0.1,0,0.2,0s-0.2-0.3-0.2-0.4
		C22.1,43.1,22,43,21.9,43l0,0v-0.1v-0.1c0,0,0-0.1,0.1-0.2c0-0.1,0-0.1-0.1-0.2l0,0c-0.1,0-0.1,0.1-0.2,0.2c0,0.1-0.1,0.2-0.1,0.2
		l0,0c-0.1,0-0.3-0.1-0.4-0.1h-0.1c-0.2,0-0.4,0.2-0.4,0.4s0.1,0.4,0.4,0.5h0.2C21.4,43.7,21.6,43.6,21.7,43.5z M21.1,43.4
		L21.1,43.4c-0.1,0-0.2-0.1-0.2-0.2c0-0.1,0.1-0.2,0.3-0.2l0,0c0.1,0,0.3,0,0.3,0.1s0,0.2-0.1,0.2C21.4,43.4,21.3,43.4,21.1,43.4
		L21.1,43.4z"/>
	<path class="st2" d="M21.7,43.5c0.1-0.1,0.1-0.1,0.1-0.2l0,0c0.1,0.1,0.2,0.2,0.2,0.2l0.1,0.1c0.1,0.1,0.2,0,0.3,0
		s-0.1-0.3-0.2-0.5C22.1,43,22,43,21.9,42.9v-0.1v-0.1l0.1-0.2c0-0.1,0-0.2-0.1-0.2l0,0h-0.1c-0.1,0-0.2,0.1-0.2,0.2
		c0,0.1-0.1,0.2-0.1,0.2c-0.1,0-0.3-0.1-0.4-0.1H21c-0.2,0-0.4,0.2-0.5,0.5c0,0.2,0.1,0.4,0.2,0.5c0,0,0.1,0.1,0.2,0.1h0.2
		C21.4,43.7,21.6,43.7,21.7,43.5z M20.7,43.2c0-0.2,0.2-0.4,0.4-0.4h0.1c0.1,0,0.3,0,0.4,0.1l0,0c0-0.1,0-0.2,0.1-0.2
		c0-0.1,0.1-0.2,0.2-0.2l0,0c0.1,0,0.1,0.1,0.1,0.2c0,0.1,0,0.1-0.1,0.2V43l0,0l0,0c0.1,0.1,0.2,0.1,0.3,0.2
		c0.1,0.1,0.3,0.3,0.2,0.4s-0.1,0.1-0.2,0l-0.1-0.1c-0.1-0.1-0.2-0.2-0.2-0.2h-0.1l0,0l0,0c0,0.1-0.1,0.2-0.1,0.2
		c-0.1,0.1-0.3,0.2-0.4,0.1h-0.2C20.9,43.6,20.7,43.4,20.7,43.2C20.8,43.2,20.8,43.2,20.7,43.2L20.7,43.2z"/>
	<path class="st2" d="M21.6,43c0-0.1-0.2-0.1-0.3-0.1h-0.1c-0.2,0-0.3,0.1-0.3,0.2c0,0.1,0.1,0.2,0.2,0.2h0.1c0.1,0,0.2,0,0.3-0.1
		C21.6,43.2,21.6,43.1,21.6,43z M21.2,43.3L21.2,43.3c-0.1,0-0.1-0.1-0.1-0.2s0.1-0.2,0.3-0.2l0,0c0.1,0,0.2,0,0.2,0.1
		s0,0.2-0.1,0.2C21.3,43.3,21.2,43.3,21.2,43.3L21.2,43.3z"/>
	<path class="st2" d="M24.8,42.4c0.1,0,0.2,0,0.2-0.1c0,0,0,0,0-0.1c0,0,0-0.1-0.1-0.1s-0.4-0.1-0.4-0.2h-0.1h-0.1
		c0,0.1,0,0.1,0.1,0.2C24.5,42.3,24.7,42.4,24.8,42.4z"/>
	<path class="st2" d="M24.8,42.5L24.8,42.5c0.2,0,0.2,0,0.3-0.1v-0.1c0-0.1-0.1-0.1-0.1-0.1s-0.3-0.1-0.4-0.2h-0.1
		c-0.1,0-0.1,0-0.1,0.1s0,0.2,0.1,0.2C24.5,42.3,24.7,42.4,24.8,42.5z M24.4,42c0,0,0,0,0.1,0h0.1c0.2,0,0.3,0.1,0.4,0.2l0.1,0.1
		c0,0,0,0,0,0.1c-0.1,0.1-0.1,0.1-0.2,0.1s-0.3-0.1-0.4-0.2C24.4,42.2,24.3,42.2,24.4,42C24.3,42.1,24.3,42.1,24.4,42L24.4,42z"/>
	<path class="st2" d="M25.7,44.4C25.7,44.3,25.7,44.3,25.7,44.4c0-0.2-0.1-0.2-0.2-0.2h-0.4c-0.2,0-0.2-0.1-0.2-0.2l0,0v-0.3
		c0-0.1,0-0.1-0.1-0.1s0,0,0,0c0-0.1,0-0.1,0.1-0.1l0,0c0.1-0.1,0.1-0.1,0.2-0.1h0.1l0.2-0.1l0.1-0.2c0.1,0,0.1-0.1,0.1-0.2
		c0-0.1-0.1-0.1-0.2-0.1h-0.7h-0.6h-0.2h-0.1v0.1c0,0.1,0.1,0.1,0.1,0.2h0.7c0.1,0,0.1,0,0.1,0.1s0,0.1-0.1,0.1l-0.5,0.3l0,0
		c-0.2,0.1-0.3,0.2-0.5,0.2h-0.1c-0.1,0-0.2,0.1-0.1,0.2c0,0.1,0,0.1,0.1,0.1l0,0c0.1-0.1,0.3-0.1,0.4-0.2c0.2-0.1,0.3-0.2,0.5-0.2
		h0.1c0.1,0,0.2,0.1,0.2,0.2l0,0V44c0,0.1,0,0.1,0,0.2c0,0.1,0.1,0.2,0.3,0.2H25.7C25.6,44.4,25.7,44.4,25.7,44.4z"/>
	<path class="st2" d="M25.6,44.1h-0.4c-0.1,0-0.1,0-0.1-0.2l0,0v-0.3c0-0.1-0.1-0.1-0.2-0.2l0,0v-0.1l0,0c0.1,0,0.1-0.1,0.2-0.1h0.1
		l0.2-0.1l0.1-0.1c0.1,0,0.2-0.1,0.1-0.2c0-0.1-0.1-0.1-0.2-0.1h-0.7h-0.5H24c-0.1,0-0.1,0-0.2,0.1v0.1c0,0.1,0.1,0.2,0.2,0.2h0.8
		c0,0,0,0-0.1,0.1l-0.5,0.3l0,0c-0.1,0.1-0.3,0.2-0.5,0.2h-0.1c-0.1,0-0.2,0.2-0.2,0.3s0.1,0.2,0.2,0.2l0,0c0.1-0.1,0.3-0.1,0.4-0.2
		c0.2-0.1,0.3-0.2,0.5-0.2l0,0c0.1,0,0.1,0.1,0.1,0.1V44c0,0.1,0,0.1,0,0.2c0,0.1,0.2,0.2,0.3,0.3h0.6c0.1,0,0.1,0,0.2-0.1v-0.1
		C25.7,44.2,25.7,44.1,25.6,44.1z M25,44.4c-0.1,0-0.2-0.1-0.3-0.2c0-0.1,0-0.1,0-0.2v-0.1c0-0.1,0-0.2-0.1-0.2c0,0,0,0-0.1,0h-0.1
		c-0.2,0-0.4,0.1-0.5,0.2c-0.1,0.1-0.2,0.2-0.4,0.2c-0.1,0-0.1,0-0.1-0.1s0-0.2,0.1-0.2h0.1c0.2-0.1,0.3-0.2,0.5-0.2l0,0l0.5-0.3
		c0.1,0,0.1-0.1,0.1-0.1s0,0-0.1-0.1h-0.7c-0.1,0-0.1-0.1-0.1-0.2v-0.1h0.1h0.2h0.6h0.7c0.1,0,0.2,0,0.2,0.1s0,0.2-0.1,0.2l-0.1,0.1
		H25h-0.1c-0.1,0-0.1,0.1-0.2,0.1l0,0l-0.1,0.1l0,0c0,0,0.1,0,0.1,0.1s0,0.2,0,0.3l0,0c0,0.1,0,0.2,0.2,0.2h0.4
		c0.1,0,0.1,0.1,0.2,0.1v0.1l-0.1,0.1h-0.1C25.2,44.4,25.1,44.4,25,44.4L25,44.4z"/>
	<path class="st2" d="M28.2,43.7L28,43.6c-0.1-0.1-0.2-0.1-0.4-0.1l0,0c0-0.1,0-0.2,0-0.2c0-0.1,0-0.2,0-0.2l0,0l0.2-0.1h0.1H28
		c0,0,0.1,0,0.1-0.1v-0.1H28c-0.1,0-0.1,0-0.2,0s-0.1,0.1-0.2,0.1l0,0l-0.1-0.2c0-0.1,0-0.1-0.1-0.2c0,0,0,0-0.1,0h-0.1
		c0,0-0.1,0-0.1,0.1v0.1v0.1c0,0.1,0.1,0.2,0.1,0.3c0.1,0.3,0.1,0.5,0.1,0.5l0,0h-0.2c-0.1,0-0.2,0.1-0.4,0.1
		c-0.2,0.1-0.3,0.3-0.3,0.5c0.1,0.3,0.3,0.4,0.5,0.5c0.3,0,0.5-0.2,0.6-0.5c0-0.1,0-0.2,0-0.2l0,0c0.1,0,0.1,0,0.2,0.1l0,0
		c0.1,0.1,0.2,0.1,0.3,0.2h0.1c0,0,0.1,0,0.1-0.1c0,0,0-0.1-0.1-0.2C28.4,43.8,28.3,43.8,28.2,43.7z M27.5,43.8
		c0,0.2-0.1,0.3-0.2,0.4c-0.1,0.1-0.1,0.1-0.2,0.1s-0.1,0-0.2-0.1c0,0-0.1-0.1-0.1-0.2c0-0.1,0-0.1,0.1-0.2c0.1-0.1,0.1-0.1,0.2-0.1
		l0,0C27.2,43.8,27.4,43.8,27.5,43.8L27.5,43.8L27.5,43.8z"/>
	<path class="st2" d="M28.2,43.7L28,43.6c-0.1-0.1-0.2-0.1-0.4-0.1c0-0.1,0-0.1,0-0.2c0-0.1,0-0.1,0-0.2l0.2-0.1h0.1H28
		c0.1,0,0.1-0.1,0.1-0.1c0-0.1,0-0.1,0-0.2H28c-0.1,0-0.2,0-0.2,0.1l-0.2,0.1c0-0.1,0-0.1-0.1-0.2c0-0.1-0.1-0.1-0.1-0.2
		c0-0.1-0.1-0.1-0.2,0c-0.1,0-0.1,0.1-0.1,0.2v0.1c0,0.1,0.1,0.2,0.1,0.3c0.1,0.2,0.1,0.3,0.1,0.5h-0.1c-0.1,0-0.3,0.1-0.4,0.1
		c-0.2,0.1-0.4,0.3-0.3,0.6s0.3,0.5,0.6,0.5l0,0c0.3,0,0.6-0.3,0.6-0.6c0-0.1,0-0.2,0-0.2h0.1h0.1l0.3,0.2h0.1c0.1,0,0.1,0,0.2-0.1
		s0-0.2-0.1-0.3C28.3,43.7,28.3,43.7,28.2,43.7z M28.5,44.1l-0.1,0.1h-0.1C28.2,44.1,28.1,44,28,44h-0.1c-0.1,0-0.1-0.1-0.2-0.1l0,0
		c0,0.1,0,0.2,0,0.2c-0.1,0.3-0.3,0.5-0.6,0.5c-0.3,0-0.5-0.2-0.5-0.5c0-0.2,0.1-0.4,0.3-0.5c0.1-0.1,0.2-0.1,0.4-0.1h0.2l0,0
		c0,0,0-0.2-0.1-0.5c0-0.1-0.1-0.2-0.1-0.3v-0.1v-0.1c0,0,0-0.1,0.1-0.1h0.1h0.1c0,0.1,0.1,0.1,0.1,0.2c0,0.1,0,0.2,0.1,0.2l0,0
		c0.1,0,0.2,0,0.2-0.1c0.1,0,0.1-0.1,0.2,0h0.1v0.1c0,0,0,0.1-0.1,0.1h-0.1H28L27.8,43l0,0c0,0.1,0,0.2,0,0.2c0,0.1,0,0.1,0,0.2l0,0
		c0.1,0,0.2,0.1,0.4,0.1l0.2,0.1c0.1,0,0.2,0.1,0.2,0.2C28.5,44.1,28.5,44.1,28.5,44.1L28.5,44.1z"/>
	<path class="st2" d="M27.1,43.8L27.1,43.8c-0.1,0-0.2,0.1-0.2,0.1c-0.1,0-0.1,0.1-0.1,0.2c0,0.1,0,0.1,0.1,0.2
		c0.1,0.1,0.1,0.1,0.2,0.1s0.2,0,0.2-0.1c0.1-0.1,0.2-0.3,0.2-0.4l0,0C27.3,43.8,27.2,43.8,27.1,43.8z M26.9,44.2
		C26.9,44.2,26.8,44.1,26.9,44.2c0-0.2,0-0.2,0.1-0.2s0.1-0.1,0.2-0.1h0.3c0,0.1-0.1,0.3-0.1,0.3C27.2,44.3,27,44.3,26.9,44.2
		L26.9,44.2L26.9,44.2z"/>
	<path class="st2" d="M30.8,42.3c-0.1,0-0.3,0-0.4,0c-0.4,0.1-0.7,0.2-1.1,0.4c-0.1,0-0.1,0.1-0.1,0.2V43c0.1,0.1,0.2,0,0.3-0.1
		l0.2-0.1c0.3-0.1,0.7-0.2,1-0.3c0.3,0,0.5,0.2,0.6,0.4c0,0,0,0,0,0.1c0,0.3-0.2,0.5-0.5,0.6c-0.2,0.1-0.5,0.2-0.7,0.3
		c0,0-0.1,0-0.1,0.1s0,0.1,0,0.2c0,0,0.1,0.1,0.2,0.1h0.1c0.3-0.1,0.6-0.3,0.9-0.5c0.4-0.3,0.5-0.8,0.3-1.2
		C31.4,42.4,31.1,42.3,30.8,42.3z"/>
	<path class="st2" d="M30.8,42.2c-0.1,0-0.3,0-0.4,0c-0.4,0.1-0.7,0.2-1.1,0.4c-0.1,0-0.1,0.1-0.2,0.2c0,0.1,0,0.1,0,0.2
		c0,0,0.1,0.1,0.1,0c0.1,0,0.2-0.1,0.3-0.1l0.2-0.1c0.3-0.1,0.7-0.2,1-0.3c0.3,0,0.5,0.1,0.5,0.4c0,0,0,0,0,0.1
		c-0.1,0.2-0.2,0.5-0.4,0.6c-0.2,0.1-0.5,0.2-0.7,0.3c0,0-0.1,0-0.1,0.1s0,0.1,0,0.2c0,0.1,0.1,0.1,0.2,0.1h0.1
		c0.3-0.1,0.6-0.3,0.9-0.5c0.4-0.3,0.5-0.8,0.3-1.2C31.4,42.4,31.1,42.2,30.8,42.2z M31.2,43.8c-0.3,0.2-0.6,0.4-0.9,0.5h-0.1
		c-0.1,0-0.1,0-0.2-0.1c0-0.1,0-0.1,0-0.2c0,0,0-0.1,0.1-0.1c0.2-0.1,0.5-0.2,0.7-0.3s0.4-0.4,0.5-0.6c0-0.3-0.2-0.5-0.5-0.5h-0.1
		c-0.3,0-0.7,0.1-1,0.3L29.5,43c-0.1,0.1-0.3,0.2-0.3,0.1V43c0-0.1,0.1-0.1,0.1-0.2c0.3-0.2,0.7-0.3,1.1-0.4c0.1,0,0.3,0,0.4,0
		c0.3,0,0.6,0.1,0.7,0.4C31.7,43.1,31.6,43.6,31.2,43.8L31.2,43.8z"/>
	<path class="st2" d="M34.8,42.3h-0.2V42c0-0.3-0.2-0.5-0.3-0.7c-0.1-0.1-0.3-0.1-0.5-0.1c-0.2,0.1-0.3,0.3-0.5,0.4
		c-0.1,0.1-0.1,0.1-0.2,0.1H33c0,0,0,0-0.1-0.1l0,0l-0.1-0.2l-0.1-0.1h-0.1l0,0c0,0.1,0,0.1,0,0.2c0,0.1,0.1,0.2,0.1,0.2l0,0h-0.1
		c-0.1,0.1-0.2,0.1-0.3,0.2c0,0-0.1,0.1,0,0.1v0.1l0,0c0.1-0.1,0.2-0.1,0.3-0.2h0.1v0.2c0,0.1,0,0.3-0.1,0.4c0,0.1-0.1,0.3-0.1,0.4
		l0,0c0,0.1-0.1,0.3,0,0.4l0,0c0.1,0,0.1-0.1,0.2-0.2c0.1-0.1,0.2-0.1,0.3-0.2l0,0V43c0,0.1,0.1,0.2,0.1,0.3
		c0.1,0.2,0.2,0.2,0.3,0.2c0,0,0,0,0-0.1s0-0.2,0-0.2c-0.1-0.1-0.1-0.2-0.1-0.3l-0.1-0.2c-0.1-0.1-0.1-0.3,0-0.4l0,0l0,0
		c0.1-0.1,0.2-0.4,0.3-0.5s0.2-0.2,0.3-0.2l0,0c0.1,0,0.2,0.1,0.3,0.3c0.1,0.1,0.2,0.3,0.2,0.5h-0.1c-0.1,0-0.3,0.1-0.4,0.1
		c-0.1,0.1-0.2,0.2-0.2,0.4s0.1,0.4,0.3,0.4l0,0c0.2,0,0.4-0.2,0.5-0.4c0-0.1,0-0.2,0-0.3l0,0h0.2h0.1v-0.1l0,0
		C35,42.5,34.9,42.4,34.8,42.3z M34.4,42.6c0,0.1,0,0.2-0.1,0.3C34.2,43,34.2,43,34.1,43H34c-0.1-0.1-0.1-0.2,0-0.3l0,0
		c0-0.1,0.1-0.1,0.2-0.1C34.3,42.6,34.3,42.6,34.4,42.6L34.4,42.6L34.4,42.6z"/>
	<path class="st2" d="M34.8,42.3h-0.2c0-0.1,0-0.2,0-0.3c0-0.3-0.2-0.6-0.4-0.8c-0.1-0.1-0.2-0.1-0.3-0.1s-0.1,0-0.2,0
		c-0.2,0.1-0.3,0.3-0.5,0.5c-0.1,0.1-0.1,0.1-0.2,0.1h-0.1l0,0l0,0c0,0-0.1-0.1-0.1-0.2l-0.1-0.1h-0.1h-0.1c0,0-0.1,0-0.1,0.1
		s0,0.1,0,0.2c0,0.1,0,0.1,0.1,0.2h-0.1c-0.1,0.1-0.2,0.1-0.3,0.2c-0.1,0-0.1,0.1-0.1,0.2c0,0.1,0.1,0.1,0.2,0.1h0.1
		c0.1-0.1,0.2-0.1,0.3-0.2l0,0v0.1c0,0.1,0,0.3-0.1,0.4c0,0.1-0.1,0.3-0.1,0.4l0,0c-0.1,0.2-0.1,0.3,0.1,0.4h0.1
		c0.1,0,0.2-0.2,0.2-0.3s0.1-0.2,0.1-0.2c0,0.1,0.1,0.2,0.1,0.3c0.1,0.2,0.2,0.2,0.3,0.2s0.1-0.1,0.2-0.1c0-0.1,0-0.2,0-0.3
		c-0.1-0.1-0.1-0.2-0.1-0.3l-0.1-0.2c-0.1-0.1-0.1-0.3,0-0.4v-0.1l0,0c0.1-0.2,0.2-0.4,0.3-0.5s0.2-0.2,0.3-0.2l0,0
		c0.1,0,0.2,0.1,0.3,0.3c0.1,0.1,0.1,0.3,0.1,0.5l0,0c-0.1,0-0.3,0.1-0.4,0.1c-0.1,0.1-0.2,0.2-0.2,0.4s0.1,0.4,0.4,0.5l0,0
		c0.2,0,0.4-0.2,0.5-0.4c0-0.1,0-0.2,0-0.3h0.1h0.1c0.1,0,0.1,0,0.1-0.1l0,0C35.1,42.4,34.9,42.3,34.8,42.3z M35,42.6
		C35,42.7,35,42.7,35,42.6L35,42.6l-0.2,0.1l0,0c0,0.1,0,0.2,0,0.3c-0.1,0.2-0.3,0.3-0.5,0.4l0,0c-0.2,0-0.3-0.2-0.3-0.4
		s0.1-0.3,0.2-0.4c0.1-0.1,0.2-0.1,0.3-0.2h0.1c0-0.2,0-0.3-0.1-0.5s-0.2-0.3-0.3-0.3l0,0c-0.2,0-0.2,0.1-0.3,0.2s-0.3,0.4-0.3,0.5
		l0,0l0,0c-0.1,0.1-0.1,0.3,0,0.4l0.1,0.2c0,0.1,0.1,0.2,0.1,0.3s0,0.2,0,0.2v0.1c-0.1,0-0.2,0-0.3-0.2c0-0.1-0.1-0.2-0.1-0.3l0,0
		c0,0.1-0.1,0.2-0.1,0.3s-0.1,0.2-0.2,0.2l0,0c-0.1-0.1-0.1-0.3,0-0.4l0,0c0.1-0.1,0.1-0.3,0.1-0.4c0-0.1,0.1-0.3,0.1-0.4v-0.2h-0.1
		c-0.1,0-0.2,0.1-0.3,0.2h-0.2c-0.1,0-0.1,0-0.2-0.1v-0.1c0.1-0.1,0.2-0.1,0.3-0.2h0.1l0,0c0-0.1,0-0.2-0.1-0.2c0-0.1,0-0.1,0-0.2
		l0,0h0.1l0.1,0.1l0.1,0.2l0,0c0,0,0,0.1,0.1,0.1H33c0.1,0,0.1,0,0.2-0.1c0.1-0.2,0.3-0.3,0.5-0.4c0.2-0.1,0.3,0,0.5,0.1
		c0.2,0.2,0.3,0.4,0.3,0.7v0.3h0.2C34.8,42.5,34.9,42.6,35,42.6L35,42.6z"/>
	<path class="st2" d="M34.2,42.6c-0.1,0-0.2,0.1-0.2,0.1c-0.1,0.1-0.1,0.2,0,0.3l0,0h0.1c0,0,0.1,0,0.2-0.1c0.1-0.1,0.1-0.2,0.1-0.3
		l0,0C34.3,42.6,34.3,42.6,34.2,42.6z M34,43c-0.1-0.1,0-0.2,0-0.2c0-0.1,0.1-0.1,0.2-0.1h0.1c0,0.1,0,0.2-0.1,0.2
		C34.2,42.9,34.2,43,34,43C34.1,43,34.1,43,34,43L34,43z"/>
	<path class="st2" d="M36.2,42.2c-0.1-0.1-0.2-0.2-0.3-0.3l-0.1-0.1c-0.2-0.3-0.3-0.7-0.4-1.1c0-0.1-0.1-0.3-0.2-0.3l0,0
		c-0.1,0.1-0.1,0.5,0.1,1c0.1,0.4,0.4,0.8,0.7,1h0.1C36.2,42.4,36.2,42.4,36.2,42.2C36.2,42.3,36.2,42.3,36.2,42.2z"/>
	<path class="st2" d="M36,41.9L36,41.9c-0.3-0.4-0.4-0.8-0.5-1.1c0-0.3-0.2-0.4-0.3-0.3s-0.1,0.5,0.1,1.1c0.1,0.4,0.4,0.8,0.7,1h0.1
		c0.1,0,0.1,0,0.2-0.1v-0.2C36.2,42.1,36.1,42,36,41.9z M36.1,42.5L36.1,42.5c-0.4-0.2-0.7-0.6-0.8-1c-0.2-0.5-0.2-1-0.1-1l0,0
		c0.1,0,0.2,0.1,0.2,0.3c0,0.4,0.2,0.8,0.4,1.1l0.1,0.1c0.1,0.1,0.2,0.2,0.3,0.3C36.2,42.3,36.2,42.4,36.1,42.5
		C36.2,42.5,36.1,42.5,36.1,42.5L36.1,42.5z"/>
	<path class="st2" d="M36.4,40.3L36.4,40.3v0.2c0,0.1,0,0.2,0,0.2h0.1h0.1c0-0.1,0.1-0.2,0.1-0.3l0.1-0.1c0.1-0.1,0.1-0.2,0.1-0.2
		c0-0.1,0-0.1,0-0.2h-0.1c-0.1,0-0.1,0-0.2,0.1c-0.1,0.1-0.3,0.2-0.5,0.3H36c-0.1,0-0.1,0.1-0.1,0.1v0.1c0,0.1,0.2,0,0.3-0.1
		L36.4,40.3L36.4,40.3L36.4,40.3z"/>
	<path class="st2" d="M36.3,40.5c-0.1,0.1-0.1,0.2,0,0.3h0.1c0.1,0,0.1,0,0.1-0.1s0.1-0.2,0.1-0.3v-0.1c0.1-0.1,0.1-0.2,0.1-0.3
		s0-0.2-0.1-0.3h-0.1c-0.1,0-0.2,0-0.2,0.1c-0.1,0.1-0.3,0.2-0.5,0.3h-0.1c-0.1,0-0.1,0.1-0.1,0.2c0,0.1,0,0.1,0,0.2h0.1
		c0.1,0,0.2-0.1,0.3-0.2l0.1-0.1l0,0l0,0L36.3,40.5z M36.2,40.5c-0.1,0.1-0.2,0.2-0.3,0.1v-0.1c0-0.1,0.1-0.1,0.1-0.1h0.1
		c0.2-0.1,0.3-0.2,0.5-0.3c0-0.1,0.1-0.1,0.2-0.1c0.1,0,0.1,0,0.2,0.1v0.1c0,0.1-0.1,0.2-0.1,0.2l-0.1,0.1c-0.1,0.1-0.1,0.2-0.1,0.3
		h-0.1h-0.1c-0.1-0.1-0.1-0.2,0-0.2v-0.1v-0.1h-0.1L36.2,40.5L36.2,40.5z"/>
	<path class="st2" d="M37.6,41.4C37.6,41.4,37.5,41.3,37.6,41.4h-0.2c-0.1,0.1-0.2,0.2-0.3,0.3H37c0,0-0.1,0-0.2,0
		c-0.1,0-0.2-0.1-0.2-0.1l-0.1-0.1h-0.1c0,0.1,0,0.1,0,0.2c0,0.1,0.1,0.3,0.3,0.3h0.1c0.2,0,0.4-0.1,0.6-0.2
		C37.7,41.6,37.7,41.4,37.6,41.4z"/>
	<path class="st2" d="M37.5,41.3C37.4,41.3,37.4,41.3,37.5,41.3c-0.2,0.2-0.3,0.3-0.4,0.3L37,41.7h-0.1c-0.1,0-0.1,0-0.2-0.1
		c0-0.1-0.1-0.1-0.2-0.1c-0.1,0-0.1,0-0.1,0c0,0.1,0,0.1,0,0.2c0,0.2,0.2,0.3,0.3,0.3h0.2c0.2,0,0.4-0.1,0.6-0.2
		c0.3-0.2,0.3-0.4,0.3-0.5C37.7,41.2,37.6,41.2,37.5,41.3z M36.6,42c-0.1,0-0.3-0.1-0.3-0.3c0-0.1,0-0.1,0-0.2h0.1
		c0,0,0.1,0,0.1,0.1s0.1,0.1,0.2,0.1c0.1,0,0.1,0,0.2,0H37c0.1-0.1,0.2-0.2,0.3-0.3h0.1h0.1c0,0,0,0.2-0.3,0.5
		C37,42,36.8,42.1,36.6,42L36.6,42z"/>
	<polygon class="st2" points="17.8,19.2 17.1,17.4 16.5,19.2 14.5,19.2 16.1,20.4 15.4,22.4 17.1,21.1 18.9,22.3 18.2,20.4 
		19.8,19.2 	"/>
	<polygon class="st2" points="38.5,19.2 37.8,17.4 37.8,17.4 37.6,18.2 37.2,19.2 35.3,19.2 36.8,20.4 36.2,22.4 36.2,22.4 
		37.2,21.6 37.8,21.1 37.8,21.1 38.7,21.7 39.6,22.3 39.6,22.3 38.9,20.4 40.5,19.2 	"/>
	<path class="st2" d="M69.7,31.1c-0.2-1-0.5-2-0.9-2.9l2.1-0.2c0.4,0.9,0.8,1.9,1,2.9L69.7,31.1z M66.6,31.2c-0.2-1-0.5-1.9-0.8-2.9
		l2-0.2c0.4,0.9,0.7,1.9,1,2.8L66.6,31.2z M68.3,36.2c0.3,2.4,1.3,4.7,3,6.4l-3,2.3c-2.1-2.3-3.4-5.2-3.5-8.3L68.3,36.2z M63.3,28.8
		v2.8h7.2v3.2h-7.2v10.5h-3.9V34.7h-7.1v-3.1h7.1v-2.8L63.3,28.8z M51.5,42.3c1.8-1.5,2.9-3.8,3-6.2l3.6,0.3
		c-0.3,3.2-1.4,6.2-3.7,8.3L51.5,42.3z"/>
	<rect x="74.1" y="35.3" class="st2" width="19.3" height="3.5"/>
	<path class="st2" d="M108.5,45.4h-4.1v-7.6c-2.2,1.1-4.6,2-7,2.7l-1.8-2.9c3.3-0.8,6.5-2.2,9.5-3.9c2.4-1.4,4.6-3.2,6.6-5.2
		l3.4,2.1c-2,1.9-4.1,3.6-6.5,5L108.5,45.4z"/>
	<path class="st2" d="M117.3,42.7c5.4-1.9,9.6-5.4,11.7-10.1h-10.4v-3.2h15.5c-0.5,3-1.9,5.9-3.8,8.2c2.5,1.5,4.8,3.3,7,5.2
		l-3.2,2.8c-1.9-2-4-3.8-6.2-5.5c-4.2,3.7-6.9,4.8-8.5,5.3L117.3,42.7z"/>
	<path class="st2" d="M158,31.8v3.1c0,2.1-0.2,6.5-0.9,8.2c-0.9,2.2-3.1,2.2-4.1,2.2c-1.4,0-2.8-0.1-4.1-0.3l-0.2-3.3
		c1.1,0.2,2.2,0.3,3.3,0.3c1.4,0,1.7-0.2,1.9-1.2c0.1-0.6,0.4-4.5,0.4-5V35H150c-0.8,4.5-3.8,8.4-7.9,10.5l-2.6-2.6
		c3.7-1.8,5.7-4,6.6-8h-5.6v-3.1h6c0.1-1.5,0.1-2.5,0.1-3.2h4c-0.1,0.9-0.1,1.9-0.2,3.2L158,31.8z"/>
	<path class="st2" d="M172.7,28.6v2.6h7.1v1.1c0,0.6-0.1,6.9-4.2,10c-3,2-6.6,3.2-10.2,3.3l-1.3-3.1c4.4-0.3,8.4-1.2,10.2-3.9
		c0.8-1.2,1.3-2.7,1.4-4.2h-9.9v3.8H162v-7h6.8v-2.6C168.8,28.6,172.7,28.6,172.7,28.6z"/>
	<path class="st2" d="M188.8,28.7v4.4c3.6,1,7.1,2.3,10.4,3.9l-2.1,3.5c-2.6-1.6-5.4-2.9-8.3-3.9v8.8h-4.1V28.7H188.8z"/>
	<path class="st2" d="M65,19.1L65,19.1l-3,0.2l-0.1-1.5c0.8,0,1.5-0.2,2.2-0.4c0.8-0.4,1.6-0.8,2.2-1.3h-3v-1.5h5.9V16
		c-0.9,0.5-1.6,1-2.4,1.4l0,0l3.3-0.2l0.1,1.5l-3,0.2c-0.3,0.1-0.5,0.4-0.7,0.6s-0.3,0.4-0.3,0.7c0,0.2,0.1,0.4,0.3,0.5
		c0.3,0.1,0.7,0.2,1,0.2c0.6,0,1.2-0.1,1.8-0.2l0.2,1.6c-0.7,0.1-1.4,0.2-2.1,0.2c-2.2,0-3.3-0.7-3.3-2.1
		C64.4,19.9,64.6,19.4,65,19.1z"/>
	<path class="st2" d="M81.3,16.8v-1.6h1.5c0.2-0.6,0.2-1,0.2-1.2l1.6,0.2l-0.2,1.1h1.4v1.5h-1.7c-0.4,1.6-0.9,3.2-1.5,4.8L81,21
		c0.5-1.4,1-2.8,1.4-4.2H81.3z M89.7,17c-0.5-0.1-0.9-0.1-1.4-0.1v2.7c0.6,0.4,1.1,0.9,1.6,1.5l-1.1,1.2c-0.2-0.2-0.5-0.5-0.8-0.7
		c-0.4,0.8-1.3,1.3-2.2,1.2c-0.7,0-1.3-0.1-1.9-0.5c-0.5-0.4-0.7-0.9-0.7-1.5s0.2-1.1,0.7-1.5s1.2-0.6,1.9-0.6c0.2,0,0.5,0,0.7,0.1
		v-3.4c1.1,0,2.2,0.1,3.3,0.2L89.7,17z M86.6,20.2C86.4,20,86.1,20,85.9,20s-0.4,0-0.6,0.2c-0.1,0.1-0.2,0.3-0.2,0.4
		c0,0.2,0.1,0.3,0.2,0.4c0.2,0.1,0.4,0.2,0.6,0.1c0.2,0,0.4,0,0.5-0.2C86.5,20.7,86.6,20.5,86.6,20.2L86.6,20.2z"/>
	<path class="st2" d="M105.5,18.1h-4v-1.6h6.5v1.8l-1.8,1.2l0,0c0.1,0,0.2,0.1,0.3,0.2c0.1,0.1,0.2,0.3,0.2,0.5s0.1,0.4,0.2,0.5
		c0.2,0.1,0.4,0.1,0.5,0.1c0.4,0,0.7,0,1.1-0.1l0.3,1.5c-0.5,0.1-1,0.2-1.6,0.2c-0.5,0-1-0.1-1.5-0.3c-0.3-0.2-0.6-0.5-0.6-0.9
		c0-0.2-0.1-0.4-0.2-0.5c0-0.1-0.1-0.1-0.2-0.1c-0.2,0.1-0.4,0.1-0.6,0.3c-0.3,0.2-1.1,0.7-2.5,1.7l-1-1.4L105.5,18.1z M102.3,15.7
		l0.2-1.5c1.6,0.2,3.1,0.3,4.7,0.3V16C105.6,16,103.9,15.9,102.3,15.7L102.3,15.7z"/>
	<path class="st2" d="M125.2,20.7c-0.2,1.2-0.9,1.8-2.4,1.8c-0.7,0-1.4-0.2-1.9-0.6c-0.9-0.8-0.9-2.1-0.1-3l0,0l0.1-0.1
		c0.6-0.4,1.2-0.6,1.9-0.6h0.6v-4.1h1.8v1.4h2.7V17h-2.7v1.8c1,0.6,2,1.2,2.9,2l-1.1,1.3C126.2,21.5,125.6,21,125.2,20.7z
		 M122.8,19.9c-0.6,0-0.9,0.2-0.9,0.6c0,0.2,0.1,0.3,0.2,0.4c0.2,0.1,0.5,0.2,0.7,0.1c0.2,0,0.3,0,0.4-0.2s0.1-0.4,0.1-0.6v-0.4
		C123.2,19.9,123,19.9,122.8,19.9L122.8,19.9z"/>
	<path class="st2" d="M139.7,17.4l-0.4-1.7c1.5-0.4,3-0.6,4.5-0.7c2.5,0,3.8,1,3.8,3.1c0.1,1.2-0.6,2.4-1.6,3.1
		c-1.5,0.8-3.2,1.1-4.9,1l-0.1-1.7c0.9,0,1.8-0.1,2.8-0.2c0.5-0.1,1-0.3,1.4-0.7c0.3-0.3,0.5-0.8,0.5-1.2c0-0.4-0.1-0.9-0.5-1.2
		c-0.5-0.3-1-0.4-1.5-0.4C142.3,16.9,141,17.1,139.7,17.4z"/>
	<path class="st2" d="M164.2,15c0.8-0.1,1.5,0.2,2.1,0.8c0.5,0.9,0.7,1.8,0.6,2.8c0,0.5,0,0.9-0.1,1.4c0.1,0.2,0.4,0.5,0.7,1l-1.1,1
		l-0.2-0.3l-0.2-0.2c-0.5,0.5-1.1,0.8-1.8,0.8c-0.6,0-1.1-0.2-1.5-0.5c-0.8-0.8-0.8-2,0-2.8l0,0c0.4-0.4,1-0.6,1.6-0.5
		c0.3,0,0.6,0.1,0.9,0.2c0-0.4,0-0.8-0.1-1.2c0-0.2-0.1-0.4-0.3-0.5s-0.4-0.2-0.6-0.1c-0.3,0-0.6,0.1-0.9,0.3
		c-0.5,0.3-1,0.7-1.4,1.1v4.4h-1.6V20l-0.8,0.9l-1.2-1.1c0.8-0.9,1.4-1.6,2-2.1v-0.6h-1.6v-1.5h1.6v-1.2h1.6V16
		C162.5,15.4,163.3,15.1,164.2,15z M165,20.2c-0.2-0.2-0.4-0.4-0.7-0.4c-0.2,0-0.4,0-0.5,0.1s-0.2,0.2-0.2,0.4c0,0.1,0,0.3,0.1,0.4
		s0.3,0.2,0.4,0.1C164.6,20.9,165,20.6,165,20.2L165,20.2L165,20.2z"/>
	<path class="st2" d="M180.5,14.6c-0.3,1.3-0.5,2.6-0.4,3.9c0,1.3,0.1,2.6,0.4,3.9l-1.8,0.2c-0.6-2.7-0.6-5.4,0-8.1L180.5,14.6z
		 M183.2,18.9c-0.5,0.5-0.7,0.8-0.7,1.1c0,0.2,0.1,0.4,0.3,0.4c0.3,0.1,0.6,0.2,0.9,0.1c0.7,0,1.4-0.1,2.1-0.2l0.2,1.6
		c-0.8,0.2-1.6,0.3-2.4,0.3c-0.8,0-1.5-0.1-2.2-0.6c-0.5-0.3-0.8-0.9-0.8-1.5c0-0.4,0.2-0.7,0.3-1c0.2-0.4,0.5-0.8,0.9-1.1
		L183.2,18.9z M181.6,16.6V15h4.2v1.6H181.6z"/>
	<g>
		<path class="st2" d="M14.4,71.3V61h3.9c3.2,0,4.3,1.2,4.3,3.2c0,2.4-1.6,3.4-4.5,3.4h-1.6v3.8H14.4z M18,66.1
			c1.6,0,2.4-0.5,2.4-1.9c0-1.3-0.8-1.8-2.3-1.8h-1.6v3.7H18z"/>
		<path class="st2" d="M33.2,71.3h-2.8l-2.7-3.9h-1.3v3.9h-2.2V61H28c2.2,0,4.6,0.6,4.6,3.1c0,1.8-1.2,2.8-2.7,3L33.2,71.3z
			 M28.2,66c1.4,0,2.2-0.6,2.2-1.8c0-1.1-0.7-1.8-2.4-1.8h-1.6V66H28.2z"/>
		<path class="st2" d="M35.5,61.4c1,1.5,1.3,2.1,1.9,3.4l-1.7,0.8c-0.8-1.7-1.3-2.5-1.8-3.3L35.5,61.4z M45.7,61.7
			c-0.6,2.1-1.1,4.3-2.7,6.4c-2,2.5-4.7,3.5-6.2,4c-0.2-0.6-0.5-1.2-1.1-1.8c5.5-1.1,7.2-4.6,8-9L45.7,61.7z M39.3,60.5
			c0.7,1.3,0.9,1.8,1.5,3.3l-1.7,0.8c-0.5-1.2-0.8-1.9-1.5-3.3L39.3,60.5z"/>
		<path class="st2" d="M58.2,65.1v1.8H47.1v-1.8H58.2z"/>
		<path class="st2" d="M64.5,61.4c-0.1,4.5-0.1,5.9-1,7.6c-0.7,1.3-1.8,2.4-2.9,3.1c-0.2-0.5-0.6-1.1-1.1-1.6
			c1.5-0.8,2.4-1.9,2.9-3.6c0.3-1.2,0.3-2.4,0.3-5.5H64.5z M67.9,60.4v8.3c0.9-0.7,2.3-1.8,3.5-3.9c0.4,0.5,1,0.9,1.4,1.2
			c-1.7,2.5-3.2,3.7-5.8,5.6l-1.1-1.2l0.1-0.2v-9.8H67.9z"/>
		<path class="st2" d="M83.4,61.7l0.2-0.1l1.3,1.3c-0.2,0.3-0.8,1.8-1,2.1c-2,3.9-4.4,5.8-8.5,7.2c-0.2-0.6-0.5-1.2-1.1-1.8
			c0.9-0.2,1.3-0.4,1.7-0.5c0.9-0.3,2.3-1,3.7-2.2c-0.4-0.4-0.7-0.6-2.2-1.9l1.1-1.2c1,0.6,1.7,1.2,2.4,1.7c0.8-1.1,1.4-2.2,1.7-3.1
			H79c-1.1,1.5-2.5,2.9-4.3,4c-0.3-0.5-0.6-1.1-1.2-1.5c1.2-0.6,3.5-1.9,5.2-5.9l1.9,0.6c-0.2,0.4-0.4,0.8-0.6,1.2H83.4z M84.1,60.3
			c0.5,0.4,1.1,0.9,1.5,1.4l-0.7,0.7c-0.4-0.5-1-1-1.5-1.5L84.1,60.3z M85.2,59.2c0.5,0.4,1.1,0.9,1.6,1.4L86,61.3
			c-0.5-0.5-0.9-1-1.5-1.4L85.2,59.2z"/>
		<path class="st2" d="M93.6,60v2.3h4.1c0,2-0.1,4.8-1.8,6.9c-1.3,1.6-3.1,2.4-5.8,3c-0.1-0.7-0.4-1.3-0.9-1.8
			c5.6-0.8,6.3-3.4,6.5-6.5h-6.1V67h-1.9v-4.8h3.9V60H93.6z"/>
		<path class="st2" d="M102.9,64.6c-1.2-1.1-2-1.7-3.3-2.6l1.1-1.5c1.3,0.8,2.5,1.7,3.4,2.5L102.9,64.6z M99.6,70
			c4.5-1.5,7.4-3.9,9.9-7.2c0.4,0.6,0.8,1,1.3,1.4c-1.8,2.3-3.3,3.7-5.5,5.2c-1.6,1.1-2,1.3-4.8,2.5L99.6,70z"/>
		<path class="st2" d="M122.5,61.4v9.7h-2v-0.7h-5.9v0.8h-1.9v-9.8H122.5z M114.6,63.1v5.5h5.9v-5.5H114.6z"/>
		<path class="st2" d="M135.9,65.1v1.8h-11.1v-1.8H135.9z"/>
		<path class="st2" d="M141,60v3.7c3.2,1.1,4.5,1.9,5.9,2.7l-1,1.7c-2-1.3-3.7-2-4.9-2.5v6.5h-2V60H141z M145,63.6
			c-0.4-0.5-1.1-1.1-1.7-1.5l0.8-0.8c0.6,0.4,1.2,1,1.7,1.5L145,63.6z M145.3,60c0.6,0.4,1.2,1,1.7,1.5l-0.9,0.9
			c-0.5-0.5-1.1-1.1-1.7-1.5L145.3,60z"/>
		<path class="st2" d="M153.5,60.2v3.2c0.8-0.1,4.2-0.6,4.9-0.7l0.3-0.1l1.3,1.3c-1.7,2.2-2.6,3-4.1,4.4l-1.2-1.4
			c1-0.8,1.4-1.2,2.4-2.3c-1.2,0.2-2.5,0.4-3.7,0.6V69c0,0.7,0,0.9,2.6,0.9c1.7,0,2.6-0.1,3.6-0.2v1.9c-1,0.1-1.3,0.1-2.7,0.1
			c-3.8,0-5.4-0.2-5.4-2v-4.4c-1,0.2-2,0.3-3,0.5l-0.3-1.8c1-0.2,2.2-0.3,3.2-0.5v-3.5H153.5z"/>
		<path class="st2" d="M165,64.6c-1.2-1.1-2-1.7-3.3-2.6l1.1-1.5c1.3,0.8,2.5,1.7,3.4,2.5L165,64.6z M161.8,70
			c4.5-1.5,7.4-3.9,9.9-7.2c0.4,0.6,0.8,1,1.3,1.4c-1.8,2.3-3.3,3.7-5.5,5.2c-1.6,1.1-2,1.3-4.8,2.5L161.8,70z"/>
		<path class="st2" d="M183.9,61.8l0.2-0.1l1.1,1.2c-0.2,0.3-0.8,1.8-1,2.1c-1.8,3.7-4.1,5.9-8.6,7.3c-0.2-0.6-0.5-1.2-1.1-1.7
			c1.9-0.5,3.5-1.1,5.4-2.8c-1-0.8-1.6-1.3-2.3-1.8l1.1-1.2c0.9,0.5,1.4,0.9,2.4,1.7c0.8-0.9,1-1.5,1.7-3.1h-3.5
			c-1.2,1.5-2.1,2.7-4.4,4.1c-0.2-0.6-0.6-1.1-1.1-1.6c2.7-1.5,4.1-3.5,5.2-6l1.9,0.6c-0.2,0.4-0.4,0.8-0.6,1.2H183.9z"/>
		<path class="st2" d="M197.8,65.1v1.8h-11.1v-1.8H197.8z"/>
	</g>
</g>
</svg>
