<svg id="レイヤー_1" data-name="レイヤー 1" xmlns="http://www.w3.org/2000/svg" viewBox="0 0 466.33 68"><defs><style>.cls-1{fill:#fff;}</style></defs><title>アートボード 1</title><path class="cls-1" d="M26.31,13.34h5.26V54H23.4V22.47l-8.29,4.14L12.2,20.74Z"/><path class="cls-1" d="M38.07,33.78C38.07,19.73,42.77,13,52.63,13s14.62,7,14.62,20.89S62.71,54.78,52.63,54.78c-9.35,0-14.56-6.16-14.56-20.94Zm14.5-15.12c-3.36,0-6.16,4.2-6.16,15.12,0,11.7,2.52,15.18,6.22,15.18,3.92,0,6.27-3.7,6.27-15.18,0-10.75-2.69-15.12-6.27-15.12Z"/><path class="cls-1" d="M107.25,26.14v4h-17c0,1.69-.07,3.6-.14,5.44h13.64c-.29,8.46-.54,15.37-1.62,17.67-.68,1.55-2,2.56-7.88,2.63a13.64,13.64,0,0,0-1.37-4.14h4c.9,0,1.19,0,1.55-2.84.07-.65.47-4.43.68-9.43h-9.5C89.18,42.55,88,50.83,77.77,56.38A12.68,12.68,0,0,0,75,52.7c9.83-5.33,10.8-11.19,10.94-22.53H76v-4Z"/><path class="cls-1" d="M125.9,24.59c0,2.45-.11,5.11-.29,7.67a31.09,31.09,0,0,0,1.15,4.14c3,8.64,7.78,12.67,14,16.09a11,11,0,0,0-2.77,4.1A30.35,30.35,0,0,1,124.07,40.5a24.65,24.65,0,0,1-5.76,9.68,30.85,30.85,0,0,1-8.21,6.51,14.94,14.94,0,0,0-3-3.89c13-6.62,14.22-15.77,14.22-28.22Z"/><path class="cls-1" d="M158.84,51c9.79-1.22,11.7-7,11.7-10.76a9.51,9.51,0,0,0-1.91-5.83c-1.4-1.8-3.6-2.81-6.52-3.24-2.63,14.87-8,21.31-11.55,21.31-3.89,0-6-5.65-6-10,0-8.06,6.33-15,16.27-15,9.47,0,14.54,5.47,14.54,13a13.27,13.27,0,0,1-6.52,12,24.65,24.65,0,0,1-8,3A13.4,13.4,0,0,0,158.84,51Zm-8.28-14.79A10.67,10.67,0,0,0,148.94,42c0,2.23.86,5.47,2.23,5.47,1.12,0,1.87-1.62,2.12-2.05a50.34,50.34,0,0,0,4.36-13.89A11.14,11.14,0,0,0,150.56,36.25Z"/><path class="cls-1" d="M182.82,29.61V24.19H197.7c0-2.64.1-5.71.1-9.22h6c0,3.26,0,6.34-.1,9.22h17.19C220.7,36,220.5,47,219,51.46c-1.06,3-2.59,4.85-11.19,5.14A13.05,13.05,0,0,0,205.77,51h6.1c1.3,0,1.39-.19,1.82-4.46a156.12,156.12,0,0,0,1-16.9H203.32c-.77,8-3.22,19.54-18.39,27.31a15.54,15.54,0,0,0-3.74-5.09c5.57-2.74,9.17-5.38,12-9.94a26.29,26.29,0,0,0,4-12.29Z"/><path class="cls-1" d="M247,25.89c-.65,1.08-1.37,2.27-2,3.28a48.17,48.17,0,0,0,7.78-1.44l.14,4.39a103.67,103.67,0,0,1-10.55,1.15c-.58.83-1.22,1.84-1.76,2.66a6.38,6.38,0,0,1,2.48-.54c3.85,0,4.43,2.59,4.72,3.85,2.05-.76,8.71-3,9.36-3.28l1.37,4.46a90.85,90.85,0,0,0-10.48,3v4.89h-4.5c0-.9,0-2.16,0-3.31-2.7,1.26-4.9,2.34-4.9,3.92,0,2.56,4.82,2.56,7.34,2.56a52.56,52.56,0,0,0,9.47-.72l0,4.61a69.56,69.56,0,0,1-7.77.43c-2.7,0-8,0-11.12-2.16a5.1,5.1,0,0,1-2.34-4.25c0-4.36,5.15-6.73,9.29-8.57,0-1-.43-2-1.73-2a8.06,8.06,0,0,0-5.11,2.23c-.83.79-4.21,4.5-4.9,5.22l-3.17-3.2a44,44,0,0,0,8.78-9.58c-1.37.07-2.09.07-3.17.07a22.2,22.2,0,0,1-2.34-.14V29.2c3.17.25,4,.29,5.33.29.65,0,1.48,0,2.63-.07a44.69,44.69,0,0,0,2.34-5.33Z"/><path class="cls-1" d="M304,45.7a53,53,0,0,1-6.82-13.2v1.73c0,8.3-2,13.82-6,17a16.25,16.25,0,0,1-10.51,3.6c-7.92,0-13.39-4.94-13.39-12.34,0-6.91,4.85-14,8.93-19a62.72,62.72,0,0,1-9.7,2.16L266,19.53a45.39,45.39,0,0,0,16.23-2.59l3.74,5.14c-4.66,3-12.43,11.86-12.43,19.44,0,5.23,3.89,7.58,8.06,7.58,9.46,0,10.9-11.38,10.9-18.58a57.25,57.25,0,0,0-1-11.23L297.88,18a51,51,0,0,0,10.95,22.9Z"/><path class="cls-1" d="M333.88,15.07c-.34,5.18-.38,9-.38,9.6a39.39,39.39,0,0,0,.58,6.58c3.7-1.3,4.75-1.58,14.69-4.32l2,6.29c-9.12,1.82-20.07,4-25.49,8.69a5.29,5.29,0,0,0-2.16,3.84c0,4.9,9.22,4.9,12.63,4.9a118.11,118.11,0,0,0,15-1L351,56a109.86,109.86,0,0,1-12,.67c-4.66,0-11.38-.29-15.51-2-5-2.06-6.38-6-6.38-8.5,0-7.15,7.73-10.85,11.67-12.82-1.34-4.85-1.34-5.76-1.34-18.19Z"/><path class="cls-1" d="M361.33,24.67c2.93-.43,16.08-2.54,18.82-2.93a49.54,49.54,0,0,1,6.53-.48c3.74,0,9.55.43,12.82,6A15.79,15.79,0,0,1,401.42,35c0,16.42-19.35,18.91-29.43,19a16.63,16.63,0,0,0-1.78-6.34c4.18.1,13.25.34,19.54-3.55A10.3,10.3,0,0,0,395,34.89C395,27,388.7,27,386.58,27c-6.29,0-15,2.21-23.91,4.37Z"/><path class="cls-1" d="M417.59,27.36a76.87,76.87,0,0,0-2.12,17,60.69,60.69,0,0,0,.94,10.19l-4.54.94a56.63,56.63,0,0,1-1-10.73,93.07,93.07,0,0,1,2.05-18.5Zm6.19,17c0,3.49.43,4.82,8.57,4.82a29.19,29.19,0,0,0,6.55-.5l.22,4.93a27.35,27.35,0,0,1-4.25.32c-9.43,0-15.84-.83-15.33-9.58ZM437.1,33.48c-2.16-.07-3.49-.07-4.79-.07a55.3,55.3,0,0,0-11.19,1.08l-.43-4.25a55.4,55.4,0,0,1,13.21-1.3c.94,0,2.05,0,3.46,0Z"/><path class="cls-1" d="M450.9,57.36a6.31,6.31,0,0,1-6.53-6.43,6.41,6.41,0,0,1,6.53-6.53,6.5,6.5,0,0,1,6.38,6.53A6.19,6.19,0,0,1,450.9,57.36Zm0-3.46a3,3,0,0,0,2.93-3,2.94,2.94,0,0,0-3-3,2.86,2.86,0,0,0-2.93,2.88A3.05,3.05,0,0,0,450.9,53.9Z"/></svg>